<?xml version="1.0" encoding="utf-8"?>
<!-- Generator: Adobe Illustrator 21.1.0, SVG Export Plug-In . SVG Version: 6.00 Build 0)  -->
<svg version="1.1" id="Layer_1" xmlns="http://www.w3.org/2000/svg" xmlns:xlink="http://www.w3.org/1999/xlink" x="0px" y="0px"
	 viewBox="0 0 35.9 35.9" style="enable-background:new 0 0 35.9 35.9;" xml:space="preserve">
<style type="text/css">
	.st0{fill:#0C6DB3;}
	.st1{fill:#3EABD6;}
</style>
<path class="st0" d="M11,30.1l-0.8-0.3C4.1,27.7,0,21.9,0,15.4C0,6.9,6.9,0,15.4,0c6.5,0,12.3,4.1,14.5,10.3l0.3,0.8l-1.5,0.5
	l-0.3-0.8c-1.9-5.5-7.2-9.2-13-9.2C7.8,1.6,1.6,7.8,1.6,15.4c0,5.8,3.7,11,9.2,13l0.8,0.3L11,30.1z"/>
<path class="st0" d="M10.7,23L10,22.5c-2.3-1.7-3.6-4.3-3.6-7.1c0-4.9,4-8.9,8.9-8.9c2.8,0,5.4,1.3,7.1,3.6l0.5,0.6l-1.3,1L21.2,11
	c-1.4-1.9-3.5-2.9-5.8-2.9c-4,0-7.3,3.3-7.3,7.3c0,2.3,1.1,4.4,2.9,5.8l0.6,0.5L10.7,23z"/>
<path class="st1" d="M28.3,35.9l-6.5-6.5L16.3,35l-1.9-20.5L35,16.3l-5.5,5.5l6.5,6.5L28.3,35.9z M21.8,27.2l6.5,6.5l5.3-5.3
	l-6.5-6.5l4.2-4.2l-15.2-1.4l1.4,15.2L21.8,27.2z"/>
</svg>
