<?xml version="1.0" encoding="UTF-8"?>
<svg xmlns="http://www.w3.org/2000/svg" xmlns:xlink="http://www.w3.org/1999/xlink" version="1.2" >
<font id="EurobankSans-LightItalic">
<font-face  font-family="Eurobank Sans" units-per-em="1000" ascent="750" descent="-250" font-style="italic" font-weight="300" font-stretch="normal" cap-height="662" x-height="445" underline-position="-80" underline-thickness="40" />
<missing-glyph  horiz-adv-x="445" d="M5 699 L439 699 L439 0 L5 0 L5 699 Z M61 33 L383 33 Q342 105 302 175.5 Q262 246 222 318 L61 33 Z M222 380 Q262 452 302 522.5 Q342 593 383 665 L61 665 L222 380 Z M243 349 Q284 277 324 205.5 Q364 134 406 62 L406 637 Q364 565 324 493 Q284 421 243 349 Z M201 349 Q160 421 120 492.5 Q80 564 38 636 L38 63 L201 349 Z " />
<glyph glyph-name="NULL" d="" />
<glyph glyph-name="nonmarkingreturn" unicode="&#xd;" horiz-adv-x="240" d="" />
<glyph glyph-name="space" unicode="&#x20;" horiz-adv-x="240" d="" />
<glyph glyph-name="percent" unicode="&#x25;" horiz-adv-x="713" d="M210 359 Q174 359 147 371 Q120 383 103 404 Q86 425 79 453 Q72 481 77 514 Q81 547 97.5 575 Q114 603 138 624 Q162 645 192 657 Q222 669 254 669 Q287 669 313.5 657 Q340 645 357 624 Q374 603 381 575 Q388 547 384 514 Q379 481 363.5 453 Q348 425 325 404 Q302 383 272.5 371 Q243 359 210 359 Z M247 625 Q224 625 203.5 616 Q183 607 167 592 Q151 577 140.5 556.5 Q130 536 127 514 Q120 467 142.5 434.5 Q165 402 216 402 Q240 402 260 411 Q280 420 295.5 435.5 Q311 451 321 471.5 Q331 492 334 514 Q337 536 332.5 556 Q328 576 316.5 591.5 Q305 607 287.5 616 Q270 625 247 625 Z M499 -6 Q463 -6 436 5.5 Q409 17 392 37.5 Q375 58 368 86 Q361 114 366 147 Q371 180 387 208.5 Q403 237 426.5 258.5 Q450 280 479.5 292 Q509 304 542 304 Q575 304 601.5 292 Q628 280 645.5 259 Q663 238 670.5 210 Q678 182 673 149 Q668 116 652.5 88 Q637 60 614 39 Q591 18 561.5 6 Q532 -6 499 -6 Z M536 260 Q513 260 492.5 251 Q472 242 456.5 227 Q441 212 430 191.5 Q419 171 416 149 Q410 102 432.5 69.5 Q455 37 505 37 Q529 37 549.5 46 Q570 55 585 70.5 Q600 86 610 106.5 Q620 127 623 149 Q626 171 621.5 191 Q617 211 606 226.5 Q595 242 577 251 Q559 260 536 260 Z M92 -19 L45 -19 L649 681 L696 681 L92 -19 Z " />
<glyph glyph-name="ampersand" unicode="&#x26;" horiz-adv-x="681" d="M361 677 Q424 677 456 644.5 Q488 612 488 564 Q488 532 475.5 505 Q463 478 441.5 454.5 Q420 431 392 409.5 Q364 388 333 369 L484 164 Q510 200 528 238 Q546 276 555 310 Q569 308 579.5 306 Q590 304 601 302 Q591 267 569.5 219.5 Q548 172 512 126 L606 0 L531 0 L473 83 Q430 43 372 16 Q314 -11 241 -11 Q202 -11 168.5 -0.5 Q135 10 111 29.5 Q87 49 73.5 77 Q60 105 60 139 Q60 181 77.5 214.5 Q95 248 123 276 Q151 304 186.5 328 Q222 352 258 374 Q224 419 207 453 Q190 487 190 521 Q190 549 201.5 577 Q213 605 235 627 Q257 649 289 663 Q321 677 361 677 Z M253 39 Q312 39 360.5 62 Q409 85 445 120 L285 339 Q253 319 223 297 Q193 275 170 251.5 Q147 228 132.5 201.5 Q118 175 118 146 Q118 126 126 107 Q134 88 151 73 Q168 58 193 48.5 Q218 39 253 39 Z M354 631 Q331 631 311 622.5 Q291 614 276 599.5 Q261 585 252.5 566 Q244 547 244 525 Q244 512 247.5 500.5 Q251 489 258.5 475.5 Q266 462 278 445 Q290 428 307 405 Q334 422 357.5 439.5 Q381 457 398.5 475.5 Q416 494 426 515.5 Q436 537 436 561 Q436 597 410.5 614 Q385 631 354 631 Z " />
<glyph glyph-name="quotesingle" unicode="&#x27;" horiz-adv-x="199" d="M111 473 L140 682 L189 682 L160 473 L111 473 Z " />
<glyph glyph-name="parenleft" unicode="&#x28;" horiz-adv-x="290" d="M341 725 Q258 625 208.5 520.5 Q159 416 144 307 Q129 199 148 93 Q167 -13 221 -116 L185 -129 Q156 -83 134.5 -30 Q113 23 100.5 79.5 Q88 136 85 194 Q82 252 90 308 Q107 427 165.5 535.5 Q224 644 310 737 L341 725 Z " />
<glyph glyph-name="parenright" unicode="&#x29;" horiz-adv-x="290" d="M132 737 Q192 644 220.5 535.5 Q249 427 232 308 Q224 252 205 194 Q186 136 157.5 79.5 Q129 23 92.5 -30 Q56 -83 13 -129 L-19 -116 Q148 90 178 307 Q193 416 173 520.5 Q153 625 97 725 L132 737 Z " />
<glyph glyph-name="asterisk" unicode="&#x2a;" horiz-adv-x="439" d="M356 426 L305 393 L258 498 L183 393 L139 426 L227 516 L120 544 L148 599 L249 551 L256 671 L310 671 L284 551 L398 599 L408 545 L293 516 L356 426 Z " />
<glyph glyph-name="plus" unicode="&#x2b;" horiz-adv-x="540" d="M278 107 L232 107 L255 276 L88 276 L95 321 L262 321 L285 488 L331 488 L308 321 L474 321 L467 276 L301 276 L278 107 Z " />
<glyph glyph-name="comma" unicode="&#x2c;" horiz-adv-x="173" d="M-10 -104 Q5 -96 19 -84 Q33 -72 43.5 -58 Q54 -44 61 -29.5 Q68 -15 71 -2 Q66 -4 62 -4 Q58 -4 55 -4 Q37 -4 25 7 Q13 18 16 41 Q19 60 34.5 74.5 Q50 89 72 89 Q99 89 108 68.5 Q117 48 112 20 Q110 2 101.5 -19 Q93 -40 79 -61 Q65 -82 45.5 -100 Q26 -118 2 -128 L-10 -104 Z " />
<glyph glyph-name="hyphen" unicode="&#x2d;" horiz-adv-x="376" d="M68 270 L322 270 L315 217 L61 217 L68 270 Z " />
<glyph glyph-name="period" unicode="&#x2e;" horiz-adv-x="165" d="M103 38 Q100 19 85 6 Q70 -7 51 -7 Q32 -7 20.5 6 Q9 19 12 38 Q14 58 29 71 Q44 84 63 84 Q83 84 94 71 Q105 58 103 38 Z " />
<glyph glyph-name="slash" unicode="&#x2f;" horiz-adv-x="297" d="M-74 -88 Q34 107 141.5 300.5 Q249 494 358 690 L405 690 Q296 494 188.5 300.5 Q81 107 -29 -88 L-74 -88 Z " />
<glyph glyph-name="zero" unicode="0" horiz-adv-x="540" d="M303 672 Q379 672 420 638 Q461 604 479 552.5 Q497 501 496.5 441 Q496 381 489 329 Q482 278 465 219 Q448 160 415.5 109 Q383 58 332.5 24 Q282 -10 207 -10 Q133 -10 92.5 22.5 Q52 55 33.5 105.5 Q15 156 14.5 215.5 Q14 275 22 329 Q29 381 46 441 Q63 501 95.5 552.5 Q128 604 178.5 638 Q229 672 303 672 Z M296 624 Q238 624 199.5 593.5 Q161 563 136 518 Q111 473 98.5 422 Q86 371 80 329 Q74 287 72.5 236 Q71 185 83 141 Q95 97 125.5 67.5 Q156 38 214 38 Q272 38 311 68 Q350 98 375 142 Q400 186 413 236.5 Q426 287 432 329 Q438 371 439 422 Q440 473 427.5 518 Q415 563 384.5 593.5 Q354 624 296 624 Z " />
<glyph glyph-name="one" unicode="1" horiz-adv-x="355" d="M177 533 L78 533 L84 574 Q130 580 162 599.5 Q194 619 212 662 L253 662 L160 0 L103 0 L177 533 Z " />
<glyph glyph-name="two" unicode="2" horiz-adv-x="540" d="M67 554 Q108 608 171 640 Q234 672 305 672 Q344 672 378.5 663.5 Q413 655 439 637.5 Q465 620 480.5 594 Q496 568 496 533 Q496 474 466 432 Q436 390 390 357 Q344 324 288.5 294.5 Q233 265 182.5 231 Q132 197 92.5 154 Q53 111 40 50 L440 50 L433 0 L-30 0 L-29 8 Q-19 71 5 117.5 Q29 164 64.5 201 Q100 238 146.5 268 Q193 298 248 328 Q280 346 314 366.5 Q348 387 375.5 411 Q403 435 420.5 462.5 Q438 490 438 523 Q438 548 426.5 566.5 Q415 585 395 597 Q375 609 349 615 Q323 621 294 621 Q265 621 237 613 Q209 605 184 591.5 Q159 578 138 560.5 Q117 543 102 524 L67 554 Z " />
<glyph glyph-name="three" unicode="3" horiz-adv-x="518" d="M198 404 Q204 405 214 405.5 Q224 406 232 406 Q278 406 316 394 Q354 382 381 360 Q408 338 423 306.5 Q438 275 438 237 Q438 177 414 131.5 Q390 86 352 54.5 Q314 23 265 7 Q216 -9 167 -9 Q107 -9 53 6.5 Q-1 22 -43 65 L-11 104 Q27 72 71 55.5 Q115 39 169 39 Q217 39 256.5 53.5 Q296 68 323.5 94 Q351 120 366 155.5 Q381 191 381 233 Q381 266 367 290.5 Q353 315 329 330.5 Q305 346 274 354 Q243 362 209 362 Q189 362 172 360.5 Q155 359 139 357 L121 401 L395 610 L394 612 L72 612 L79 662 L477 662 L470 613 L198 406 L198 404 Z " />
<glyph glyph-name="four" unicode="4" horiz-adv-x="540" d="M-16 216 L412 661 L467 661 L405 219 L493 219 L486 169 L398 169 L375 0 L318 0 L341 169 L-23 169 L-16 216 Z M348 219 L399 579 L49 219 L348 219 Z " />
<glyph glyph-name="five" unicode="5" horiz-adv-x="540" d="M10 101 Q22 92 38 81 Q54 70 76.5 61 Q99 52 127 46 Q155 40 191 40 Q235 40 272.5 54.5 Q310 69 337.5 94.5 Q365 120 380.5 155 Q396 190 396 230 Q396 296 352 327.5 Q308 359 239 359 Q217 359 186 355 Q155 351 112 332 L74 360 L155 662 L492 662 L485 612 L197 612 L136 388 Q165 400 196.5 404.5 Q228 409 255 409 Q295 409 331 398.5 Q367 388 394 367 Q421 346 437 314 Q453 282 453 239 Q453 179 430 132.5 Q407 86 369 54.5 Q331 23 283 7 Q235 -9 184 -9 Q144 -9 112.5 -3 Q81 3 55.5 12.5 Q30 22 11 34.5 Q-8 47 -23 61 L10 101 Z " />
<glyph glyph-name="six" unicode="6" horiz-adv-x="540" d="M369 661 L154 375 L159 374 Q172 385 189 391.5 Q206 398 222.5 401.5 Q239 405 253.5 406 Q268 407 277 407 Q319 407 353 394.5 Q387 382 411.5 359 Q436 336 449.5 304 Q463 272 463 233 Q463 179 442.5 134.5 Q422 90 387.5 57.5 Q353 25 306.5 7 Q260 -11 208 -11 Q114 -11 61.5 37 Q9 85 9 165 Q9 197 17 227 Q25 257 38 284.5 Q51 312 67 336 Q83 360 98 381 L307 661 L369 661 Z M262 360 Q224 360 189 347.5 Q154 335 126.5 311 Q99 287 82.5 252.5 Q66 218 66 173 Q66 114 103.5 75 Q141 36 215 36 Q259 36 294.5 51 Q330 66 355 92 Q380 118 393.5 152.5 Q407 187 407 226 Q407 285 369.5 322.5 Q332 360 262 360 Z " />
<glyph glyph-name="seven" unicode="7" horiz-adv-x="433" d="M4 0 L378 612 L31 612 L38 662 L443 662 L436 616 L61 0 L4 0 Z " />
<glyph glyph-name="eight" unicode="8" horiz-adv-x="540" d="M360 354 Q411 333 435 296 Q459 259 459 211 Q459 160 439 119.5 Q419 79 384.5 50 Q350 21 304.5 5.5 Q259 -10 209 -10 Q165 -10 128.5 1 Q92 12 66 32 Q40 52 25.5 81.5 Q11 111 11 149 Q11 181 21 211.5 Q31 242 49.5 268 Q68 294 94.5 314 Q121 334 155 346 L156 350 Q114 370 97.5 404 Q81 438 81 473 Q81 518 99.5 554.5 Q118 591 149 617 Q180 643 220.5 657.5 Q261 672 305 672 Q342 672 373.5 661.5 Q405 651 428.5 631.5 Q452 612 465.5 584.5 Q479 557 479 523 Q479 496 470.5 470 Q462 444 447 422 Q432 400 410 383 Q388 366 361 357 L360 354 Z M256 326 Q215 326 180.5 313.5 Q146 301 120.5 278.5 Q95 256 81 226 Q67 196 67 162 Q67 108 105 72 Q143 36 216 36 Q258 36 292 49.5 Q326 63 351 86 Q376 109 389.5 139.5 Q403 170 403 205 Q403 259 365 292.5 Q327 326 256 326 Z M298 623 Q264 623 235 612 Q206 601 184.5 581.5 Q163 562 151 535.5 Q139 509 139 478 Q139 430 172.5 401 Q206 372 263 372 Q296 372 324.5 383 Q353 394 374.5 413 Q396 432 408.5 458 Q421 484 421 515 Q421 563 388.5 593 Q356 623 298 623 Z " />
<glyph glyph-name="nine" unicode="9" horiz-adv-x="540" d="M141 0 L355 285 L351 288 Q337 277 321 271 Q305 265 288.5 261 Q272 257 257.5 256 Q243 255 234 255 Q192 255 158 267.5 Q124 280 100 303 Q76 326 62.5 358 Q49 390 49 429 Q49 482 69.5 526.5 Q90 571 124.5 603 Q159 635 205.5 653 Q252 671 303 671 Q396 671 447.5 623.5 Q499 576 499 498 Q499 466 491 436 Q483 406 470.5 378.5 Q458 351 442.5 327 Q427 303 412 282 L203 0 L141 0 Z M249 303 Q287 303 322 315.5 Q357 328 383.5 351.5 Q410 375 426 409.5 Q442 444 442 489 Q442 548 405 586 Q368 624 296 624 Q254 624 218.5 609 Q183 594 158 568.5 Q133 543 119 509 Q105 475 105 437 Q105 378 142.5 340.5 Q180 303 249 303 Z " />
<glyph glyph-name="colon" unicode="&#x3a;" horiz-adv-x="192" d="M161 349 Q158 331 142.5 318 Q127 305 108 305 Q89 305 78 318 Q67 331 70 349 Q72 369 87 382 Q102 395 121 395 Q141 395 152 382 Q163 369 161 349 Z M116 40 Q114 21 98.5 8 Q83 -5 64 -5 Q45 -5 34 8 Q23 21 25 40 Q28 59 42.5 72 Q57 85 76 85 Q96 85 107.5 72 Q119 59 116 40 Z " />
<glyph glyph-name="less" unicode="&#x3c;" horiz-adv-x="540" d="M109 313 L505 511 L498 456 L178 298 L453 137 L445 83 L105 282 L109 313 Z " />
<glyph glyph-name="equal" unicode="&#x3d;" horiz-adv-x="540" d="M93 354 L100 399 L491 399 L484 354 L93 354 Z M71 193 L77 237 L468 237 L462 193 L71 193 Z " />
<glyph glyph-name="greater" unicode="&#x3e;" horiz-adv-x="540" d="M453 282 L57 83 L65 137 L384 298 L110 456 L117 511 L457 313 L453 282 Z " />
<glyph glyph-name="question" unicode="&#x3f;" horiz-adv-x="492" d="M280 692 Q316 692 348.5 682 Q381 672 405.5 652.5 Q430 633 444.5 604.5 Q459 576 459 539 Q459 492 439.5 454.5 Q420 417 391 386.5 Q362 356 328 331 Q294 306 265 282.5 Q236 259 216.5 235.5 Q197 212 197 186 Q197 170 205 154 L147 138 Q139 165 139 184 Q139 219 158.5 248 Q178 277 207 302.5 Q236 328 270.5 352 Q305 376 334 403 Q363 430 382.5 460.5 Q402 491 402 530 Q402 577 369 607.5 Q336 638 269 638 Q233 638 194 626.5 Q155 615 126 598 L108 641 Q144 664 188 678 Q232 692 280 692 Z M171 80 Q189 80 199.5 69.5 Q210 59 210 42 Q210 20 194 5.5 Q178 -9 158 -9 Q141 -9 130.5 1 Q120 11 120 28 Q120 50 135 65 Q150 80 171 80 Z " />
<glyph glyph-name="at" unicode="&#x40;" horiz-adv-x="895" d="M547 218 Q536 204 521 190 Q506 176 486.5 164.5 Q467 153 444 146 Q421 139 393 139 Q363 139 341.5 149 Q320 159 306 176 Q292 193 285 215 Q278 237 278 262 Q278 302 295 343.5 Q312 385 342 418 Q372 451 412.5 472 Q453 493 499 493 Q538 493 562 474 Q586 455 597 433 L600 433 L617 486 L660 486 L597 266 Q591 248 591 231 Q591 210 603 194.5 Q615 179 648 179 Q678 179 703 200.5 Q728 222 746.5 255.5 Q765 289 775.5 329.5 Q786 370 786 407 Q786 454 769 495 Q752 536 720 566 Q688 596 642 613 Q596 630 538 630 Q461 630 389 598 Q317 566 261.5 512.5 Q206 459 172.5 388.5 Q139 318 139 242 Q139 188 157.5 143 Q176 98 211 65 Q246 32 295.5 14 Q345 -4 407 -4 Q459 -4 507 8.5 Q555 21 606 49 L623 8 Q590 -11 558.5 -22.5 Q527 -34 498.5 -40 Q470 -46 444 -48 Q418 -50 397 -50 Q323 -50 265.5 -29.5 Q208 -9 168.5 28.5 Q129 66 108 117 Q87 168 87 230 Q87 321 125.5 402 Q164 483 228 544 Q292 605 375 641 Q458 677 547 677 Q616 677 670 657 Q724 637 761.5 602 Q799 567 818.5 519.5 Q838 472 838 416 Q838 363 822.5 313 Q807 263 779.5 224 Q752 185 714.5 161.5 Q677 138 634 138 Q607 138 590.5 147 Q574 156 565 168.5 Q556 181 553 194.5 Q550 208 550 217 L547 218 Z M489 448 Q459 448 430 433.5 Q401 419 378.5 395 Q356 371 342.5 339 Q329 307 329 272 Q329 234 350 209.5 Q371 185 414 185 Q448 185 476.5 200.5 Q505 216 526 241.5 Q547 267 559 298 Q571 329 571 361 Q571 398 550 423 Q529 448 489 448 Z " />
<glyph glyph-name="A" unicode="A" horiz-adv-x="612" d="M397 662 L567 0 L507 0 L465 161 L129 161 L44 0 L-15 0 L343 662 L397 662 Z M155 210 L453 210 L359 584 L355 584 L155 210 Z " />
<glyph glyph-name="B" unicode="B" horiz-adv-x="591" d="M411 346 Q434 343 456 333 Q478 323 495 306.5 Q512 290 522.5 266.5 Q533 243 533 211 Q533 163 515 124.5 Q497 86 466 58 Q435 30 393.5 15 Q352 0 306 0 L55 0 L148 662 L374 662 Q446 662 492 626 Q538 590 538 524 Q538 484 527 454.5 Q516 425 498 404 Q480 383 457.5 369.5 Q435 356 412 349 L411 346 Z M297 53 Q330 53 362.5 62.5 Q395 72 420.5 91 Q446 110 462 139 Q478 168 478 208 Q478 261 436.5 288.5 Q395 316 323 316 L157 316 L120 53 L297 53 Z M164 367 L322 367 Q341 367 368.5 373.5 Q396 380 421 396 Q446 412 464 439.5 Q482 467 482 509 Q482 554 452.5 582 Q423 610 364 610 L198 610 L164 367 Z " />
<glyph glyph-name="C" unicode="C" horiz-adv-x="630" d="M449 674 Q501 674 551.5 659.5 Q602 645 646 606 L608 561 Q567 595 525.5 606.5 Q484 618 442 618 Q392 618 336.5 597.5 Q281 577 234.5 535 Q188 493 158 429 Q128 365 128 278 Q128 226 144 183 Q160 140 190 109.5 Q220 79 263 62.5 Q306 46 359 46 Q413 46 464 61.5 Q515 77 565 110 L588 65 Q531 23 468 6.5 Q405 -10 351 -10 Q285 -10 232.5 10.5 Q180 31 143 68.5 Q106 106 86.5 158 Q67 210 67 274 Q67 363 99 437 Q131 511 184.5 563.5 Q238 616 306.5 645 Q375 674 449 674 Z " />
<glyph glyph-name="D" unicode="D" horiz-adv-x="660" d="M198 610 L120 53 L269 53 Q340 53 395.5 78.5 Q451 104 489 149 Q527 194 547 255.5 Q567 317 567 389 Q567 436 554 476.5 Q541 517 513.5 546.5 Q486 576 443.5 593 Q401 610 342 610 L198 610 Z M55 0 L148 662 L349 662 Q414 662 465 642.5 Q516 623 551.5 587.5 Q587 552 605.5 501.5 Q624 451 624 390 Q624 303 597.5 231 Q571 159 523 108 Q475 57 409.5 28.5 Q344 0 266 0 L55 0 Z " />
<glyph glyph-name="E" unicode="E" horiz-adv-x="486" d="M425 0 L55 0 L148 662 L494 662 L486 610 L199 610 L166 371 L456 371 L448 319 L158 319 L121 53 L432 53 L425 0 Z " />
<glyph glyph-name="F" unicode="F" horiz-adv-x="479" d="M114 0 L55 0 L148 662 L497 662 L489 610 L199 610 L163 350 L449 350 L441 298 L155 298 L114 0 Z " />
<glyph glyph-name="G" unicode="G" horiz-adv-x="757" d="M358 -10 Q285 -10 231 11.5 Q177 33 141 70.5 Q105 108 87.5 159.5 Q70 211 70 271 Q70 356 101 429.5 Q132 503 184.5 557.5 Q237 612 306.5 643 Q376 674 454 674 Q524 674 587 649 Q650 624 694 565 L647 527 Q626 558 598.5 576 Q571 594 543.5 603.5 Q516 613 491 615.5 Q466 618 451 618 Q391 618 333 595 Q275 572 229.5 528 Q184 484 155.5 420.5 Q127 357 127 275 Q127 169 190.5 107 Q254 45 371 45 Q424 45 472 61 Q520 77 558 108.5 Q596 140 621.5 187.5 Q647 235 656 298 L479 298 L487 350 L721 350 L715 311 Q704 230 670.5 169.5 Q637 109 588.5 69 Q540 29 480.5 9.5 Q421 -10 358 -10 Z " />
<glyph glyph-name="H" unicode="H" horiz-adv-x="637" d="M465 0 L509 319 L157 319 L113 0 L55 0 L148 662 L206 662 L165 371 L517 371 L558 662 L615 662 L522 0 L465 0 Z " />
<glyph glyph-name="I" unicode="I" horiz-adv-x="248" d="M65 0 L158 662 L216 662 L123 0 L65 0 Z " />
<glyph glyph-name="J" unicode="J" horiz-adv-x="512" d="M78 195 Q75 154 83.5 125.5 Q92 97 109 79 Q126 61 149.5 53 Q173 45 200 45 Q242 45 272 58.5 Q302 72 321.5 93 Q341 114 351.5 140 Q362 166 365 192 L431 661 L489 661 L425 201 Q419 162 403 124 Q387 86 358.5 56 Q330 26 288.5 8 Q247 -10 190 -10 Q151 -10 118.5 2 Q86 14 63.5 38 Q41 62 29.5 97.5 Q18 133 20 181 L78 195 Z " />
<glyph glyph-name="K" unicode="K" horiz-adv-x="580" d="M161 348 L530 662 L602 662 L234 344 L540 0 L458 0 L160 339 L113 0 L55 0 L148 662 L206 662 L161 348 Z " />
<glyph glyph-name="L" unicode="L" horiz-adv-x="442" d="M206 662 L120 53 L409 53 L402 0 L55 0 L148 662 L206 662 Z " />
<glyph glyph-name="M" unicode="M" horiz-adv-x="813" d="M734 661 L790 661 L698 0 L643 0 L720 548 L717 549 L408 93 L371 93 L190 551 L187 550 L110 0 L55 0 L147 661 L204 661 L399 162 L734 661 Z " />
<glyph glyph-name="N" unicode="N" horiz-adv-x="721" d="M555 0 L193 568 L190 568 L111 0 L55 0 L148 662 L201 662 L559 98 L563 98 L643 662 L699 662 L606 0 L555 0 Z " />
<glyph glyph-name="O" unicode="O" horiz-adv-x="787" d="M363 -10 Q291 -10 236 12 Q181 34 144 72 Q107 110 88 162.5 Q69 215 69 276 Q69 358 100.5 430.5 Q132 503 185.5 556.5 Q239 610 310 641 Q381 672 459 672 Q525 672 579.5 649.5 Q634 627 672.5 588 Q711 549 732 495.5 Q753 442 753 380 Q753 299 722 227.5 Q691 156 638 103.5 Q585 51 514 20.5 Q443 -10 363 -10 Z M451 619 Q383 619 324 592 Q265 565 221.5 519 Q178 473 153 411.5 Q128 350 128 281 Q128 229 144 185 Q160 141 191 109.5 Q222 78 267 60.5 Q312 43 371 43 Q440 43 499 70.5 Q558 98 601 143.5 Q644 189 668.5 249 Q693 309 693 375 Q693 427 676 471.5 Q659 516 627.5 549 Q596 582 551.5 600.5 Q507 619 451 619 Z " />
<glyph glyph-name="P" unicode="P" horiz-adv-x="563" d="M147 662 L359 662 Q412 662 451 646.5 Q490 631 515.5 605 Q541 579 553.5 544.5 Q566 510 566 473 Q566 411 542 364.5 Q518 318 479.5 286.5 Q441 255 392.5 239.5 Q344 224 294 224 L144 224 L113 0 L54 0 L147 662 Z M198 610 L151 276 L298 276 Q350 276 388.5 293.5 Q427 311 452.5 339 Q478 367 490.5 401.5 Q503 436 503 470 Q503 497 493.5 522.5 Q484 548 464 567.5 Q444 587 412 598.5 Q380 610 334 610 L198 610 Z " />
<glyph glyph-name="Q" unicode="Q" horiz-adv-x="787" d="M363 -10 Q290 -10 234.5 12 Q179 34 141.5 73 Q104 112 85 164.5 Q66 217 66 279 Q66 361 98 433 Q130 505 184.5 558 Q239 611 310 641.5 Q381 672 459 672 Q525 672 579.5 649.5 Q634 627 672.5 587.5 Q711 548 732 494.5 Q753 441 753 379 Q753 289 716.5 216.5 Q680 144 620 90 L679 7 L632 -30 L573 53 Q527 23 474.5 6.5 Q422 -10 363 -10 Z M451 619 Q383 619 324 592 Q265 565 221.5 519 Q178 473 153 411.5 Q128 350 128 281 Q128 229 144 185 Q160 141 191 109.5 Q222 78 267 60.5 Q312 43 371 43 Q420 43 463 56.5 Q506 70 544 95 L477 189 L524 226 L590 132 Q638 178 665.5 241.5 Q693 305 693 375 Q693 427 676 471.5 Q659 516 627.5 549 Q596 582 551.5 600.5 Q507 619 451 619 Z " />
<glyph glyph-name="R" unicode="R" horiz-adv-x="588" d="M500 0 L433 0 L322 245 L147 245 L113 0 L54 0 L146 661 L370 661 Q420 661 457.5 646.5 Q495 632 519.5 607 Q544 582 556 550 Q568 518 568 482 Q568 436 553 398 Q538 360 512.5 331 Q487 302 453.5 282 Q420 262 383 252 L500 0 Z M509 478 Q509 506 499.5 530.5 Q490 555 471 573 Q452 591 422.5 601 Q393 611 353 611 L198 611 L154 295 L311 295 Q360 295 397 310.5 Q434 326 459 351.5 Q484 377 496.5 410 Q509 443 509 478 Z " />
<glyph glyph-name="S" unicode="S" horiz-adv-x="542" d="M328 672 Q353 672 380 668.5 Q407 665 432.5 656.5 Q458 648 481.5 634.5 Q505 621 524 600 L488 559 Q447 592 403 605 Q359 618 321 618 Q284 618 254 606.5 Q224 595 203 576 Q182 557 170.5 532 Q159 507 159 479 Q159 461 166 446 Q173 431 188.5 418.5 Q204 406 229.5 394.5 Q255 383 292 372 Q341 357 380 341.5 Q419 326 445 306.5 Q471 287 485 261.5 Q499 236 499 201 Q499 153 478.5 114 Q458 75 423 47.5 Q388 20 340 5 Q292 -10 238 -10 Q175 -10 115.5 8 Q56 26 14 68 L50 113 Q90 81 138 62.5 Q186 44 239 44 Q286 44 323 55.5 Q360 67 386 87 Q412 107 425.5 134 Q439 161 439 192 Q439 230 414 252.5 Q389 275 351.5 290 Q314 305 270 317 Q226 329 188.5 348 Q151 367 126 396.5 Q101 426 101 475 Q101 517 117.5 552.5 Q134 588 164 614.5 Q194 641 236 656.5 Q278 672 328 672 Z " />
<glyph glyph-name="T" unicode="T" horiz-adv-x="502" d="M335 610 L250 0 L191 0 L276 610 L70 610 L78 662 L550 662 L542 610 L335 610 Z " />
<glyph glyph-name="U" unicode="U" horiz-adv-x="676" d="M597 662 L654 662 L594 240 Q586 186 563 140 Q540 94 503 61 Q466 28 416 9 Q366 -10 306 -10 Q246 -10 201.5 8 Q157 26 129 59 Q101 92 91 138.5 Q81 185 89 242 L148 662 L205 662 L147 250 Q141 208 147 170.5 Q153 133 173 105 Q193 77 228 60.5 Q263 44 314 44 Q365 44 404 59.5 Q443 75 470.5 102 Q498 129 515 166 Q532 203 538 246 L597 662 Z " />
<glyph glyph-name="V" unicode="V" horiz-adv-x="569" d="M229 0 L72 660 L129 660 L264 84 L269 84 L563 660 L621 660 L282 0 L229 0 Z " />
<glyph glyph-name="W" unicode="W" horiz-adv-x="886" d="M241 96 L481 662 L531 662 L611 97 L615 97 L882 662 L939 662 L626 0 L577 0 L493 566 L490 566 L249 0 L200 0 L73 662 L130 662 L237 96 L241 96 Z " />
<glyph glyph-name="X" unicode="X" horiz-adv-x="561" d="M331 343 L510 0 L444 0 L293 294 L59 0 L-9 0 L266 343 L102 662 L166 662 L306 392 L522 662 L586 662 L331 343 Z " />
<glyph glyph-name="Y" unicode="Y" horiz-adv-x="540" d="M297 319 L533 662 L593 662 L316 265 L279 0 L221 0 L258 265 L73 662 L137 662 L293 319 L297 319 Z " />
<glyph glyph-name="Z" unicode="Z" horiz-adv-x="513" d="M11 48 L459 610 L107 610 L115 662 L534 662 L527 614 L82 52 L455 52 L448 0 L5 0 L11 48 Z " />
<glyph glyph-name="bracketleft" unicode="&#x5b;" horiz-adv-x="257" d="M148 733 L300 733 L294 691 L193 691 L85 -78 L186 -78 L180 -120 L28 -120 L148 733 Z " />
<glyph glyph-name="backslash" unicode="&#x5c;" horiz-adv-x="297" d="M250 -88 L34 690 L81 690 Q135 494 189 300.5 Q243 107 296 -88 L250 -88 Z " />
<glyph glyph-name="bracketright" unicode="&#x5d;" horiz-adv-x="257" d="M135 -120 L-17 -120 L-11 -78 L90 -78 L198 691 L97 691 L103 733 L255 733 L135 -120 Z " />
<glyph glyph-name="asciicircum" unicode="&#x5e;" horiz-adv-x="473" d="M324 629 L467 349 L412 349 L289 590 L96 349 L44 349 L267 629 L324 629 Z " />
<glyph glyph-name="underscore" unicode="&#x5f;" horiz-adv-x="510" d="M-36 -83 L463 -83 L458 -120 L-41 -120 L-36 -83 Z " />
<glyph glyph-name="grave" unicode="&#x60;" horiz-adv-x="469" d="M302 627 L357 525 L308 525 L231 627 L302 627 Z " />
<glyph glyph-name="a" unicode="a" horiz-adv-x="579" d="M313 453 Q361 453 404 433 Q447 413 468 376 L470 377 L480 445 L536 445 L474 0 L418 0 L427 70 L425 71 Q390 30 342.5 10 Q295 -10 247 -10 Q199 -10 162 4.5 Q125 19 100 45 Q75 71 62 107 Q49 143 49 185 Q49 242 70 291 Q91 340 127 376 Q163 412 211 432.5 Q259 453 313 453 Z M307 404 Q263 404 226 386.5 Q189 369 162.5 339 Q136 309 121 270 Q106 231 106 188 Q106 155 115.5 127.5 Q125 100 144 80 Q163 60 191 49 Q219 38 256 38 Q299 38 335.5 55.5 Q372 73 398.5 102.5 Q425 132 440 170.5 Q455 209 455 251 Q455 283 445 311 Q435 339 416 359.5 Q397 380 369.5 392 Q342 404 307 404 Z " />
<glyph glyph-name="b" unicode="b" horiz-adv-x="575" d="M100 65 L91 0 L35 0 L128 662 L185 662 L144 375 L149 374 Q185 415 234 435 Q283 455 331 455 Q379 455 415.5 440.5 Q452 426 477 400.5 Q502 375 515 340 Q528 305 528 263 Q528 206 506.5 156.5 Q485 107 449 70 Q413 33 365 11.5 Q317 -10 263 -10 Q214 -10 170.5 10 Q127 30 105 68 L100 65 Z M269 39 Q312 39 348.5 56.5 Q385 74 412 103.5 Q439 133 454.5 172.5 Q470 212 470 256 Q470 289 460.5 316.5 Q451 344 432 364.5 Q413 385 385.5 396.5 Q358 408 321 408 Q277 408 240 390 Q203 372 176.5 342 Q150 312 135 273.5 Q120 235 120 193 Q120 160 130 132 Q140 104 159 83.5 Q178 63 206 51 Q234 39 269 39 Z " />
<glyph glyph-name="c" unicode="c" horiz-adv-x="459" d="M308 455 Q347 455 386 444 Q425 433 454 402 L419 363 Q390 387 359 394.5 Q328 402 303 402 Q271 402 236 389.5 Q201 377 172 350.5 Q143 324 124 283 Q105 242 105 186 Q105 116 146 78.5 Q187 41 255 41 Q297 41 332 54 Q367 67 393 84 L414 45 Q374 14 326 2 Q278 -10 239 -10 Q147 -10 98 41.5 Q49 93 49 177 Q49 240 70.5 291.5 Q92 343 128 379.5 Q164 416 210.5 435.5 Q257 455 308 455 Z " />
<glyph glyph-name="d" unicode="d" horiz-adv-x="572" d="M475 380 L515 662 L570 662 L477 0 L422 0 L431 71 L428 72 Q392 30 343.5 10 Q295 -10 247 -10 Q199 -10 162 4.5 Q125 19 99.5 45.5 Q74 72 61 108 Q48 144 48 187 Q48 244 69 293 Q90 342 126 378 Q162 414 210.5 434.5 Q259 455 313 455 Q362 455 405.5 435 Q449 415 471 378 L475 380 Z M308 407 Q264 407 227 389 Q190 371 163 341 Q136 311 121 271.5 Q106 232 106 189 Q106 156 115.5 128.5 Q125 101 144 81 Q163 61 191 49.5 Q219 38 256 38 Q300 38 337 56 Q374 74 400.5 103.5 Q427 133 441.5 172 Q456 211 456 253 Q456 285 446 313 Q436 341 417 362 Q398 383 370.5 395 Q343 407 308 407 Z " />
<glyph glyph-name="e" unicode="e" horiz-adv-x="519" d="M429 52 Q418 44 401.5 33.5 Q385 23 362.5 13 Q340 3 312 -3.5 Q284 -10 250 -10 Q153 -10 100.5 43.5 Q48 97 48 186 Q48 243 68 292 Q88 341 122 377.5 Q156 414 201.5 434.5 Q247 455 299 455 Q342 455 375 440.5 Q408 426 430 401 Q452 376 463 342 Q474 308 474 269 Q474 255 473 238.5 Q472 222 467 208 L108 208 Q107 201 106.5 195 Q106 189 106 183 Q106 114 148.5 77.5 Q191 41 254 41 Q296 41 332 52 Q368 63 406 91 L429 52 Z M293 405 Q260 405 231 394 Q202 383 179 363.5 Q156 344 139.5 316 Q123 288 115 254 L420 254 L420 265 Q420 329 387.5 367 Q355 405 293 405 Z " />
<glyph glyph-name="f" unicode="f" horiz-adv-x="298" d="M347 616 Q323 619 302 619 Q254 619 232.5 596.5 Q211 574 204 523 L193 445 L323 445 L316 398 L186 398 L101 -215 L45 -215 L130 398 L50 398 L57 445 L137 445 L148 521 Q157 588 194 627 Q231 666 304 666 Q313 666 326 665 Q339 664 354 662 L347 616 Z " />
<glyph glyph-name="g" unicode="g" horiz-adv-x="570" d="M26 -123 Q57 -147 96 -164 Q135 -181 193 -181 Q240 -181 279.5 -166.5 Q319 -152 349.5 -125.5 Q380 -99 399.5 -61 Q419 -23 425 25 L431 71 L427 72 Q391 30 342 10 Q293 -10 245 -10 Q196 -10 158.5 4.5 Q121 19 95.5 45 Q70 71 57 107 Q44 143 44 185 Q44 242 65.5 291.5 Q87 341 123.5 377 Q160 413 208.5 433.5 Q257 454 311 454 Q360 454 403.5 434 Q447 414 469 376 L475 379 L484 445 L537 445 L478 23 Q470 -36 446 -82.5 Q422 -129 384.5 -161.5 Q347 -194 296 -211.5 Q245 -229 183 -229 Q151 -229 121.5 -222.5 Q92 -216 67 -206.5 Q42 -197 23.5 -185 Q5 -173 -6 -161 L26 -123 Z M306 407 Q263 407 225.5 389 Q188 371 160.5 340.5 Q133 310 117.5 270 Q102 230 102 187 Q102 121 140.5 79.5 Q179 38 254 38 Q299 38 336 56.5 Q373 75 398.5 105 Q424 135 438 173.5 Q452 212 452 252 Q452 285 442.5 313 Q433 341 414 362 Q395 383 368 395 Q341 407 306 407 Z " />
<glyph glyph-name="h" unicode="h" horiz-adv-x="525" d="M363 0 L398 255 Q408 325 384 365 Q360 405 303 405 Q272 405 243 394.5 Q214 384 190 362.5 Q166 341 149 308 Q132 275 126 230 L94 0 L35 0 L128 662 L184 662 L144 378 L147 378 Q189 423 230 439 Q271 455 313 455 Q397 455 433 405 Q469 355 457 266 L420 0 L363 0 Z " />
<glyph glyph-name="i" unicode="i" horiz-adv-x="227" d="M203 577 Q201 560 188.5 549.5 Q176 539 159 539 Q142 539 133 549.5 Q124 560 126 577 Q128 592 141 604 Q154 616 170 616 Q187 616 196 605 Q205 594 203 577 Z M54 0 L116 445 L173 445 L111 0 L54 0 Z " />
<glyph glyph-name="j" unicode="j" horiz-adv-x="210" d="M196 577 Q194 560 181.5 549.5 Q169 539 152 539 Q135 539 126 549.5 Q117 560 119 577 Q121 592 133.5 604 Q146 616 163 616 Q180 616 189 605 Q198 594 196 577 Z M-85 -174 Q-23 -168 5 -131.5 Q33 -95 42 -30 L109 445 L166 445 L99 -31 Q92 -82 75.5 -118.5 Q59 -155 35.5 -178.5 Q12 -202 -17.5 -213.5 Q-47 -225 -81 -227 L-85 -174 Z " />
<glyph glyph-name="k" unicode="k" horiz-adv-x="467" d="M193 236 L432 0 L348 0 L121 227 L90 0 L35 0 L128 662 L183 662 L123 240 L395 444 L470 444 L193 236 Z " />
<glyph glyph-name="l" unicode="l" horiz-adv-x="203" d="M45 0 L138 662 L195 662 L102 0 L45 0 Z " />
<glyph glyph-name="m" unicode="m" horiz-adv-x="816" d="M655 0 L693 272 Q702 338 679 372 Q656 406 598 406 Q573 406 547.5 396.5 Q522 387 500 366 Q478 345 462 311 Q446 277 439 229 L407 0 L350 0 L388 272 Q397 338 373.5 372 Q350 406 299 406 Q270 406 243.5 395 Q217 384 194.5 362.5 Q172 341 156 307.5 Q140 274 134 229 L102 0 L45 0 L107 444 L161 444 L152 383 Q153 382 155 382 Q194 427 235 441 Q276 455 309 455 Q362 455 396 431.5 Q430 408 441 366 Q459 390 479.5 406.5 Q500 423 521.5 434 Q543 445 564 450 Q585 455 604 455 Q692 455 726.5 406.5 Q761 358 749 276 L711 0 L655 0 Z " />
<glyph glyph-name="n" unicode="n" horiz-adv-x="535" d="M373 0 L408 255 Q418 325 394 365 Q370 405 313 405 Q282 405 252.5 394.5 Q223 384 199 362.5 Q175 341 157.5 308 Q140 275 134 230 L102 0 L45 0 L107 445 L160 445 L151 378 L155 378 Q197 423 239 439 Q281 455 323 455 Q407 455 443 405 Q479 355 467 266 L430 0 L373 0 Z " />
<glyph glyph-name="o" unicode="o" horiz-adv-x="560" d="M249 -10 Q200 -10 163 5 Q126 20 100.5 46 Q75 72 62 108 Q49 144 49 186 Q49 242 70.5 291 Q92 340 128 376.5 Q164 413 212 434 Q260 455 314 455 Q359 455 396 440 Q433 425 459 399 Q485 373 499 336.5 Q513 300 513 258 Q513 203 491.5 154 Q470 105 434 68.5 Q398 32 350 11 Q302 -10 249 -10 Z M308 407 Q264 407 227 389 Q190 371 163 341 Q136 311 121 271.5 Q106 232 106 189 Q106 156 115.5 128.5 Q125 101 144 81 Q163 61 191 49.5 Q219 38 256 38 Q300 38 337 56 Q374 74 400.5 103.5 Q427 133 441.5 172 Q456 211 456 253 Q456 285 446 313 Q436 341 417 362 Q398 383 370.5 395 Q343 407 308 407 Z " />
<glyph glyph-name="p" unicode="p" horiz-adv-x="573" d="M99 65 L59 -215 L4 -215 L97 445 L152 445 L142 375 L147 374 Q183 415 232 435 Q281 455 329 455 Q377 455 413.5 440.5 Q450 426 475 400 Q500 374 513 338 Q526 302 526 260 Q526 203 504.5 153.5 Q483 104 447 68 Q411 32 363 11 Q315 -10 261 -10 Q212 -10 169 10 Q126 30 104 68 L99 65 Z M267 39 Q310 39 346.5 56.5 Q383 74 410 103.5 Q437 133 452.5 172.5 Q468 212 468 256 Q468 289 458.5 316.5 Q449 344 430 364.5 Q411 385 383.5 396.5 Q356 408 319 408 Q275 408 238 390 Q201 372 174.5 342 Q148 312 133 273.5 Q118 235 118 193 Q118 160 128 132 Q138 104 157 83.5 Q176 63 204 51 Q232 39 267 39 Z " />
<glyph glyph-name="q" unicode="q" horiz-adv-x="575" d="M476 380 L485 445 L542 445 L449 -215 L394 -215 L435 72 L431 73 Q395 31 345 10.5 Q295 -10 247 -10 Q199 -10 162 4.5 Q125 19 100 45.5 Q75 72 62 108 Q49 144 49 187 Q49 244 70 293 Q91 342 127 378 Q163 414 211 434.5 Q259 455 313 455 Q362 455 406 435 Q450 415 472 378 L476 380 Z M308 407 Q264 407 227 389 Q190 371 163 341 Q136 311 121 271.5 Q106 232 106 189 Q106 156 115.5 128.5 Q125 101 144 81 Q163 61 191 49.5 Q219 38 256 38 Q300 38 337 56 Q374 74 400.5 103.5 Q427 133 441.5 172 Q456 211 456 253 Q456 285 446 313 Q436 341 417 362 Q398 383 370.5 395 Q343 407 308 407 Z " />
<glyph glyph-name="r" unicode="r" horiz-adv-x="310" d="M290 402 Q259 402 232.5 388 Q206 374 185.5 349 Q165 324 151.5 291 Q138 258 132 219 L102 0 L45 0 L107 444 L156 444 L145 365 Q146 364 148 364 Q177 407 217.5 431 Q258 455 308 455 Q314 455 323 454.5 Q332 454 338 452 L330 397 Q320 400 309 401 Q298 402 290 402 Z " />
<glyph glyph-name="s" unicode="s" horiz-adv-x="399" d="M227 455 Q264 455 303 443.5 Q342 432 371 402 L335 365 Q305 390 276.5 397.5 Q248 405 219 405 Q171 405 143.5 381 Q116 357 116 322 Q116 297 134.5 283 Q153 269 200 256 Q273 235 313 208.5 Q353 182 353 133 Q353 70 302 30 Q251 -10 163 -10 Q123 -10 77.5 2 Q32 14 1 46 L35 85 Q56 68 87 53.5 Q118 39 163 39 Q226 39 261.5 63.5 Q297 88 297 128 Q297 153 279.5 167.5 Q262 182 235.5 191.5 Q209 201 178 209 Q147 217 120.5 230 Q94 243 76.5 263.5 Q59 284 59 318 Q59 347 71.5 372 Q84 397 106 415.5 Q128 434 159 444.5 Q190 455 227 455 Z " />
<glyph glyph-name="t" unicode="t" horiz-adv-x="320" d="M213 612 L189 445 L316 445 L309 398 L182 398 L144 127 Q139 89 149 66.5 Q159 44 199 44 Q219 44 238 49.5 Q257 55 272 62 L285 18 Q271 10 242.5 0.5 Q214 -9 182 -9 Q147 -9 126.5 1.5 Q106 12 95.5 30 Q85 48 84 73 Q83 98 87 127 L125 398 L50 398 L55 433 Q88 440 108.5 456 Q129 472 141.5 495.5 Q154 519 161 549 Q168 579 175 612 L213 612 Z " />
<glyph glyph-name="u" unicode="u" horiz-adv-x="521" d="M163 445 L126 184 Q106 41 216 41 Q247 41 275.5 51.5 Q304 62 327 83 Q350 104 366.5 137 Q383 170 389 215 L421 445 L478 445 L416 0 L362 0 L370 64 Q370 65 368 65 Q329 25 290.5 7.5 Q252 -10 209 -10 Q124 -10 90 36.5 Q56 83 69 172 L107 445 L163 445 Z " />
<glyph glyph-name="v" unicode="v" horiz-adv-x="459" d="M174 0 L47 445 L106 445 L206 72 L211 72 L415 445 L476 445 L227 0 L174 0 Z " />
<glyph glyph-name="w" unicode="w" horiz-adv-x="706" d="M182 81 L362 445 L413 445 L491 81 L494 81 L673 445 L728 445 L507 0 L457 0 L379 370 L376 370 L194 0 L144 0 L47 445 L104 445 L179 81 L182 81 Z " />
<glyph glyph-name="x" unicode="x" horiz-adv-x="432" d="M185 229 L52 445 L117 445 L222 267 L379 445 L444 445 L250 229 L392 0 L327 0 L211 190 L45 0 L-20 0 L185 229 Z " />
<glyph glyph-name="y" unicode="y" horiz-adv-x="452" d="M56 -215 L177 0 L153 0 Q127 114 100 223 Q73 332 47 445 L107 445 L198 43 L201 43 L412 445 L469 445 L115 -215 L56 -215 Z " />
<glyph glyph-name="z" unicode="z" horiz-adv-x="406" d="M6 44 L337 399 L72 399 L78 445 L408 445 L402 402 L72 46 L348 46 L342 0 L0 0 L6 44 Z " />
<glyph glyph-name="braceleft" unicode="&#x7b;" horiz-adv-x="288" d="M133 332 Q150 321 158.5 305 Q167 289 169 268.5 Q171 248 169 224 Q167 200 163 173 L138 -5 Q133 -34 139 -56.5 Q145 -79 172 -79 L211 -79 L205 -123 L157 -123 Q127 -123 111.5 -112.5 Q96 -102 89.5 -85.5 Q83 -69 83.5 -48 Q84 -27 87 -7 L116 204 Q118 220 119 238 Q120 256 116 272.5 Q112 289 101 301 Q90 313 69 318 L74 349 Q111 357 129 390.5 Q147 424 152 462 L173 605 Q176 625 180.5 648 Q185 671 195.5 690.5 Q206 710 224.5 723 Q243 736 273 736 L326 736 L320 693 L283 693 Q251 693 240.5 671.5 Q230 650 226 620 L203 457 Q198 419 183 385 Q168 351 134 337 L133 332 Z " />
<glyph glyph-name="bar" unicode="&#x7c;" horiz-adv-x="253" d="M122 759 L172 759 L172 -138 L122 -138 L122 759 Z " />
<glyph glyph-name="braceright" unicode="&#x7d;" horiz-adv-x="288" d="M188 337 Q173 344 164.5 356.5 Q156 369 152.5 385 Q149 401 149.5 419.5 Q150 438 153 457 L176 620 Q180 650 175 671.5 Q170 693 139 693 L102 693 L108 736 L161 736 Q191 736 205.5 723 Q220 710 225.5 690.5 Q231 671 229.5 648 Q228 625 225 605 L204 462 Q201 443 201.5 424.5 Q202 406 207.5 390.5 Q213 375 223.5 364 Q234 353 252 349 L247 318 Q225 313 211 301 Q197 289 188 272.5 Q179 256 174.5 238 Q170 220 168 204 L139 -7 Q136 -27 130.5 -48 Q125 -69 113.5 -85.5 Q102 -102 83.5 -112.5 Q65 -123 35 -123 L-13 -123 L-7 -79 L32 -79 Q59 -79 71 -56.5 Q83 -34 88 -5 L113 173 Q117 200 121.5 224 Q126 248 133.5 268.5 Q141 289 154 305 Q167 321 187 332 L188 337 Z " />
<glyph glyph-name="asciitilde" unicode="&#x7e;" horiz-adv-x="490" d="M487 343 Q466 310 434 284 Q402 258 353 258 Q327 258 300 268 Q273 278 247 290 Q221 302 197.5 312 Q174 322 155 322 Q125 322 102.5 302.5 Q80 283 60 258 L31 288 Q41 303 54.5 318.5 Q68 334 84.5 346 Q101 358 121 366 Q141 374 165 374 Q191 374 218 364 Q245 354 271 341.5 Q297 329 320.5 319 Q344 309 363 309 Q393 309 415 328.5 Q437 348 458 373 L487 343 Z " />
<glyph glyph-name="dieresis" unicode="&#xa8;" horiz-adv-x="469" d="M235 586 Q233 569 221.5 559 Q210 549 194 549 Q177 549 168 559 Q159 569 161 586 Q163 600 176 611.5 Q189 623 204 623 Q220 623 228.5 612.5 Q237 602 235 586 Z M395 586 Q393 569 381.5 559 Q370 549 353 549 Q336 549 327.5 559 Q319 569 321 586 Q323 600 335.5 611.5 Q348 623 363 623 Q380 623 388.5 612.5 Q397 602 395 586 Z " />
<glyph glyph-name="sterling" unicode="&#xa3;" horiz-adv-x="540" d="M114 356 L196 356 L211 457 Q221 523 246.5 564.5 Q272 606 303.5 628.5 Q335 651 369 659 Q403 667 429 667 Q506 667 565 617 L530 573 Q504 594 476 605 Q448 616 423 616 Q394 616 368.5 608 Q343 600 322 581 Q301 562 286.5 531 Q272 500 266 455 L253 356 L435 356 L429 315 L246 315 Q241 283 233 248 Q225 213 212 177.5 Q199 142 180 108.5 Q161 75 134 47 L472 47 L466 0 L65 0 L71 44 Q101 75 122 111 Q143 147 156.5 183 Q170 219 177.5 253 Q185 287 190 315 L108 315 L114 356 Z " />
<glyph glyph-name="trademark" unicode="&#x2122;" horiz-adv-x="749" d="M671 668 L714 668 L714 310 L668 310 L668 575 L666 576 L548 348 L517 348 L402 566 L400 565 L400 310 L352 310 L352 668 L398 668 L533 404 L671 668 Z M218 310 L171 310 L171 630 L62 630 L62 668 L323 668 L323 630 L218 630 L218 310 Z " />
<glyph glyph-name="perthousand" unicode="&#x2030;" horiz-adv-x="1068" d="M854 -6 Q788 -6 753.5 29.5 Q719 65 719 121 Q719 158 733.5 191.5 Q748 225 772.5 250 Q797 275 829 289.5 Q861 304 897 304 Q927 304 951.5 294 Q976 284 993.5 267 Q1011 250 1020.5 226 Q1030 202 1030 174 Q1030 137 1016 104 Q1002 71 978 46.5 Q954 22 922 8 Q890 -6 854 -6 Z M891 260 Q866 260 844 249 Q822 238 805.5 220 Q789 202 779.5 178.5 Q770 155 770 130 Q770 90 792.5 63.5 Q815 37 860 37 Q886 37 908 48 Q930 59 945.5 77.5 Q961 96 970 119.5 Q979 143 979 167 Q979 205 956 232.5 Q933 260 891 260 Z M210 359 Q144 359 109.5 395.5 Q75 432 75 488 Q75 525 89.5 558 Q104 591 128.5 615.5 Q153 640 185.5 654.5 Q218 669 254 669 Q284 669 308.5 659 Q333 649 350 631.5 Q367 614 376.5 590 Q386 566 386 538 Q386 501 372 468.5 Q358 436 334 411.5 Q310 387 278 373 Q246 359 210 359 Z M247 625 Q221 625 198.5 614 Q176 603 159.5 585 Q143 567 134 543 Q125 519 125 493 Q125 454 148 428 Q171 402 216 402 Q241 402 263 413 Q285 424 301 442 Q317 460 326 483.5 Q335 507 335 531 Q335 570 312 597.5 Q289 625 247 625 Z M499 -6 Q433 -6 398.5 29.5 Q364 65 364 121 Q364 158 378.5 191.5 Q393 225 417.5 250 Q442 275 474 289.5 Q506 304 542 304 Q572 304 596.5 294 Q621 284 638.5 267 Q656 250 665.5 226 Q675 202 675 174 Q675 137 661 104 Q647 71 623 46.5 Q599 22 567 8 Q535 -6 499 -6 Z M536 260 Q511 260 489 249 Q467 238 450.5 220 Q434 202 424.5 178.5 Q415 155 415 130 Q415 90 437.5 63.5 Q460 37 505 37 Q531 37 553 48 Q575 59 590.5 77.5 Q606 96 615 119.5 Q624 143 624 167 Q624 205 601 232.5 Q578 260 536 260 Z M92 -19 L45 -19 L649 681 L696 681 L92 -19 Z " />
<glyph glyph-name="germandbls" unicode="&#xdf;" horiz-adv-x="556" d="M91 0 L35 0 L97 445 Q103 490 122.5 530 Q142 570 172.5 600 Q203 630 243.5 648 Q284 666 332 666 Q367 666 397 657 Q427 648 449 630.5 Q471 613 483.5 588.5 Q496 564 496 534 Q496 514 489.5 492 Q483 470 470.5 449.5 Q458 429 438.5 412.5 Q419 396 392 387 L391 384 Q410 379 431.5 367.5 Q453 356 471 337 Q489 318 501 290 Q513 262 513 224 Q513 179 496 136.5 Q479 94 448 61.5 Q417 29 373 9.5 Q329 -10 275 -10 Q233 -10 203.5 0.5 Q174 11 157 25 L188 66 Q211 50 234 43.5 Q257 37 285 37 Q322 37 353.5 51.5 Q385 66 408 91.5 Q431 117 443.5 151 Q456 185 456 224 Q456 264 440.5 289.5 Q425 315 401.5 329 Q378 343 349.5 348 Q321 353 296 354 L303 401 Q339 402 364.5 413.5 Q390 425 407 442.5 Q424 460 432 482 Q440 504 440 527 Q440 551 430.5 568.5 Q421 586 405.5 597.5 Q390 609 369 614 Q348 619 326 619 Q287 619 257 604 Q227 589 205.5 565 Q184 541 171 510.5 Q158 480 154 449 L91 0 Z " />
<glyph glyph-name="copyright" unicode="&#xa9;" horiz-adv-x="838" d="M797 351 Q797 276 768.5 210.5 Q740 145 691 96 Q642 47 576.5 18.5 Q511 -10 436 -10 Q361 -10 295.5 18.5 Q230 47 181 96 Q132 145 103.5 210.5 Q75 276 75 351 Q75 427 103.5 493 Q132 559 181.5 607.5 Q231 656 297.5 684 Q364 712 441 712 Q514 712 579 683.5 Q644 655 692.5 605.5 Q741 556 769 490.5 Q797 425 797 351 Z M755 351 Q755 417 730 475 Q705 533 662 577 Q619 621 561.5 646.5 Q504 672 440 672 Q372 672 313 647 Q254 622 210.5 578.5 Q167 535 142 476.5 Q117 418 117 351 Q117 285 142 226.5 Q167 168 210.5 124.5 Q254 81 312 55.5 Q370 30 436 30 Q502 30 560 55.5 Q618 81 661.5 124.5 Q705 168 730 226.5 Q755 285 755 351 Z M618 159 Q581 127 532.5 114.5 Q484 102 443 102 Q392 102 349.5 118.5 Q307 135 277 165 Q247 195 230.5 238 Q214 281 214 334 Q214 390 232.5 436.5 Q251 483 282.5 516 Q314 549 357 567 Q400 585 448 585 Q489 585 530.5 573.5 Q572 562 607 530 L582 498 Q548 524 513 532.5 Q478 541 451 541 Q418 541 384.5 529 Q351 517 324.5 491.5 Q298 466 281.5 427 Q265 388 265 333 Q265 244 317 195.5 Q369 147 454 147 Q495 147 532.5 159.5 Q570 172 596 193 L618 159 Z " />
<glyph glyph-name="section" unicode="&#xa7;" horiz-adv-x="553" d="M352 634 Q320 634 298 627 Q276 620 262.5 609 Q249 598 243 585.5 Q237 573 237 563 Q237 542 254.5 526.5 Q272 511 298 497 Q324 483 354.5 469.5 Q385 456 411 438 Q437 420 454.5 396.5 Q472 373 472 340 Q472 311 461.5 289 Q451 267 436.5 250.5 Q422 234 406 223.5 Q390 213 380 208 Q395 197 412 174 Q429 151 429 114 Q429 81 413.5 54 Q398 27 370.5 7.5 Q343 -12 306 -23 Q269 -34 227 -34 Q188 -34 145.5 -24 Q103 -14 62 19 Q73 32 79.5 41.5 Q86 51 96 62 Q124 42 157.5 30.5 Q191 19 230 19 Q253 19 277.5 23 Q302 27 322 37 Q342 47 355 63.5 Q368 80 368 104 Q368 130 350 149.5 Q332 169 304.5 184.5 Q277 200 245.5 215 Q214 230 186.5 248.5 Q159 267 141 291.5 Q123 316 123 350 Q123 388 144.5 420.5 Q166 453 218 479 Q179 510 179 550 Q179 579 192 604 Q205 629 228 647.5 Q251 666 282.5 676.5 Q314 687 352 687 Q388 687 425 677.5 Q462 668 494 643 L458 600 Q435 618 408.5 626 Q382 634 352 634 Z M414 320 Q414 348 397 368 Q380 388 355.5 403.5 Q331 419 304 431.5 Q277 444 257 456 Q227 441 204 418.5 Q181 396 181 364 Q181 340 198 321 Q215 302 239.5 286.5 Q264 271 291 258.5 Q318 246 338 236 Q370 255 391 277.5 Q412 300 414 320 Z " />
<glyph glyph-name="degree" unicode="&#xb0;" horiz-adv-x="417" d="M237 413 Q186 413 160 441 Q134 469 134 512 Q134 540 145.5 565.5 Q157 591 176 610 Q195 629 219.5 640.5 Q244 652 270 652 Q319 652 348 623 Q377 594 377 550 Q377 522 366 497 Q355 472 336.5 453.5 Q318 435 292.5 424 Q267 413 237 413 Z M265 612 Q247 612 231 604 Q215 596 203 583 Q191 570 184 553 Q177 536 177 519 Q177 492 194 471.5 Q211 451 242 451 Q263 451 280.5 459 Q298 467 310 480 Q322 493 329 509.5 Q336 526 336 543 Q336 571 317.5 591.5 Q299 612 265 612 Z " />
<glyph glyph-name="plusminus" unicode="&#xb1;" horiz-adv-x="540" d="M435 46 L429 0 L50 0 L56 46 L435 46 Z M277 103 L231 103 L254 264 L87 264 L93 309 L260 309 L282 468 L328 468 L306 309 L472 309 L466 264 L300 264 L277 103 Z " />
<glyph glyph-name="yen" unicode="&#xa5;" horiz-adv-x="540" d="M252 228 L260 285 L77 285 L82 327 L244 327 L106 662 L171 662 L295 335 L298 335 L520 662 L579 662 L343 327 L512 327 L507 285 L318 285 L310 228 L499 228 L493 186 L304 186 L278 0 L220 0 L246 186 L63 186 L69 228 L252 228 Z " />
<glyph glyph-name="guillemotleft" unicode="&#xab;" horiz-adv-x="411" d="M214 16 L151 16 L42 194 L43 203 L205 381 L265 381 L103 201 L214 16 Z M347 16 L284 16 L175 194 L176 203 L338 381 L398 381 L236 201 L347 16 Z " />
<glyph glyph-name="guillemotright" unicode="&#xbb;" horiz-adv-x="411" d="M313 201 L201 381 L261 381 L373 203 L372 194 L213 16 L150 16 L313 201 Z M180 201 L68 381 L128 381 L240 203 L239 194 L80 16 L17 16 L180 201 Z " />
<glyph glyph-name="oe" unicode="&#x153;" horiz-adv-x="913" d="M828 52 Q817 44 800.5 33.5 Q784 23 761.5 13 Q739 3 711 -3.5 Q683 -10 649 -10 Q575 -10 527 20.5 Q479 51 459 105 Q424 53 367 21.5 Q310 -10 244 -10 Q195 -10 158 5 Q121 20 95.5 46 Q70 72 57 108 Q44 144 44 186 Q44 242 65.5 291 Q87 340 123 376.5 Q159 413 207 434 Q255 455 309 455 Q376 455 424 423 Q472 391 493 339 Q528 392 581.5 423.5 Q635 455 698 455 Q741 455 774 440.5 Q807 426 829 401 Q851 376 862 342 Q873 308 873 269 Q873 255 872 238.5 Q871 222 866 208 L507 208 Q506 201 505.5 195 Q505 189 505 183 Q505 114 547.5 77.5 Q590 41 653 41 Q695 41 731 52 Q767 63 805 91 L828 52 Z M303 407 Q259 407 222 389 Q185 371 158 341 Q131 311 116 271.5 Q101 232 101 189 Q101 156 110.5 128.5 Q120 101 139 81 Q158 61 186 49.5 Q214 38 251 38 Q295 38 332 56 Q369 74 395.5 103.5 Q422 133 436.5 172 Q451 211 451 253 Q451 285 441 313 Q431 341 412 362 Q393 383 365.5 395 Q338 407 303 407 Z M692 405 Q659 405 630 394 Q601 383 578 363.5 Q555 344 538.5 316 Q522 288 514 254 L819 254 L819 265 Q819 329 786.5 367 Q754 405 692 405 Z " />
<glyph glyph-name="endash" unicode="&#x2013;" horiz-adv-x="549" d="M38 263 L522 263 L516 215 L32 215 L38 263 Z " />
<glyph glyph-name="quotedblleft" unicode="&#x201c;" horiz-adv-x="304" d="M211 655 Q182 641 161.5 613.5 Q141 586 136 561 Q141 563 145 563 Q149 563 151 563 Q168 563 178.5 553 Q189 543 186 522 Q184 505 170 491.5 Q156 478 136 478 Q111 478 103 496.5 Q95 515 99 541 Q101 557 108.5 576.5 Q116 596 129 615 Q142 634 159.5 650.5 Q177 667 200 677 L211 655 Z M318 655 Q289 641 268.5 613.5 Q248 586 243 561 Q248 563 252 563 Q256 563 258 563 Q275 563 285.5 553 Q296 543 293 522 Q291 505 277 491.5 Q263 478 243 478 Q218 478 210 496.5 Q202 515 206 541 Q208 557 215.5 576.5 Q223 596 236 615 Q249 634 266.5 650.5 Q284 667 307 677 L318 655 Z " />
<glyph glyph-name="quotedblright" unicode="&#x201d;" horiz-adv-x="304" d="M92 507 Q120 521 140.5 548.5 Q161 576 166 601 Q162 599 158 599 Q154 599 152 599 Q135 599 124.5 609 Q114 619 116 640 Q119 657 133 670.5 Q147 684 167 684 Q192 684 200 665.5 Q208 647 204 621 Q202 605 194 585.5 Q186 566 173.5 547 Q161 528 143 511.5 Q125 495 103 485 L92 507 Z M199 507 Q227 521 247.5 548.5 Q268 576 273 601 Q269 599 265 599 Q261 599 259 599 Q242 599 231.5 609 Q221 619 223 640 Q226 657 240 670.5 Q254 684 274 684 Q299 684 307 665.5 Q315 647 311 621 Q309 605 301 585.5 Q293 566 280.5 547 Q268 528 250 511.5 Q232 495 210 485 L199 507 Z " />
<glyph glyph-name="quoteleft" unicode="&#x2018;" horiz-adv-x="192" d="M209 655 Q180 641 159.5 613.5 Q139 586 134 561 Q139 563 143 563 Q147 563 149 563 Q166 563 176.5 553 Q187 543 184 522 Q182 505 168 491.5 Q154 478 134 478 Q109 478 101 496.5 Q93 515 97 541 Q99 557 106.5 576.5 Q114 596 127 615 Q140 634 157.5 650.5 Q175 667 198 677 L209 655 Z " />
<glyph glyph-name="quoteright" unicode="&#x2019;" horiz-adv-x="192" d="M93 507 Q121 521 141.5 548.5 Q162 576 167 601 Q163 599 159 599 Q155 599 153 599 Q136 599 125.5 609 Q115 619 117 640 Q120 657 134 670.5 Q148 684 168 684 Q193 684 201 665.5 Q209 647 205 621 Q203 605 195 585.5 Q187 566 174.5 547 Q162 528 144 511.5 Q126 495 104 485 L93 507 Z " />
<glyph glyph-name="&amp;#xb5;" unicode="&#xb5;" horiz-adv-x="516" d="M158 445 L119 159 Q111 101 135.5 71 Q160 41 211 41 Q242 41 270.5 51.5 Q299 62 322 83 Q345 104 361.5 137 Q378 170 384 215 L416 445 L473 445 L411 0 L357 0 L365 64 Q365 65 363 65 Q324 25 285.5 7.5 Q247 -10 204 -10 Q169 -10 142.5 -1.5 Q116 7 100 27 L66 -215 L10 -215 Q23 -123 32 -57.5 Q41 8 48 57.5 Q55 107 60.5 147.5 Q66 188 72 230.5 Q78 273 85 323.5 Q92 374 102 445 L158 445 Z " />
<glyph glyph-name="&amp;#x3bc;" unicode="&#x3bc;" horiz-adv-x="516" d="M158 445 L119 159 Q111 101 135.5 71 Q160 41 211 41 Q242 41 270.5 51.5 Q299 62 322 83 Q345 104 361.5 137 Q378 170 384 215 L416 445 L473 445 L411 0 L357 0 L365 64 Q365 65 363 65 Q324 25 285.5 7.5 Q247 -10 204 -10 Q169 -10 142.5 -1.5 Q116 7 100 27 L66 -215 L10 -215 Q23 -123 32 -57.5 Q41 8 48 57.5 Q55 107 60.5 147.5 Q66 188 72 230.5 Q78 273 85 323.5 Q92 374 102 445 L158 445 Z " />
<glyph glyph-name="pi" unicode="&#x3c0;" horiz-adv-x="536" d="M373 0 L428 393 L157 393 L102 0 L45 0 L107 445 L493 445 L431 0 L373 0 Z " />
<glyph glyph-name="emdash" unicode="&#x2014;" horiz-adv-x="819" d="M41 263 L791 263 L785 215 L35 215 L41 263 Z " />
<glyph glyph-name="exclam" unicode="&#x21;" horiz-adv-x="274" d="M109 152 L173 690 L235 690 L151 152 L109 152 Z M158 36 Q155 17 139.5 4 Q124 -9 106 -9 Q87 -9 76 4 Q65 17 68 36 Q70 55 85 68 Q100 81 119 81 Q138 81 149 68 Q160 55 158 36 Z " />
<glyph glyph-name="dieresistonos" unicode="&#x385;" horiz-adv-x="469" d="M156 586 Q158 603 171 613.5 Q184 624 199 624 Q215 624 224.5 613 Q234 602 232 586 Q230 571 218 559.5 Q206 548 189 548 Q174 548 164 559 Q154 570 156 586 Z M371 586 Q373 603 385.5 613.5 Q398 624 413 624 Q430 624 439.5 613 Q449 602 447 586 Q445 571 432.5 559.5 Q420 548 403 548 Q388 548 378.5 559 Q369 570 371 586 Z M383 640 L269 530 L220 530 L311 640 L383 640 Z " />
<glyph glyph-name="tonos" unicode="&#x384;" horiz-adv-x="469" d="M395 635 L280 525 L231 525 L323 635 L395 635 Z " />
<glyph glyph-name="Theta" unicode="&#x398;" horiz-adv-x="787" d="M364 -11 Q292 -11 236.5 10.5 Q181 32 143.5 70 Q106 108 86.5 160 Q67 212 67 274 Q67 356 99 429 Q131 502 185 556.5 Q239 611 310.5 642.5 Q382 674 460 674 Q527 674 581 652 Q635 630 673.5 591 Q712 552 733 499 Q754 446 754 384 Q754 303 723 231 Q692 159 639 105 Q586 51 515 20 Q444 -11 364 -11 Z M453 621 Q384 621 324.5 593.5 Q265 566 221 519.5 Q177 473 152 411.5 Q127 350 127 281 Q127 229 143 185 Q159 141 190 109 Q221 77 266.5 59 Q312 41 371 41 Q441 41 500 68.5 Q559 96 602.5 142.5 Q646 189 670.5 250 Q695 311 695 378 Q695 429 678.5 473.5 Q662 518 630.5 551 Q599 584 554 602.5 Q509 621 453 621 Z M233 374 L602 374 L595 322 L226 322 L233 374 Z " />
<glyph glyph-name="Lambda" unicode="&#x39b;" horiz-adv-x="612" d="M397 662 L567 0 L509 0 L361 584 L357 584 L46 0 L-15 0 L343 662 L397 662 Z " />
<glyph glyph-name="Xi" unicode="&#x39e;" horiz-adv-x="576" d="M122 610 L130 662 L571 662 L563 610 L122 610 Z M498 53 L491 0 L25 0 L32 53 L498 53 Z M520 354 L513 302 L87 302 L94 354 L520 354 Z " />
<glyph glyph-name="Pi" unicode="&#x3a0;" horiz-adv-x="674" d="M501 0 L586 610 L198 610 L113 0 L55 0 L148 662 L652 662 L559 0 L501 0 Z " />
<glyph glyph-name="Sigma" unicode="&#x3a3;" horiz-adv-x="520" d="M6 49 L249 355 Q211 418 170 484.5 Q129 551 91 615 L98 662 L547 662 L540 612 L161 612 L316 359 L72 52 L487 52 L480 0 L0 0 L6 49 Z " />
<glyph glyph-name="Phi" unicode="&#x3a6;" horiz-adv-x="818" d="M70 306 Q70 373 100.5 429.5 Q131 486 182 526.5 Q233 567 299 591 Q365 615 436 618 L443 662 L501 662 L494 618 Q556 616 609 598 Q662 580 700.5 548.5 Q739 517 761 473 Q783 429 783 377 Q783 311 755 256.5 Q727 202 678 162 Q629 122 562 97.5 Q495 73 417 68 L408 0 L350 0 L359 68 Q296 70 243 88 Q190 106 151.5 137 Q113 168 91.5 211 Q70 254 70 306 Z M425 121 Q492 123 548 142.5 Q604 162 643.5 195.5 Q683 229 705 274 Q727 319 727 373 Q727 415 709.5 449.5 Q692 484 660.5 509 Q629 534 584.5 549 Q540 564 487 567 L425 121 Z M429 566 Q366 562 311.5 542 Q257 522 217 489 Q177 456 154 411 Q131 366 131 311 Q131 228 193 178.5 Q255 129 367 121 L429 566 Z " />
<glyph glyph-name="Psi" unicode="&#x3a8;" horiz-adv-x="711" d="M295 0 L322 194 Q263 196 219 216 Q175 236 148 270.5 Q121 305 111 352.5 Q101 400 109 456 L138 662 L195 662 L167 465 Q161 424 167 386 Q173 348 192.5 318.5 Q212 289 246 270.5 Q280 252 329 249 L388 662 L446 662 L387 249 Q438 252 477.5 269 Q517 286 545 314.5 Q573 343 589.5 380.5 Q606 418 612 462 L641 662 L699 662 L669 454 Q661 400 638 353.5 Q615 307 578.5 272.5 Q542 238 491.5 217.5 Q441 197 380 194 L353 0 L295 0 Z " />
<glyph glyph-name="Omega" unicode="&#x3a9;" horiz-adv-x="779" d="M450 621 Q381 621 321 594 Q261 567 216.5 521 Q172 475 147 414 Q122 353 122 285 Q122 248 131 212.5 Q140 177 159.5 145.5 Q179 114 209.5 88.5 Q240 63 284 46 L278 0 L20 0 L27 53 L168 53 L169 57 Q117 92 90 151 Q63 210 63 280 Q63 363 96 435 Q129 507 184 560 Q239 613 310 643 Q381 673 457 673 Q522 673 576 651 Q630 629 668.5 590 Q707 551 728 498 Q749 445 749 383 Q749 333 736 285 Q723 237 699 194 Q675 151 641.5 116 Q608 81 567 57 L566 53 L706 53 L699 0 L442 0 L448 46 Q511 68 557 105 Q603 142 632.5 186.5 Q662 231 676 280.5 Q690 330 690 377 Q690 425 675 469.5 Q660 514 630 547.5 Q600 581 555 601 Q510 621 450 621 Z " />
<glyph glyph-name="alpha" unicode="&#x3b1;" horiz-adv-x="579" d="M313 453 Q361 453 404 433 Q447 413 468 376 L470 377 L480 445 L536 445 L474 0 L418 0 L427 70 L425 71 Q390 30 342.5 10 Q295 -10 247 -10 Q199 -10 161.5 4.5 Q124 19 99 45 Q74 71 61 107 Q48 143 48 185 Q48 242 69 291 Q90 340 126.5 376 Q163 412 211 432.5 Q259 453 313 453 Z M307 404 Q263 404 226 386.5 Q189 369 162.5 339 Q136 309 121 270 Q106 231 106 188 Q106 155 115.5 127.5 Q125 100 144 80 Q163 60 191 49 Q219 38 256 38 Q299 38 335.5 55.5 Q372 73 398.5 102.5 Q425 132 440 170.5 Q455 209 455 251 Q455 283 445 311 Q435 339 416 359.5 Q397 380 369.5 392 Q342 404 307 404 Z " />
<glyph glyph-name="beta" unicode="&#x3b2;" horiz-adv-x="557" d="M4 -215 L100 467 Q106 511 125.5 547.5 Q145 584 175 610.5 Q205 637 245 651.5 Q285 666 333 666 Q409 666 454.5 629 Q500 592 500 532 Q500 499 489.5 475 Q479 451 463.5 434 Q448 417 431 406.5 Q414 396 402 391 L402 386 Q420 381 439.5 369.5 Q459 358 475 339 Q491 320 501.5 294 Q512 268 512 234 Q512 190 494 146 Q476 102 442.5 67.5 Q409 33 362.5 11.5 Q316 -10 259 -10 Q195 -10 156 12 Q117 34 102 64 L99 64 L60 -215 L4 -215 Z M262 39 Q301 39 335.5 53 Q370 67 396.5 92.5 Q423 118 438.5 154 Q454 190 454 233 Q454 269 440.5 293.5 Q427 318 404.5 333 Q382 348 354 354.5 Q326 361 297 361 L268 361 L275 409 L307 409 Q350 409 377 421.5 Q404 434 418 452.5 Q432 471 437 491.5 Q442 512 442 527 Q442 549 432.5 566.5 Q423 584 407 595.5 Q391 607 370.5 613 Q350 619 328 619 Q281 619 249.5 603.5 Q218 588 198 565.5 Q178 543 168.5 516.5 Q159 490 156 468 L119 204 Q118 198 117.5 191.5 Q117 185 117 179 Q117 152 125.5 126.5 Q134 101 152 81.5 Q170 62 197 50.5 Q224 39 262 39 Z " />
<glyph glyph-name="psi" unicode="&#x3c8;" horiz-adv-x="625" d="M253 -10 Q202 -9 164 7.5 Q126 24 103 53.5 Q80 83 71 122.5 Q62 162 69 209 L102 445 L157 445 L124 211 Q119 178 124.5 148 Q130 118 146.5 94.5 Q163 71 191 56.5 Q219 42 260 41 L317 445 L371 445 L314 41 Q397 43 442.5 90.5 Q488 138 499 215 L531 445 L587 445 L554 208 Q548 163 528 124 Q508 85 476.5 55.5 Q445 26 402.5 9 Q360 -8 307 -10 L278 -219 L224 -219 L253 -10 Z " />
<glyph glyph-name="delta" unicode="&#x3b4;" horiz-adv-x="560" d="M323 455 Q354 455 391 447 Q353 495 298 536.5 Q243 578 177 620 L183 662 L528 662 L521 616 L271 616 Q314 590 358 555.5 Q402 521 436.5 478.5 Q471 436 493 385 Q515 334 515 274 Q515 213 494 161 Q473 109 437 71 Q401 33 352.5 11.5 Q304 -10 249 -10 Q200 -10 162.5 4.5 Q125 19 99.5 44.5 Q74 70 60.5 105 Q47 140 47 182 Q47 231 66.5 280 Q86 329 122 368 Q158 407 209 431 Q260 455 323 455 Z M256 38 Q303 38 340.5 57 Q378 76 404 107.5 Q430 139 443.5 180.5 Q457 222 457 267 Q457 333 429 389 Q399 400 373.5 404 Q348 408 324 408 Q273 408 232.5 389 Q192 370 164 339.5 Q136 309 121 269 Q106 229 106 187 Q106 121 145 79.5 Q184 38 256 38 Z " />
<glyph glyph-name="epsilon" unicode="&#x3b5;" horiz-adv-x="411" d="M370 367 Q356 378 328.5 390 Q301 402 259 402 Q223 402 198.5 395 Q174 388 158.5 376.5 Q143 365 136.5 350 Q130 335 130 320 Q130 305 137 295 Q144 285 155 278.5 Q166 272 179.5 269.5 Q193 267 206 267 L280 267 L273 220 L213 220 Q181 220 158 211.5 Q135 203 119.5 188.5 Q104 174 96.5 155.5 Q89 137 89 117 Q89 85 116.5 63 Q144 41 210 41 Q237 41 271.5 49.5 Q306 58 344 81 L365 41 Q333 17 288 3.5 Q243 -10 196 -10 Q112 -10 71.5 23.5 Q31 57 31 105 Q31 132 40.5 154 Q50 176 64.5 192.5 Q79 209 96.5 220.5 Q114 232 130 238 L130 241 Q98 253 85 273.5 Q72 294 72 316 Q72 346 86 371 Q100 396 125.5 415 Q151 434 186 444.5 Q221 455 263 455 Q316 455 349.5 441.5 Q383 428 404 408 L370 367 Z " />
<glyph glyph-name="phi" unicode="&#x3c6;" horiz-adv-x="675" d="M339 39 Q393 42 436.5 60.5 Q480 79 510.5 108 Q541 137 557 174 Q573 211 573 252 Q573 283 563 311 Q553 339 531 360 Q509 381 474.5 394 Q440 407 391 408 L339 39 Z M343 455 L400 455 Q506 455 567.5 403.5 Q629 352 629 264 Q629 211 607 163.5 Q585 116 546 79 Q507 42 452.5 19 Q398 -4 333 -7 L303 -218 L249 -218 L279 -7 Q224 -6 181 10 Q138 26 109 52.5 Q80 79 64.5 114.5 Q49 150 49 191 Q49 239 65 281 Q81 323 109.5 356 Q138 389 177 412 Q216 435 261 446 L272 401 Q232 391 200.5 370.5 Q169 350 147.5 323 Q126 296 115 263.5 Q104 231 104 197 Q104 165 116 137 Q128 109 151 87.5 Q174 66 207.5 53 Q241 40 285 39 L343 455 Z " />
<glyph glyph-name="gamma" unicode="&#x3b3;" horiz-adv-x="434" d="M203 106 L398 445 L456 445 L219 36 L183 -215 L127 -215 L162 32 L40 445 L102 445 L197 106 L203 106 Z " />
<glyph glyph-name="eta" unicode="&#x3b7;" horiz-adv-x="535" d="M343 -215 L408 255 Q418 325 394 365 Q370 405 313 405 Q282 405 252.5 394.5 Q223 384 199 362.5 Q175 341 157.5 308 Q140 275 134 230 L102 0 L45 0 L107 445 L160 445 L151 378 L155 378 Q197 423 239 439 Q281 455 323 455 Q407 455 443 405 Q479 355 467 266 L400 -215 L343 -215 Z " />
<glyph glyph-name="iota" unicode="&#x3b9;" horiz-adv-x="217" d="M50 0 L112 445 L169 445 L107 0 L50 0 Z " />
<glyph glyph-name="xi" unicode="&#x3be;" horiz-adv-x="415" d="M439 574 Q412 596 380.5 606 Q349 616 317 616 Q287 616 259.5 607.5 Q232 599 211.5 583.5 Q191 568 178.5 545 Q166 522 166 493 Q166 466 178 447.5 Q190 429 209 417.5 Q228 406 252.5 401.5 Q277 397 303 397 L401 397 L395 350 L291 350 Q246 350 212 335 Q178 320 154.5 296 Q131 272 119.5 242 Q108 212 108 182 Q108 156 120.5 137 Q133 118 156 103 Q179 88 213 75.5 Q247 63 291 49 Q352 29 373.5 11.5 Q395 -6 395 -27 Q395 -42 386 -59.5 Q377 -77 363.5 -95 Q350 -113 335 -129.5 Q320 -146 307 -159 L276 -133 Q285 -123 295 -111 Q305 -99 313 -87 Q321 -75 326.5 -64.5 Q332 -54 332 -45 Q332 -30 314 -20 Q296 -10 249 5 Q150 37 100 75.5 Q50 114 50 176 Q50 247 91 296.5 Q132 346 197 371 L197 375 Q157 387 131 414.5 Q105 442 105 489 Q105 532 124.5 565.5 Q144 599 174.5 621 Q205 643 243.5 654.5 Q282 666 321 666 Q367 666 405.5 652.5 Q444 639 473 616 L439 574 Z " />
<glyph glyph-name="kappa" unicode="&#x3ba;" horiz-adv-x="467" d="M193 236 L432 0 L348 0 L121 227 L90 0 L35 0 L97 445 L152 445 L123 240 L395 444 L470 444 L193 236 Z " />
<glyph glyph-name="lambda" unicode="&#x3bb;" horiz-adv-x="460" d="M238 662 L420 0 L360 0 L259 368 L255 368 L40 0 L-20 0 L239 440 L180 662 L238 662 Z " />
<glyph glyph-name="nu" unicode="&#x3bd;" horiz-adv-x="459" d="M174 0 L47 445 L106 445 L206 72 L211 72 L415 445 L476 445 L227 0 L174 0 Z " />
<glyph glyph-name="omicron" unicode="&#x3bf;" horiz-adv-x="560" d="M249 -10 Q200 -10 163 5 Q126 20 100.5 46 Q75 72 62 108 Q49 144 49 186 Q49 242 70.5 291 Q92 340 128 376.5 Q164 413 212 434 Q260 455 314 455 Q359 455 396 440 Q433 425 459 399 Q485 373 499 336.5 Q513 300 513 258 Q513 203 491.5 154 Q470 105 434 68.5 Q398 32 350 11 Q302 -10 249 -10 Z M308 407 Q264 407 227 389 Q190 371 163 341 Q136 311 121 271.5 Q106 232 106 189 Q106 156 115.5 128.5 Q125 101 144 81 Q163 61 191 49.5 Q219 38 256 38 Q300 38 337 56 Q374 74 400.5 103.5 Q427 133 441.5 172 Q456 211 456 253 Q456 285 446 313 Q436 341 417 362 Q398 383 370.5 395 Q343 407 308 407 Z " />
<glyph glyph-name="rho" unicode="&#x3c1;" horiz-adv-x="577" d="M101 64 L62 -215 L4 -215 L64 212 Q70 257 90.5 300.5 Q111 344 145 378.5 Q179 413 225 434.5 Q271 456 329 456 Q375 456 412 440.5 Q449 425 474.5 397.5 Q500 370 514 333.5 Q528 297 528 255 Q528 199 508 151 Q488 103 453 67.5 Q418 32 370.5 11.5 Q323 -9 268 -9 Q214 -9 173.5 11 Q133 31 108 67 L101 64 Z M323 407 Q279 407 242 389 Q205 371 178 341 Q151 311 136 272 Q121 233 121 191 Q121 160 130.5 132.5 Q140 105 159 84.5 Q178 64 206 52 Q234 40 272 40 Q312 40 348 55.5 Q384 71 412 98.5 Q440 126 456.5 165 Q473 204 473 252 Q473 283 463.5 311.5 Q454 340 435 361 Q416 382 388 394.5 Q360 407 323 407 Z " />
<glyph glyph-name="sigma" unicode="&#x3c3;" horiz-adv-x="549" d="M441 394 Q470 370 486 332 Q502 294 502 250 Q502 197 481 149.5 Q460 102 424.5 66.5 Q389 31 342 10.5 Q295 -10 243 -10 Q195 -10 158.5 4 Q122 18 97.5 43.5 Q73 69 60 103 Q47 137 47 178 Q47 233 68 281.5 Q89 330 125 366.5 Q161 403 208.5 424 Q256 445 308 445 L561 445 L554 398 L443 398 L441 394 Z M300 397 Q258 397 222.5 380 Q187 363 161 333.5 Q135 304 120 265.5 Q105 227 105 184 Q105 120 141.5 78.5 Q178 37 250 37 Q294 37 330 54.5 Q366 72 392 101.5 Q418 131 432 169 Q446 207 446 248 Q446 279 436.5 306.5 Q427 334 408.5 354 Q390 374 363 385.5 Q336 397 300 397 Z " />
<glyph glyph-name="tau" unicode="&#x3c4;" horiz-adv-x="365" d="M41 399 L47 445 L374 445 L368 399 L216 399 L177 127 Q172 89 182 66.5 Q192 44 232 44 Q252 44 271 49.5 Q290 55 305 62 L318 18 Q304 10 275.5 0.5 Q247 -9 215 -9 Q180 -9 159.5 1.5 Q139 12 128.5 30 Q118 48 117 73 Q116 98 120 127 L159 399 L41 399 Z " />
<glyph glyph-name="theta" unicode="&#x3b8;" horiz-adv-x="547" d="M512 325 Q501 251 478.5 189.5 Q456 128 421.5 83.5 Q387 39 340.5 14.5 Q294 -10 236 -10 Q177 -10 139.5 16 Q102 42 82 87 Q62 132 58.5 193.5 Q55 255 65 327 Q75 396 96 457.5 Q117 519 150 565.5 Q183 612 229 639 Q275 666 335 666 Q392 666 431 640.5 Q470 615 491.5 569 Q513 523 517.5 460.5 Q522 398 512 325 Z M460 364 Q466 417 461 463.5 Q456 510 439.5 544 Q423 578 395.5 597.5 Q368 617 328 617 Q289 617 256.5 597 Q224 577 199.5 542.5 Q175 508 157.5 462 Q140 416 130 364 L460 364 Z M122 316 Q116 259 118.5 208 Q121 157 135 119.5 Q149 82 175.5 60 Q202 38 244 38 Q289 38 324 60 Q359 82 385.5 120 Q412 158 429 208.5 Q446 259 455 316 L122 316 Z " />
<glyph glyph-name="omega" unicode="&#x3c9;" horiz-adv-x="749" d="M394 163 Q390 138 395 115.5 Q400 93 412 76 Q424 59 443.5 49 Q463 39 489 39 Q524 39 552.5 57 Q581 75 601.5 105.5 Q622 136 633.5 175.5 Q645 215 645 257 Q645 317 615.5 358.5 Q586 400 529 406 L544 455 Q586 453 616 436.5 Q646 420 664.5 393.5 Q683 367 692 333 Q701 299 701 262 Q701 217 688 169.5 Q675 122 647.5 82 Q620 42 578.5 16.5 Q537 -9 480 -9 Q429 -9 397.5 15.5 Q366 40 355 73 L350 73 Q339 59 324 44.5 Q309 30 289.5 18 Q270 6 246 -1.5 Q222 -9 193 -9 Q155 -9 127.5 3.5 Q100 16 82 39 Q64 62 55.5 94 Q47 126 47 164 Q47 218 61.5 269 Q76 320 104.5 360.5 Q133 401 175 426.5 Q217 452 272 454 L276 407 Q234 403 202.5 382 Q171 361 149 328.5 Q127 296 116 255 Q105 214 105 171 Q105 112 129 75.5 Q153 39 206 39 Q237 39 260 50.5 Q283 62 299 80.5 Q315 99 324.5 122 Q334 145 337 167 L357 307 L415 307 L394 163 Z " />
<glyph glyph-name="sigma1" unicode="&#x3c2;" horiz-adv-x="414" d="M48 235 Q55 287 78 328 Q101 369 134.5 397.5 Q168 426 210 441 Q252 456 299 456 Q347 456 384 439.5 Q421 423 440 403 L404 363 Q391 374 363 388.5 Q335 403 293 403 Q257 403 222.5 390 Q188 377 161.5 351.5 Q135 326 118.5 286.5 Q102 247 102 195 Q102 153 127 121 Q152 89 217 61 Q250 47 273.5 36.5 Q297 26 312 16.5 Q327 7 334.5 -2 Q342 -11 342 -23 Q342 -39 331 -57 Q320 -75 304 -92.5 Q288 -110 271 -125.5 Q254 -141 242 -151 L212 -125 Q249 -88 263 -70 Q277 -52 277 -41 Q277 -27 249.5 -16 Q222 -5 180 15 Q104 49 74.5 91 Q45 133 45 190 Q45 211 48 235 Z " />
<glyph glyph-name="chi" unicode="&#x3c7;" horiz-adv-x="432" d="M170 229 L37 445 L102 445 L207 267 L364 445 L429 445 L235 229 L377 0 L312 0 L196 190 L30 0 L-35 0 L170 229 Z " />
<glyph glyph-name="upsilon" unicode="&#x3c5;" horiz-adv-x="518" d="M423 445 L480 445 L444 189 Q431 98 376 44 Q321 -10 227 -10 Q132 -10 92.5 43 Q53 96 66 190 L102 445 L157 445 L121 192 Q116 159 119.5 131 Q123 103 136.5 83 Q150 63 174 51.5 Q198 40 234 40 Q302 40 339.5 80 Q377 120 387 189 L423 445 Z " />
<glyph glyph-name="zeta" unicode="&#x3b6;" horiz-adv-x="386" d="M427 616 L131 616 L138 662 L507 662 L501 621 Q419 558 346 498 Q273 438 218 382.5 Q163 327 130.5 278 Q98 229 98 189 Q98 163 110.5 144 Q123 125 147.5 108.5 Q172 92 208.5 77 Q245 62 293 43 Q345 23 361.5 6.5 Q378 -10 378 -29 Q378 -46 367 -66 Q356 -86 341 -104.5 Q326 -123 310 -139 Q294 -155 284 -165 L254 -139 Q279 -113 297.5 -88.5 Q316 -64 316 -47 Q316 -31 289.5 -18.5 Q263 -6 210 14 Q170 29 138.5 44.5 Q107 60 85 79 Q63 98 51.5 121.5 Q40 145 40 176 Q40 211 60.5 250.5 Q81 290 113.5 331.5 Q146 373 188 414 Q230 455 273 492 Q316 529 356.5 560.5 Q397 592 428 614 L427 616 Z " />
<glyph glyph-name="Euro" unicode="&#x20ac;" horiz-adv-x="540" d="M152 309 L446 309 L440 267 L149 267 Q150 220 162 179 Q174 138 198 108 Q222 78 259 61 Q296 44 347 44 Q376 44 412 49.5 Q448 55 485 69 L496 25 Q458 8 415.5 1 Q373 -6 340 -6 Q283 -6 236.5 12 Q190 30 157.5 64.5 Q125 99 107.5 150 Q90 201 92 267 L43 267 L49 309 L95 309 L96 320 Q98 330 99.5 341 Q101 352 105 366 L57 366 L63 408 L115 408 Q133 463 164 510.5 Q195 558 236.5 593 Q278 628 330 648 Q382 668 444 668 Q472 668 506.5 663.5 Q541 659 567 649 L546 601 Q520 609 493 612.5 Q466 616 438 616 Q341 616 275.5 562 Q210 508 172 408 L460 408 L454 366 L161 366 Q159 356 157.5 344 Q156 332 154 324 L152 309 Z " />
<glyph glyph-name="semicolon" unicode="&#x3b;" horiz-adv-x="204" d="M171 349 Q168 331 152.5 318 Q137 305 118 305 Q99 305 88 318 Q77 331 80 349 Q82 369 97 382 Q112 395 131 395 Q151 395 162 382 Q173 369 171 349 Z M1 -104 Q16 -96 30 -84 Q44 -72 54.5 -58 Q65 -44 72 -29.5 Q79 -15 82 -2 Q77 -4 73 -4 Q69 -4 66 -4 Q48 -4 36 7 Q24 18 27 41 Q30 60 45.5 74.5 Q61 89 83 89 Q110 89 119 68.5 Q128 48 123 20 Q121 2 112.5 -19 Q104 -40 90 -61 Q76 -82 56.5 -100 Q37 -118 13 -128 L1 -104 Z " />
<glyph glyph-name="eth" unicode="&#xf0;" horiz-adv-x="550" d="M321 688 Q344 672 364.5 654.5 Q385 637 403 617 L489 669 L508 633 L430 585 Q470 528 492.5 462 Q515 396 515 322 Q515 270 500 211.5 Q485 153 452.5 104 Q420 55 368 22.5 Q316 -10 241 -10 Q193 -10 155.5 3.5 Q118 17 93 42 Q68 67 55 100.5 Q42 134 42 175 Q42 230 63 278.5 Q84 327 120 363 Q156 399 203 419.5 Q250 440 303 440 Q327 440 350.5 435 Q374 430 395 418.5 Q416 407 433 389.5 Q450 372 460 348 L464 349 Q460 404 438 458 Q416 512 383 557 L300 506 L280 542 L356 588 Q340 605 322 620.5 Q304 636 286 650 L321 688 Z M297 391 Q254 391 218 374.5 Q182 358 155.5 329.5 Q129 301 114.5 263 Q100 225 100 183 Q100 152 109.5 125.5 Q119 99 137.5 79.5 Q156 60 184 48.5 Q212 37 248 37 Q294 37 330 55.5 Q366 74 391.5 103.5 Q417 133 430.5 169.5 Q444 206 444 242 Q444 273 434 300.5 Q424 328 405.5 348 Q387 368 359.5 379.5 Q332 391 297 391 Z " />
<glyph glyph-name="sfthyphen" unicode="&#xad;" horiz-adv-x="376" d="M68 270 L322 270 L315 217 L61 217 L68 270 Z " />
<glyph glyph-name="OE" unicode="&#x152;" horiz-adv-x="870" d="M809 0 L454 0 Q433 -5 409 -7.5 Q385 -10 362 -10 Q288 -10 233 11.5 Q178 33 141.5 71 Q105 109 87 162 Q69 215 69 277 Q69 361 98.5 434 Q128 507 180.5 561 Q233 615 304.5 646 Q376 677 459 677 Q517 677 565 662 L877 662 L869 610 L583 610 L547 354 L833 354 L826 302 L540 302 L505 53 L816 53 L809 0 Z M369 42 Q409 42 446 50 L525 615 Q508 620 488.5 622 Q469 624 451 624 Q379 624 319 596.5 Q259 569 216.5 522 Q174 475 150 412.5 Q126 350 126 280 Q126 228 141.5 184.5 Q157 141 187.5 109.5 Q218 78 263.5 60 Q309 42 369 42 Z " />
<glyph glyph-name="acute" unicode="&#xb4;" horiz-adv-x="469" d="M387 627 L280 525 L231 525 L316 627 L387 627 Z " />
<glyph glyph-name="circumflex" unicode="&#x2c6;" horiz-adv-x="469" d="M317 650 L402 529 L336 529 L281 614 L200 529 L137 529 L260 650 L317 650 Z " />
<glyph glyph-name="registered" unicode="&#xae;" horiz-adv-x="607" d="M435 323 L394 323 L335 425 L271 425 L271 323 L235 323 L235 607 L334 607 Q382 607 406.5 579 Q431 551 431 515 Q431 485 413.5 462.5 Q396 440 370 431 L435 323 Z M396 515 Q396 539 379 557 Q362 575 329 575 L271 575 L271 456 L330 456 Q364 456 380 474.5 Q396 493 396 515 Z M562 461 Q562 411 543 368 Q524 325 492 292.5 Q460 260 416 241.5 Q372 223 323 223 Q268 223 224 241.5 Q180 260 149 292.5 Q118 325 101.5 368 Q85 411 85 461 Q85 510 104 553.5 Q123 597 155 629.5 Q187 662 230.5 681 Q274 700 323 700 Q375 700 418.5 681 Q462 662 494 629.5 Q526 597 544 553.5 Q562 510 562 461 Z M526 461 Q526 503 510 540 Q494 577 466.5 605 Q439 633 402 649 Q365 665 323 665 Q280 665 243 649 Q206 633 179 605 Q152 577 136.5 540 Q121 503 121 461 Q121 419 135.5 382 Q150 345 177 317 Q204 289 241 273 Q278 257 323 257 Q365 257 402 273 Q439 289 466.5 317 Q494 345 510 382 Q526 419 526 461 Z " />
<glyph glyph-name="Alpha" unicode="&#x391;" horiz-adv-x="612" d="M397 662 L567 0 L507 0 L465 161 L129 161 L44 0 L-15 0 L343 662 L397 662 Z M155 210 L453 210 L359 584 L355 584 L155 210 Z " />
<glyph glyph-name="Beta" unicode="&#x392;" horiz-adv-x="591" d="M411 346 Q434 343 456 333 Q478 323 495 306.5 Q512 290 522.5 266.5 Q533 243 533 211 Q533 163 515 124.5 Q497 86 466 58 Q435 30 393.5 15 Q352 0 306 0 L55 0 L148 662 L374 662 Q446 662 492 626 Q538 590 538 524 Q538 484 527 454.5 Q516 425 498 404 Q480 383 457.5 369.5 Q435 356 412 349 L411 346 Z M297 53 Q330 53 362.5 62.5 Q395 72 420.5 91 Q446 110 462 139 Q478 168 478 208 Q478 261 436.5 288.5 Q395 316 323 316 L157 316 L120 53 L297 53 Z M164 367 L322 367 Q341 367 368.5 373.5 Q396 380 421 396 Q446 412 464 439.5 Q482 467 482 509 Q482 554 452.5 582 Q423 610 364 610 L198 610 L164 367 Z " />
<glyph glyph-name="Gamma" unicode="&#x393;" horiz-adv-x="479" d="M114 0 L55 0 L148 662 L497 662 L489 610 L199 610 L114 0 Z " />
<glyph glyph-name="Delta" unicode="&#x394;" horiz-adv-x="641" d="M411 662 L594 0 L-13 0 L357 662 L411 662 Z M77 52 L522 52 L376 587 L372 587 L77 52 Z " />
<glyph glyph-name="Epsilon" unicode="&#x395;" horiz-adv-x="486" d="M425 0 L55 0 L148 662 L494 662 L486 610 L199 610 L166 371 L456 371 L448 319 L158 319 L121 53 L432 53 L425 0 Z " />
<glyph glyph-name="Zeta" unicode="&#x396;" horiz-adv-x="513" d="M11 48 L459 610 L107 610 L115 662 L534 662 L527 614 L82 52 L455 52 L448 0 L5 0 L11 48 Z " />
<glyph glyph-name="Eta" unicode="&#x397;" horiz-adv-x="637" d="M465 0 L509 319 L157 319 L113 0 L55 0 L148 662 L206 662 L165 371 L517 371 L558 662 L615 662 L522 0 L465 0 Z " />
<glyph glyph-name="Iota" unicode="&#x399;" horiz-adv-x="248" d="M65 0 L158 662 L216 662 L123 0 L65 0 Z " />
<glyph glyph-name="Kappa" unicode="&#x39a;" horiz-adv-x="580" d="M161 348 L530 662 L602 662 L234 344 L540 0 L458 0 L160 339 L113 0 L55 0 L148 662 L206 662 L161 348 Z " />
<glyph glyph-name="Mu" unicode="&#x39c;" horiz-adv-x="813" d="M734 661 L790 661 L698 0 L643 0 L720 548 L717 549 L408 93 L371 93 L190 551 L187 550 L110 0 L55 0 L147 661 L204 661 L399 162 L734 661 Z " />
<glyph glyph-name="Nu" unicode="&#x39d;" horiz-adv-x="721" d="M555 0 L193 568 L190 568 L111 0 L55 0 L148 662 L201 662 L559 98 L563 98 L643 662 L699 662 L606 0 L555 0 Z " />
<glyph glyph-name="Omicron" unicode="&#x39f;" horiz-adv-x="787" d="M363 -10 Q291 -10 236 12 Q181 34 144 72 Q107 110 88 162.5 Q69 215 69 276 Q69 358 100.5 430.5 Q132 503 185.5 556.5 Q239 610 310 641 Q381 672 459 672 Q525 672 579.5 649.5 Q634 627 672.5 588 Q711 549 732 495.5 Q753 442 753 380 Q753 299 722 227.5 Q691 156 638 103.5 Q585 51 514 20.5 Q443 -10 363 -10 Z M451 619 Q383 619 324 592 Q265 565 221.5 519 Q178 473 153 411.5 Q128 350 128 281 Q128 229 144 185 Q160 141 191 109.5 Q222 78 267 60.5 Q312 43 371 43 Q440 43 499 70.5 Q558 98 601 143.5 Q644 189 668.5 249 Q693 309 693 375 Q693 427 676 471.5 Q659 516 627.5 549 Q596 582 551.5 600.5 Q507 619 451 619 Z " />
<glyph glyph-name="Rho" unicode="&#x3a1;" horiz-adv-x="563" d="M147 662 L359 662 Q412 662 451 646.5 Q490 631 515.5 605 Q541 579 553.5 544.5 Q566 510 566 473 Q566 411 542 364.5 Q518 318 479.5 286.5 Q441 255 392.5 239.5 Q344 224 294 224 L144 224 L113 0 L54 0 L147 662 Z M198 610 L151 276 L298 276 Q350 276 388.5 293.5 Q427 311 452.5 339 Q478 367 490.5 401.5 Q503 436 503 470 Q503 497 493.5 522.5 Q484 548 464 567.5 Q444 587 412 598.5 Q380 610 334 610 L198 610 Z " />
<glyph glyph-name="Tau" unicode="&#x3a4;" horiz-adv-x="502" d="M335 610 L250 0 L191 0 L276 610 L70 610 L78 662 L550 662 L542 610 L335 610 Z " />
<glyph glyph-name="Upsilon" unicode="&#x3a5;" horiz-adv-x="540" d="M297 319 L533 662 L593 662 L316 265 L279 0 L221 0 L258 265 L73 662 L137 662 L293 319 L297 319 Z " />
<glyph glyph-name="Chi" unicode="&#x3a7;" horiz-adv-x="561" d="M331 343 L510 0 L444 0 L293 294 L59 0 L-9 0 L266 343 L102 662 L166 662 L306 392 L522 662 L586 662 L331 343 Z " />
<glyph glyph-name="alphatonos" unicode="&#x3ac;" horiz-adv-x="579" d="M313 453 Q361 453 404 433 Q447 413 468 376 L470 377 L480 445 L536 445 L474 0 L418 0 L427 70 L425 71 Q390 30 342.5 10 Q295 -10 247 -10 Q199 -10 161.5 4.5 Q124 19 99 45 Q74 71 61 107 Q48 143 48 185 Q48 242 69 291 Q90 340 126.5 376 Q163 412 211 432.5 Q259 453 313 453 Z M307 404 Q263 404 226 386.5 Q189 369 162.5 339 Q136 309 121 270 Q106 231 106 188 Q106 155 115.5 127.5 Q125 100 144 80 Q163 60 191 49 Q219 38 256 38 Q299 38 335.5 55.5 Q372 73 398.5 102.5 Q425 132 440 170.5 Q455 209 455 251 Q455 283 445 311 Q435 339 416 359.5 Q397 380 369.5 392 Q342 404 307 404 Z M452 635 L337 525 L288 525 L380 635 L452 635 Z " />
<glyph glyph-name="etatonos" unicode="&#x3ae;" horiz-adv-x="535" d="M343 -215 L408 255 Q418 325 394 365 Q370 405 313 405 Q282 405 252.5 394.5 Q223 384 199 362.5 Q175 341 157.5 308 Q140 275 134 230 L102 0 L45 0 L107 445 L160 445 L151 378 L155 378 Q197 423 239 439 Q281 455 323 455 Q407 455 443 405 Q479 355 467 266 L400 -215 L343 -215 Z M435 635 L320 525 L271 525 L363 635 L435 635 Z " />
<glyph glyph-name="iotatonos" unicode="&#x3af;" horiz-adv-x="217" d="M50 0 L112 445 L169 445 L107 0 L50 0 Z M290 635 L175 525 L126 525 L218 635 L290 635 Z " />
<glyph glyph-name="iotadieresistonos" unicode="&#x390;" horiz-adv-x="217" d="M50 0 L112 445 L169 445 L107 0 L50 0 Z M21 586 Q23 603 36 613.5 Q49 624 64 624 Q80 624 89.5 613 Q99 602 97 586 Q95 571 83 559.5 Q71 548 54 548 Q39 548 29 559 Q19 570 21 586 Z M236 586 Q238 603 250.5 613.5 Q263 624 278 624 Q295 624 304.5 613 Q314 602 312 586 Q310 571 297.5 559.5 Q285 548 268 548 Q253 548 243.5 559 Q234 570 236 586 Z M248 640 L134 530 L85 530 L176 640 L248 640 Z " />
<glyph glyph-name="iotadieresis" unicode="&#x3ca;" horiz-adv-x="217" d="M50 0 L112 445 L169 445 L107 0 L50 0 Z M119 586 Q117 569 105.5 559 Q94 549 78 549 Q61 549 52 559 Q43 569 45 586 Q47 600 60 611.5 Q73 623 88 623 Q104 623 112.5 612.5 Q121 602 119 586 Z M279 586 Q277 569 265.5 559 Q254 549 237 549 Q220 549 211.5 559 Q203 569 205 586 Q207 600 219.5 611.5 Q232 623 247 623 Q264 623 272.5 612.5 Q281 602 279 586 Z " />
<glyph glyph-name="upsilondieresis" unicode="&#x3cb;" horiz-adv-x="518" d="M423 445 L480 445 L444 189 Q431 98 376 44 Q321 -10 227 -10 Q132 -10 92.5 43 Q53 96 66 190 L102 445 L157 445 L121 192 Q116 159 119.5 131 Q123 103 136.5 83 Q150 63 174 51.5 Q198 40 234 40 Q302 40 339.5 80 Q377 120 387 189 L423 445 Z M272 586 Q270 569 258.5 559 Q247 549 231 549 Q214 549 205 559 Q196 569 198 586 Q200 600 213 611.5 Q226 623 241 623 Q257 623 265.5 612.5 Q274 602 272 586 Z M432 586 Q430 569 418.5 559 Q407 549 390 549 Q373 549 364.5 559 Q356 569 358 586 Q360 600 372.5 611.5 Q385 623 400 623 Q417 623 425.5 612.5 Q434 602 432 586 Z " />
<glyph glyph-name="omicrontonos" unicode="&#x3cc;" horiz-adv-x="560" d="M249 -10 Q200 -10 163 5 Q126 20 100.5 46 Q75 72 62 108 Q49 144 49 186 Q49 242 70.5 291 Q92 340 128 376.5 Q164 413 212 434 Q260 455 314 455 Q359 455 396 440 Q433 425 459 399 Q485 373 499 336.5 Q513 300 513 258 Q513 203 491.5 154 Q470 105 434 68.5 Q398 32 350 11 Q302 -10 249 -10 Z M308 407 Q264 407 227 389 Q190 371 163 341 Q136 311 121 271.5 Q106 232 106 189 Q106 156 115.5 128.5 Q125 101 144 81 Q163 61 191 49.5 Q219 38 256 38 Q300 38 337 56 Q374 74 400.5 103.5 Q427 133 441.5 172 Q456 211 456 253 Q456 285 446 313 Q436 341 417 362 Q398 383 370.5 395 Q343 407 308 407 Z M450 635 L335 525 L286 525 L378 635 L450 635 Z " />
<glyph glyph-name="upsilontonos" unicode="&#x3cd;" horiz-adv-x="518" d="M424 635 L309 525 L260 525 L352 635 L424 635 Z M423 445 L480 445 L444 189 Q431 98 376 44 Q321 -10 227 -10 Q132 -10 92.5 43 Q53 96 66 190 L102 445 L157 445 L121 192 Q116 159 119.5 131 Q123 103 136.5 83 Q150 63 174 51.5 Q198 40 234 40 Q302 40 339.5 80 Q377 120 387 189 L423 445 Z " />
<glyph glyph-name="upsilondieresistonos" unicode="&#x3b0;" horiz-adv-x="518" d="M423 445 L480 445 L444 189 Q431 98 376 44 Q321 -10 227 -10 Q132 -10 92.5 43 Q53 96 66 190 L102 445 L157 445 L121 192 Q116 159 119.5 131 Q123 103 136.5 83 Q150 63 174 51.5 Q198 40 234 40 Q302 40 339.5 80 Q377 120 387 189 L423 445 Z M173 586 Q175 603 188 613.5 Q201 624 216 624 Q232 624 241.5 613 Q251 602 249 586 Q247 571 235 559.5 Q223 548 206 548 Q191 548 181 559 Q171 570 173 586 Z M388 586 Q390 603 402.5 613.5 Q415 624 430 624 Q447 624 456.5 613 Q466 602 464 586 Q462 571 449.5 559.5 Q437 548 420 548 Q405 548 395.5 559 Q386 570 388 586 Z M400 640 L286 530 L237 530 L328 640 L400 640 Z " />
<glyph glyph-name="guilsinglleft" unicode="&#x2039;" horiz-adv-x="282" d="M214 16 L151 16 L42 194 L43 203 L205 381 L265 381 L103 201 L214 16 Z " />
<glyph glyph-name="guilsinglright" unicode="&#x203a;" horiz-adv-x="282" d="M180 201 L68 381 L128 381 L240 203 L239 194 L80 16 L17 16 L180 201 Z " />
<glyph glyph-name="logicalnot" unicode="&#xac;" horiz-adv-x="540" d="M444 107 L397 107 L420 276 L88 276 L95 321 L474 321 L444 107 Z " />
<glyph glyph-name="tilde" unicode="&#x2dc;" horiz-adv-x="469" d="M425 639 Q415 588 394.5 565 Q374 542 342 542 Q325 542 310 549.5 Q295 557 281 566.5 Q267 576 254 583.5 Q241 591 229 591 Q215 591 203.5 578.5 Q192 566 184 543 L143 543 Q151 573 162 592.5 Q173 612 185 622.5 Q197 633 209.5 637 Q222 641 234 641 Q251 641 266.5 633.5 Q282 626 295.5 617 Q309 608 322 600.5 Q335 593 347 593 Q358 593 368.5 600 Q379 607 387 639 L425 639 Z " />
<glyph glyph-name="primemod" unicode="&#x2b9;" horiz-adv-x="207" d="M249 641 L98 425 L56 425 L185 641 L249 641 Z " />
<glyph glyph-name="caron" unicode="&#x2c7;" horiz-adv-x="469" d="M239 532 L154 653 L219 653 L274 568 L355 653 L419 653 L296 532 L239 532 Z " />
<glyph glyph-name="breve" unicode="&#x2d8;" horiz-adv-x="469" d="M403 649 Q398 627 387 605.5 Q376 584 359.5 567.5 Q343 551 321 540.5 Q299 530 271 530 Q245 530 226 540 Q207 550 195 566.5 Q183 583 178 604.5 Q173 626 174 649 L220 649 Q217 616 232.5 594.5 Q248 573 278 573 Q313 573 331.5 596 Q350 619 358 649 L403 649 Z " />
<glyph glyph-name="dotaccent" unicode="&#x2d9;" horiz-adv-x="427" d="M346 589 Q344 572 332 561.5 Q320 551 303 551 Q286 551 276.5 561.5 Q267 572 269 589 Q271 604 284.5 616 Q298 628 314 628 Q331 628 339.5 617 Q348 606 346 589 Z " />
<glyph glyph-name="ring" unicode="&#x2da;" horiz-adv-x="469" d="M279 520 Q237 520 218 544.5 Q199 569 204 605 Q209 643 238 668 Q267 693 303 693 Q341 693 362.5 668 Q384 643 379 605 Q374 569 345.5 544.5 Q317 520 279 520 Z M298 659 Q275 659 259 643 Q243 627 240 605 Q237 584 248 568.5 Q259 553 283 553 Q308 553 324 569 Q340 585 343 605 Q346 627 334 643 Q322 659 298 659 Z " />
<glyph glyph-name="ogonek" unicode="&#x2db;" horiz-adv-x="523" d="M334 17 Q280 -17 248.5 -57 Q217 -97 213 -125 Q209 -151 220.5 -161 Q232 -171 252 -171 Q275 -171 296 -164 Q317 -157 334 -149 L345 -182 Q322 -195 291.5 -203.5 Q261 -212 233 -212 Q199 -212 175.5 -195.5 Q152 -179 158 -137 Q159 -126 167.5 -106 Q176 -86 195 -62 Q214 -38 246 -12 Q278 14 328 37 L334 17 Z " />
<glyph glyph-name="hungarumlaut" unicode="&#x2dd;" horiz-adv-x="469" d="M326 627 L219 525 L170 525 L255 627 L326 627 Z M423 627 L316 525 L267 525 L352 627 L423 627 Z " />
<glyph glyph-name="Circumflex" unicode="&#xf6c0;" horiz-adv-x="787" d="M518 849 L603 728 L537 728 L482 813 L401 728 L338 728 L461 849 L518 849 Z " />
<glyph glyph-name="commaaccent" unicode="&#xf6c3;" horiz-adv-x="580" d="M186 -210 Q212 -196 231 -171 Q250 -146 254 -123 Q250 -124 246.5 -124 Q243 -124 241 -124 Q226 -124 216 -115 Q206 -106 208 -86 Q210 -70 223.5 -57.5 Q237 -45 255 -45 Q278 -45 285.5 -62.5 Q293 -80 290 -104 Q288 -119 281 -137 Q274 -155 262 -173 Q250 -191 233 -206 Q216 -221 195 -230 L186 -210 Z " />
<glyph glyph-name="Acute" unicode="&#xf6c9;" horiz-adv-x="843" d="M592 832 L483 725 L434 725 L518 832 L592 832 Z " />
<glyph glyph-name="Caron" unicode="&#xf6ca;" horiz-adv-x="787" d="M433 728 L348 849 L414 849 L469 764 L550 849 L613 849 L490 728 L433 728 Z " />
<glyph glyph-name="Dieresis" unicode="&#xf6cb;" horiz-adv-x="787" d="M430 795 Q428 778 416.5 768 Q405 758 389 758 Q372 758 363 768 Q354 778 356 795 Q358 809 371 820.5 Q384 832 399 832 Q415 832 423.5 821.5 Q432 811 430 795 Z M590 795 Q588 778 576.5 768 Q565 758 548 758 Q531 758 522.5 768 Q514 778 516 795 Q518 809 530.5 820.5 Q543 832 558 832 Q575 832 583.5 821.5 Q592 811 590 795 Z " />
<glyph glyph-name="Grave" unicode="&#xf6ce;" horiz-adv-x="787" d="M457 832 L511 725 L462 725 L383 832 L457 832 Z " />
<glyph glyph-name="Hungarumlaut" unicode="&#xf6cf;" horiz-adv-x="843" d="M543 832 L436 725 L385 725 L469 832 L543 832 Z M643 832 L536 725 L485 725 L569 832 L643 832 Z " />
<glyph glyph-name="Macron" unicode="&#xf6d0;" horiz-adv-x="787" d="M336 813 L615 813 L608 762 L329 762 L336 813 Z " />
<glyph glyph-name="ff" unicode="&#xfb00;" horiz-adv-x="558" d="M607 616 Q583 619 562 619 Q514 619 492.5 596.5 Q471 574 464 523 L453 445 L583 445 L576 398 L446 398 L363 -215 L307 -215 L390 398 L186 398 L131 0 L75 0 L130 398 L50 398 L57 445 L137 445 L148 521 Q157 588 194 627 Q231 666 304 666 Q313 666 326 665 Q339 664 354 662 L347 616 Q323 619 302 619 Q254 619 232.5 596.5 Q211 574 204 523 L193 445 L397 445 L408 521 Q417 588 454 627 Q491 666 564 666 Q573 666 586 665 Q599 664 614 662 L607 616 Z " />
<glyph glyph-name="fi" unicode="&#xfb01;" horiz-adv-x="491" d="M347 616 Q323 619 302 619 Q254 619 232.5 596.5 Q211 574 204 523 L193 445 L437 445 L375 0 L318 0 L373 398 L186 398 L101 -215 L45 -215 L130 398 L50 398 L57 445 L137 445 L148 521 Q157 588 194 627 Q231 666 304 666 Q313 666 326 665 Q339 664 354 662 L347 616 Z M474 627 Q472 610 459.5 599.5 Q447 589 430 589 Q413 589 404 599.5 Q395 610 397 627 Q399 642 412 654 Q425 666 441 666 Q458 666 467 655 Q476 644 474 627 Z " />
<glyph glyph-name="fl" unicode="&#xfb02;" horiz-adv-x="491" d="M333 0 L426 662 L483 662 L390 0 L333 0 Z M347 616 Q323 619 302 619 Q254 619 232.5 596.5 Q211 574 204 523 L193 445 L323 445 L316 398 L186 398 L100 -215 L44 -215 L130 398 L50 398 L57 445 L137 445 L148 521 Q157 588 194 627 Q231 666 304 666 Q313 666 326 665 Q339 664 354 662 L347 616 Z " />
<glyph glyph-name="ffi" unicode="&#xfb03;" horiz-adv-x="751" d="M607 616 Q583 619 562 619 Q514 619 492.5 596.5 Q471 574 464 523 L453 445 L697 445 L635 0 L578 0 L633 398 L446 398 L362 -215 L306 -215 L390 398 L186 398 L131 0 L75 0 L130 398 L50 398 L57 445 L137 445 L148 521 Q157 588 194 627 Q231 666 304 666 Q313 666 326 665 Q339 664 354 662 L347 616 Q323 619 302 619 Q254 619 232.5 596.5 Q211 574 204 523 L193 445 L397 445 L408 521 Q417 588 454 627 Q491 666 564 666 Q573 666 586 665 Q599 664 614 662 L607 616 Z M734 627 Q732 610 719.5 599.5 Q707 589 690 589 Q673 589 664 599.5 Q655 610 657 627 Q659 642 672 654 Q685 666 701 666 Q718 666 727 655 Q736 644 734 627 Z " />
<glyph glyph-name="ffl" unicode="&#xfb04;" horiz-adv-x="751" d="M607 616 Q583 619 562 619 Q514 619 492.5 596.5 Q471 574 464 523 L453 445 L583 445 L576 398 L446 398 L363 -215 L307 -215 L390 398 L186 398 L131 0 L75 0 L130 398 L50 398 L57 445 L137 445 L148 521 Q157 588 194 627 Q231 666 304 666 Q313 666 326 665 Q339 664 354 662 L347 616 Q323 619 302 619 Q254 619 232.5 596.5 Q211 574 204 523 L193 445 L397 445 L408 521 Q417 588 454 627 Q491 666 564 666 Q573 666 586 665 Q599 664 614 662 L607 616 Z M593 0 L686 662 L743 662 L650 0 L593 0 Z " />
<glyph glyph-name="paragraph" unicode="&#xb6;" horiz-adv-x="528" d="M269 327 Q233 327 203.5 338.5 Q174 350 153 371 Q132 392 121 420.5 Q110 449 110 482 Q110 524 127 561.5 Q144 599 172.5 627.5 Q201 656 239.5 673 Q278 690 320 690 L399 690 L348 327 L269 327 Z M424 106 Q409 0 360 -46 Q311 -92 239 -96 L233 -44 Q271 -41 295 -27 Q319 -13 334 8.5 Q349 30 356.5 57 Q364 84 369 114 L449 690 L506 690 L424 106 Z " />
<glyph glyph-name="quotesinglbase" unicode="&#x201a;" horiz-adv-x="211" d="M19 -95 Q48 -81 68.5 -53.5 Q89 -26 93 -1 Q89 -3 85 -3 Q81 -3 79 -3 Q62 -3 51.5 7 Q41 17 44 38 Q46 55 60 68.5 Q74 82 94 82 Q119 82 127 63.5 Q135 45 131 19 Q129 3 121.5 -16.5 Q114 -36 101 -55 Q88 -74 70.5 -90.5 Q53 -107 30 -117 L19 -95 Z " />
<glyph glyph-name="quotedblbase" unicode="&#x201e;" horiz-adv-x="313" d="M9 -95 Q38 -81 58.5 -53.5 Q79 -26 83 -1 Q79 -3 75 -3 Q71 -3 69 -3 Q52 -3 41.5 7 Q31 17 34 38 Q36 55 50 68.5 Q64 82 84 82 Q109 82 117 63.5 Q125 45 121 19 Q119 3 111.5 -16.5 Q104 -36 91 -55 Q78 -74 60.5 -90.5 Q43 -107 20 -117 L9 -95 Z M120 -95 Q149 -81 169.5 -53.5 Q190 -26 194 -1 Q190 -3 186 -3 Q182 -3 180 -3 Q163 -3 152.5 7 Q142 17 145 38 Q147 55 161 68.5 Q175 82 195 82 Q220 82 228 63.5 Q236 45 232 19 Q230 3 222.5 -16.5 Q215 -36 202 -55 Q189 -74 171.5 -90.5 Q154 -107 131 -117 L120 -95 Z " />
<glyph glyph-name="ellipsis" unicode="&#x2026;" horiz-adv-x="599" d="M124 37 Q121 17 105.5 4 Q90 -9 71 -9 Q51 -9 40 4 Q29 17 32 37 Q34 57 49 70 Q64 83 84 83 Q104 83 115 70 Q126 57 124 37 Z M323 37 Q320 17 304.5 4 Q289 -9 270 -9 Q250 -9 239 4 Q228 17 231 37 Q233 57 248 70 Q263 83 282 83 Q302 83 313.5 70 Q325 57 323 37 Z M521 37 Q518 17 502.5 4 Q487 -9 468 -9 Q448 -9 437 4 Q426 17 429 37 Q431 57 446 70 Q461 83 480 83 Q500 83 511.5 70 Q523 57 521 37 Z " />
<glyph glyph-name="dagger" unicode="&#x2020;" horiz-adv-x="510" d="M99 497 L264 497 L291 688 L351 688 L324 497 L489 497 L482 446 L318 446 L240 -108 L180 -108 L258 446 L92 446 L99 497 Z " />
<glyph glyph-name="daggerdbl" unicode="&#x2021;" horiz-adv-x="510" d="M98 497 L263 497 L290 688 L350 688 L323 497 L489 497 L482 446 L317 446 L284 207 L449 207 L441 156 L276 156 L239 -108 L179 -108 L216 156 L50 156 L58 207 L224 207 L257 446 L91 446 L98 497 Z " />
<glyph glyph-name="brokenbar" unicode="&#xa6;" horiz-adv-x="252" d="M122 414 L122 759 L171 759 L171 414 L122 414 Z M171 279 L171 -138 L122 -138 L122 279 L171 279 Z " />
<glyph glyph-name="divide" unicode="&#xf7;" horiz-adv-x="540" d="M344 432 Q342 414 327 401 Q312 388 295 388 Q277 388 266 401 Q255 414 257 432 Q260 450 274 462.5 Q288 475 306 475 Q325 475 336 462.5 Q347 450 344 432 Z M90 276 L97 323 L473 323 L466 276 L90 276 Z M307 164 Q304 146 289 133 Q274 120 257 120 Q239 120 228 133.5 Q217 147 220 164 Q222 182 236 194 Q250 206 268 206 Q287 206 298 194 Q309 182 307 164 Z " />
<glyph glyph-name="multiply" unicode="&#xd7;" horiz-adv-x="540" d="M278 259 Q243 229 209.5 199.5 Q176 170 141 139 L113 172 Q147 202 181 232 Q215 262 250 292 L148 410 L185 442 Q210 412 235 383 Q260 354 286 324 L418 441 L447 407 Q413 378 380.5 349 Q348 320 314 291 L415 174 L378 142 L278 259 L278 259 Z " />
<glyph glyph-name="cedilla" unicode="&#xb8;" horiz-adv-x="427" d="M281 -119 Q281 -141 270.5 -159 Q260 -177 242.5 -189.5 Q225 -202 203 -209 Q181 -216 157 -216 Q139 -216 120 -212 Q101 -208 84 -200 L103 -164 Q114 -169 129.5 -172 Q145 -175 160 -175 Q185 -175 206 -164.5 Q227 -154 227 -127 Q227 -109 212.5 -101 Q198 -93 180 -93 Q165 -93 149 -99 L121 -83 L187 30 L222 27 L176 -56 Q181 -54 189 -53.5 Q197 -53 204 -53 Q235 -53 258 -70 Q281 -87 281 -119 Z " />
<glyph glyph-name="macron" unicode="&#xaf;" horiz-adv-x="469" d="M151 600 L415 600 L408 552 L144 552 L151 600 Z " />
<glyph glyph-name="questiondown" unicode="&#xbf;" horiz-adv-x="492" d="M217 -246 Q181 -246 148 -236.5 Q115 -227 90 -208.5 Q65 -190 50 -162 Q35 -134 35 -97 Q35 -51 54.5 -13.5 Q74 24 103.5 54.5 Q133 85 167 111 Q201 137 230.5 161 Q260 185 279.5 208.5 Q299 232 299 258 Q299 277 292 292 L350 308 Q357 286 357 265 Q357 229 337.5 199.5 Q318 170 289 144.5 Q260 119 226 94 Q192 69 163 42.5 Q134 16 114.5 -15.5 Q95 -47 95 -86 Q95 -132 128.5 -162 Q162 -192 228 -192 Q264 -192 303 -180.5 Q342 -169 371 -152 L389 -195 Q353 -218 309 -232 Q265 -246 217 -246 Z M338 455 Q355 455 365.5 444.5 Q376 434 376 417 Q376 396 361.5 381 Q347 366 326 366 Q308 366 297.5 376.5 Q287 387 287 404 Q287 426 302.5 440.5 Q318 455 338 455 Z " />
<glyph glyph-name="exclamdown" unicode="&#xa1;" horiz-adv-x="274" d="M171 295 L104 -243 L42 -243 L129 295 L171 295 Z M210 411 Q208 392 193 379 Q178 366 159 366 Q140 366 129 379 Q118 392 120 411 Q123 430 138 443 Q153 456 172 456 Q190 456 201.5 443 Q213 430 210 411 Z " />
<glyph glyph-name="florin" unicode="&#x192;" horiz-adv-x="540" d="M173 399 L261 399 L278 494 Q293 582 331 626 Q369 670 438 670 Q452 670 468.5 667.5 Q485 665 505 658 L489 613 Q475 617 464 619 Q453 621 441 621 Q394 621 370 591 Q346 561 333 493 L316 399 L413 399 L411 356 L309 356 L275 169 Q262 95 247.5 46 Q233 -3 213.5 -32.5 Q194 -62 168.5 -74.5 Q143 -87 108 -87 Q89 -87 71.5 -83.5 Q54 -80 33 -72 L51 -22 Q83 -33 105 -33 Q132 -33 149 -22.5 Q166 -12 178.5 15.5 Q191 43 201.5 89.5 Q212 136 225 208 L252 356 L171 356 L173 399 Z " />
<glyph glyph-name="Iotadieresis" unicode="&#x3aa;" horiz-adv-x="248" d="M65 0 L158 662 L216 662 L123 0 L65 0 Z M161 795 Q159 778 147.5 768 Q136 758 120 758 Q103 758 94 768 Q85 778 87 795 Q89 809 102 820.5 Q115 832 130 832 Q146 832 154.5 821.5 Q163 811 161 795 Z M321 795 Q319 778 307.5 768 Q296 758 279 758 Q262 758 253.5 768 Q245 778 247 795 Q249 809 261.5 820.5 Q274 832 289 832 Q306 832 314.5 821.5 Q323 811 321 795 Z " />
<glyph glyph-name="Upsilondieresis" unicode="&#x3ab;" horiz-adv-x="540" d="M297 319 L533 662 L593 662 L316 265 L279 0 L221 0 L258 265 L73 662 L137 662 L293 319 L297 319 Z M317 772 Q315 755 303.5 745 Q292 735 276 735 Q259 735 250 745 Q241 755 243 772 Q245 786 258 797.5 Q271 809 286 809 Q302 809 310.5 798.5 Q319 788 317 772 Z M477 772 Q475 755 463.5 745 Q452 735 435 735 Q418 735 409.5 745 Q401 755 403 772 Q405 786 417.5 797.5 Q430 809 445 809 Q462 809 470.5 798.5 Q479 788 477 772 Z " />
<glyph glyph-name="bullet" unicode="&#x2022;" horiz-adv-x="469" d="M144 234 Q144 257 152.5 277 Q161 297 176 312 Q191 327 211 335.5 Q231 344 254 344 Q277 344 297 335.5 Q317 327 332 312 Q347 297 356 277 Q365 257 365 234 Q365 211 356 191 Q347 171 332 156 Q317 141 297 132.5 Q277 124 254 124 Q231 124 211 132.5 Q191 141 176 156 Q161 171 152.5 191 Q144 211 144 234 Z " />
<glyph glyph-name="Alphatonos" unicode="&#x386;" horiz-adv-x="612" d="M397 662 L567 0 L507 0 L465 161 L129 161 L44 0 L-15 0 L343 662 L397 662 Z M155 210 L453 210 L359 584 L355 584 L155 210 Z M211 661 L96 551 L47 551 L139 661 L211 661 Z " />
<glyph glyph-name="anoteleia" unicode="&#x387;" horiz-adv-x="192" d="M161 350 Q158 330 142.5 317 Q127 304 108 304 Q88 304 77 317 Q66 330 69 350 Q71 370 86 383 Q101 396 121 396 Q141 396 152 383 Q163 370 161 350 Z " />
<glyph glyph-name="Epsilontonos" unicode="&#x388;" horiz-adv-x="486" d="M425 0 L55 0 L148 662 L494 662 L486 610 L199 610 L166 371 L456 371 L448 319 L158 319 L121 53 L432 53 L425 0 Z M99 661 L-16 551 L-65 551 L27 661 L99 661 Z " />
<glyph glyph-name="Etatonos" unicode="&#x389;" horiz-adv-x="637" d="M465 0 L509 319 L157 319 L113 0 L55 0 L148 662 L206 662 L165 371 L517 371 L558 662 L615 662 L522 0 L465 0 Z M88 661 L-27 551 L-76 551 L16 661 L88 661 Z " />
<glyph glyph-name="Iotatonos" unicode="&#x38a;" horiz-adv-x="248" d="M65 0 L158 662 L216 662 L123 0 L65 0 Z M105 661 L-10 551 L-59 551 L33 661 L105 661 Z " />
<glyph glyph-name="Omicrontonos" unicode="&#x38c;" horiz-adv-x="787" d="M363 -10 Q291 -10 236 12 Q181 34 144 72 Q107 110 88 162.5 Q69 215 69 276 Q69 358 100.5 430.5 Q132 503 185.5 556.5 Q239 610 310 641 Q381 672 459 672 Q525 672 579.5 649.5 Q634 627 672.5 588 Q711 549 732 495.5 Q753 442 753 380 Q753 299 722 227.5 Q691 156 638 103.5 Q585 51 514 20.5 Q443 -10 363 -10 Z M451 619 Q383 619 324 592 Q265 565 221.5 519 Q178 473 153 411.5 Q128 350 128 281 Q128 229 144 185 Q160 141 191 109.5 Q222 78 267 60.5 Q312 43 371 43 Q440 43 499 70.5 Q558 98 601 143.5 Q644 189 668.5 249 Q693 309 693 375 Q693 427 676 471.5 Q659 516 627.5 549 Q596 582 551.5 600.5 Q507 619 451 619 Z M132 661 L17 551 L-32 551 L60 661 L132 661 Z " />
<glyph glyph-name="Upsilontonos" unicode="&#x38e;" horiz-adv-x="540" d="M297 319 L533 662 L593 662 L316 265 L279 0 L221 0 L258 265 L73 662 L137 662 L293 319 L297 319 Z M60 662 L-55 552 L-104 552 L-12 662 L60 662 Z " />
<glyph glyph-name="Omegatonos" unicode="&#x38f;" horiz-adv-x="779" d="M450 621 Q381 621 321 594 Q261 567 216.5 521 Q172 475 147 414 Q122 353 122 285 Q122 248 131 212.5 Q140 177 159.5 145.5 Q179 114 209.5 88.5 Q240 63 284 46 L278 0 L20 0 L27 53 L168 53 L169 57 Q117 92 90 151 Q63 210 63 280 Q63 363 96 435 Q129 507 184 560 Q239 613 310 643 Q381 673 457 673 Q522 673 576 651 Q630 629 668.5 590 Q707 551 728 498 Q749 445 749 383 Q749 333 736 285 Q723 237 699 194 Q675 151 641.5 116 Q608 81 567 57 L566 53 L706 53 L699 0 L442 0 L448 46 Q511 68 557 105 Q603 142 632.5 186.5 Q662 231 676 280.5 Q690 330 690 377 Q690 425 675 469.5 Q660 514 630 547.5 Q600 581 555 601 Q510 621 450 621 Z M124 661 L9 551 L-40 551 L52 661 L124 661 Z " />
<glyph glyph-name="omegatonos" unicode="&#x3ce;" horiz-adv-x="749" d="M394 163 Q390 138 395 115.5 Q400 93 412 76 Q424 59 443.5 49 Q463 39 489 39 Q524 39 552.5 57 Q581 75 601.5 105.5 Q622 136 633.5 175.5 Q645 215 645 257 Q645 317 615.5 358.5 Q586 400 529 406 L544 455 Q586 453 616 436.5 Q646 420 664.5 393.5 Q683 367 692 333 Q701 299 701 262 Q701 217 688 169.5 Q675 122 647.5 82 Q620 42 578.5 16.5 Q537 -9 480 -9 Q429 -9 397.5 15.5 Q366 40 355 73 L350 73 Q339 59 324 44.5 Q309 30 289.5 18 Q270 6 246 -1.5 Q222 -9 193 -9 Q155 -9 127.5 3.5 Q100 16 82 39 Q64 62 55.5 94 Q47 126 47 164 Q47 218 61.5 269 Q76 320 104.5 360.5 Q133 401 175 426.5 Q217 452 272 454 L276 407 Q234 403 202.5 382 Q171 361 149 328.5 Q127 296 116 255 Q105 214 105 171 Q105 112 129 75.5 Q153 39 206 39 Q237 39 260 50.5 Q283 62 299 80.5 Q315 99 324.5 122 Q334 145 337 167 L357 307 L415 307 L394 163 Z M542 635 L427 525 L378 525 L470 635 L542 635 Z " />
<glyph glyph-name="epsilontonos" unicode="&#x3ad;" horiz-adv-x="411" d="M391 635 L276 525 L227 525 L319 635 L391 635 Z M370 367 Q356 378 328.5 390 Q301 402 259 402 Q223 402 198.5 395 Q174 388 158.5 376.5 Q143 365 136.5 350 Q130 335 130 320 Q130 305 137 295 Q144 285 155 278.5 Q166 272 179.5 269.5 Q193 267 206 267 L280 267 L273 220 L213 220 Q181 220 158 211.5 Q135 203 119.5 188.5 Q104 174 96.5 155.5 Q89 137 89 117 Q89 85 116.5 63 Q144 41 210 41 Q237 41 271.5 49.5 Q306 58 344 81 L365 41 Q333 17 288 3.5 Q243 -10 196 -10 Q112 -10 71.5 23.5 Q31 57 31 105 Q31 132 40.5 154 Q50 176 64.5 192.5 Q79 209 96.5 220.5 Q114 232 130 238 L130 241 Q98 253 85 273.5 Q72 294 72 316 Q72 346 86 371 Q100 396 125.5 415 Q151 434 186 444.5 Q221 455 263 455 Q316 455 349.5 441.5 Q383 428 404 408 L370 367 Z " />
<glyph glyph-name="currency" unicode="&#xa4;" horiz-adv-x="540" d="M101 286 Q101 314 110.5 343.5 Q120 373 137 398 L86 450 L128 490 L178 438 Q204 456 231.5 466 Q259 476 289 476 Q320 476 349 465.5 Q378 455 402 437 L453 487 L493 448 L441 395 Q477 345 477 286 Q477 257 467.5 229 Q458 201 441 176 L494 125 L453 84 L401 134 Q376 117 348 107.5 Q320 98 289 98 Q259 98 231 107.5 Q203 117 177 134 L130 84 L88 125 L138 173 Q119 197 110 225.5 Q101 254 101 286 Z M153 285 Q153 257 163.5 232.5 Q174 208 192.5 189.5 Q211 171 235.5 160.5 Q260 150 288 150 Q316 150 341 160.5 Q366 171 384 189.5 Q402 208 412.5 232.5 Q423 257 423 285 Q423 313 412.5 338 Q402 363 384 382 Q366 401 341 411.5 Q316 422 288 422 Q260 422 235.5 411.5 Q211 401 192.5 382 Q174 363 163.5 338 Q153 313 153 285 Z " />
<glyph glyph-name="Oslash" unicode="&#xd8;" horiz-adv-x="787" d="M363 -10 Q303 -10 256 4 Q209 18 173 44 L132 0 L76 0 L141 70 Q104 108 85.5 159 Q67 210 67 271 Q67 353 99 426 Q131 499 185 553.5 Q239 608 310 640 Q381 672 459 672 Q516 672 563.5 656 Q611 640 647 611 L696 662 L751 662 L676 583 Q713 545 732.5 493.5 Q752 442 752 382 Q752 301 721 229.5 Q690 158 637 105 Q584 52 513 21 Q442 -10 363 -10 Z M451 619 Q383 619 324 592 Q265 565 221.5 518.5 Q178 472 153 410.5 Q128 349 128 280 Q128 230 142 188.5 Q156 147 185 116 L607 568 Q578 592 538.5 605.5 Q499 619 451 619 Z M214 89 Q244 67 283.5 55 Q323 43 371 43 Q440 43 499 70.5 Q558 98 601 143.5 Q644 189 668.5 249.5 Q693 310 693 376 Q693 424 678 466 Q663 508 636 540 L214 89 Z " />
<glyph glyph-name="oslash" unicode="&#xf8;" horiz-adv-x="550" d="M244 -10 Q202 -10 168.5 0.5 Q135 11 110 31 L78 0 L24 0 L84 57 Q63 82 53 113.5 Q43 145 43 182 Q43 238 64.5 287.5 Q86 337 122 374.5 Q158 412 206.5 433.5 Q255 455 309 455 Q351 455 385.5 442 Q420 429 446 406 L485 444 L538 444 L471 379 Q508 328 508 258 Q508 202 486.5 153.5 Q465 105 429 68.5 Q393 32 345 11 Q297 -10 244 -10 Z M303 407 Q259 407 222 389 Q185 371 158 341 Q131 311 116 271.5 Q101 232 101 189 Q101 163 107.5 140 Q114 117 125 98 L406 368 Q387 386 361 396.5 Q335 407 303 407 Z M150 70 Q169 55 194 46.5 Q219 38 251 38 Q295 38 331.5 55.5 Q368 73 394.5 103 Q421 133 436 171.5 Q451 210 451 252 Q451 300 429 339 L150 70 Z " />
<glyph glyph-name="ae" unicode="&#xe6;" horiz-adv-x="843" d="M753 52 Q742 44 725.5 33.5 Q709 23 686.5 13 Q664 3 636 -3.5 Q608 -10 574 -10 Q501 -10 452.5 20 Q404 50 384 104 Q362 69 336.5 46.5 Q311 24 284 11 Q257 -2 229.5 -6.5 Q202 -11 178 -11 Q134 -11 106 0 Q78 11 61 28 Q44 45 37.5 65.5 Q31 86 31 104 Q31 155 54 186.5 Q77 218 112.5 235.5 Q148 253 190 259 Q232 265 271 265 L374 265 L377 290 Q378 297 378.5 303 Q379 309 379 315 Q379 408 266 408 Q233 408 200.5 399.5 Q168 391 130 375 L121 417 Q139 426 160 433.5 Q181 441 202 446 Q223 451 242 453.5 Q261 456 276 456 Q344 456 384 431.5 Q424 407 433 360 Q468 404 517 429.5 Q566 455 623 455 Q666 455 699 440.5 Q732 426 754 401 Q776 376 787 342 Q798 308 798 269 Q798 255 797 238.5 Q796 222 791 208 L432 208 Q431 201 430.5 195 Q430 189 430 183 Q430 114 472.5 77.5 Q515 41 578 41 Q620 41 656 52 Q692 63 730 91 L753 52 Z M368 221 L270 221 Q241 221 209 216.5 Q177 212 150.5 200 Q124 188 106.5 166.5 Q89 145 89 111 Q89 74 119.5 56 Q150 38 197 38 Q234 38 263 51 Q292 64 313 85.5 Q334 107 346.5 135.5 Q359 164 364 195 L368 221 Z M617 405 Q584 405 555 394 Q526 383 503 363.5 Q480 344 463.5 316 Q447 288 439 254 L744 254 L744 265 Q744 329 711.5 367 Q679 405 617 405 Z " />
<glyph glyph-name="thorn" unicode="&#xfe;" horiz-adv-x="568" d="M99 65 L59 -215 L4 -215 L128 662 L184 662 L143 375 L148 374 Q184 415 232.5 435 Q281 455 329 455 Q377 455 414 441 Q451 427 476 402 Q501 377 514 341.5 Q527 306 527 264 Q527 208 505.5 158 Q484 108 447.5 70.5 Q411 33 362.5 11.5 Q314 -10 261 -10 Q212 -10 169 10 Q126 30 104 68 L99 65 Z M267 39 Q310 39 346.5 56.5 Q383 74 410 103.5 Q437 133 452.5 172.5 Q468 212 468 256 Q468 289 458.5 316.5 Q449 344 430 364.5 Q411 385 383.5 396.5 Q356 408 319 408 Q275 408 238 390 Q201 372 174.5 342 Q148 312 133 273.5 Q118 235 118 193 Q118 160 128 132 Q138 104 157 83.5 Q176 63 204 51 Q232 39 267 39 Z " />
<glyph glyph-name="Thorn" unicode="&#xde;" horiz-adv-x="563" d="M193 575 L346 575 Q399 575 438 560 Q477 545 503 520 Q529 495 541.5 461 Q554 427 554 390 Q554 329 530 282 Q506 235 467.5 203 Q429 171 380.5 154.5 Q332 138 282 138 L132 138 L113 0 L55 0 L148 662 L206 662 L193 575 Z M186 524 L139 190 L286 190 Q338 190 376.5 207.5 Q415 225 440.5 252.5 Q466 280 478.5 314.5 Q491 349 491 383 Q491 411 481.5 436.5 Q472 462 452 481.5 Q432 501 400 512.5 Q368 524 322 524 L186 524 Z " />
<glyph glyph-name="AE" unicode="&#xc6;" horiz-adv-x="853" d="M158 150 L44 0 L-20 0 L486 661 L853 661 L846 611 L567 611 L531 353 L820 353 L813 302 L524 302 L489 52 L799 52 L792 0 L423 0 L444 150 L158 150 Z M197 202 L451 202 L509 612 L197 202 Z " />
<glyph glyph-name="Eth" unicode="&#xd0;" horiz-adv-x="660" d="M55 0 L99 318 L36 318 L43 369 L106 369 L148 662 L349 662 Q414 662 465 643 Q516 624 551.5 588.5 Q587 553 605.5 503 Q624 453 624 391 Q624 304 597.5 232.5 Q571 161 523 109 Q475 57 409.5 28.5 Q344 0 266 0 L55 0 Z M198 610 L164 369 L363 369 L356 318 L157 318 L120 53 L269 53 Q340 53 395.5 78.5 Q451 104 489 149 Q527 194 547 255.5 Q567 317 567 389 Q567 436 554 476.5 Q541 517 513.5 546.5 Q486 576 443.5 593 Q401 610 342 610 L198 610 Z " />
<glyph glyph-name="cent" unicode="&#xa2;" horiz-adv-x="540" d="M262 75 Q181 82 139 132.5 Q97 183 97 262 Q97 321 115.5 369 Q134 417 165.5 452.5 Q197 488 238.5 509.5 Q280 531 327 537 L342 644 L390 644 L375 538 Q410 536 443 524.5 Q476 513 502 486 L466 447 Q438 471 407 478.5 Q376 486 351 486 Q319 486 284 473.5 Q249 461 220 434.5 Q191 408 172 367 Q153 326 153 270 Q153 200 194 162.5 Q235 125 303 125 Q345 125 380 138 Q415 151 441 168 L462 129 Q427 103 386.5 90 Q346 77 310 75 L295 -30 L247 -30 L262 75 Z " />
<glyph glyph-name="periodcentered" unicode="&#xb7;" horiz-adv-x="192" d="M147 250 Q144 230 128.5 217 Q113 204 94 204 Q74 204 63 217 Q52 230 55 250 Q57 270 72 283 Q87 296 107 296 Q127 296 138 283 Q149 270 147 250 Z " />
<glyph glyph-name="Scaron" unicode="&#x160;" horiz-adv-x="542" d="M328 672 Q353 672 380 668.5 Q407 665 432.5 656.5 Q458 648 481.5 634.5 Q505 621 524 600 L488 559 Q447 592 403 605 Q359 618 321 618 Q284 618 254 606.5 Q224 595 203 576 Q182 557 170.5 532 Q159 507 159 479 Q159 461 166 446 Q173 431 188.5 418.5 Q204 406 229.5 394.5 Q255 383 292 372 Q341 357 380 341.5 Q419 326 445 306.5 Q471 287 485 261.5 Q499 236 499 201 Q499 153 478.5 114 Q458 75 423 47.5 Q388 20 340 5 Q292 -10 238 -10 Q175 -10 115.5 8 Q56 26 14 68 L50 113 Q90 81 138 62.5 Q186 44 239 44 Q286 44 323 55.5 Q360 67 386 87 Q412 107 425.5 134 Q439 161 439 192 Q439 230 414 252.5 Q389 275 351.5 290 Q314 305 270 317 Q226 329 188.5 348 Q151 367 126 396.5 Q101 426 101 475 Q101 517 117.5 552.5 Q134 588 164 614.5 Q194 641 236 656.5 Q278 672 328 672 Z M311 728 L226 849 L292 849 L347 764 L428 849 L491 849 L368 728 L311 728 Z " />
<glyph glyph-name="Zcaron" unicode="&#x17d;" horiz-adv-x="513" d="M11 48 L459 610 L107 610 L115 662 L534 662 L527 614 L82 52 L455 52 L448 0 L5 0 L11 48 Z M313 728 L228 849 L294 849 L349 764 L430 849 L493 849 L370 728 L313 728 Z " />
<glyph glyph-name="scaron" unicode="&#x161;" horiz-adv-x="399" d="M227 455 Q264 455 303 443.5 Q342 432 371 402 L335 365 Q305 390 276.5 397.5 Q248 405 219 405 Q171 405 143.5 381 Q116 357 116 322 Q116 297 134.5 283 Q153 269 200 256 Q273 235 313 208.5 Q353 182 353 133 Q353 70 302 30 Q251 -10 163 -10 Q123 -10 77.5 2 Q32 14 1 46 L35 85 Q56 68 87 53.5 Q118 39 163 39 Q226 39 261.5 63.5 Q297 88 297 128 Q297 153 279.5 167.5 Q262 182 235.5 191.5 Q209 201 178 209 Q147 217 120.5 230 Q94 243 76.5 263.5 Q59 284 59 318 Q59 347 71.5 372 Q84 397 106 415.5 Q128 434 159 444.5 Q190 455 227 455 Z M214 532 L129 653 L194 653 L249 568 L330 653 L394 653 L271 532 L214 532 Z " />
<glyph glyph-name="zcaron" unicode="&#x17e;" horiz-adv-x="406" d="M6 44 L337 399 L72 399 L78 445 L408 445 L402 402 L72 46 L348 46 L342 0 L0 0 L6 44 Z M231 532 L146 653 L211 653 L266 568 L347 653 L411 653 L288 532 L231 532 Z " />
<glyph glyph-name="Ydieresis" unicode="&#x178;" horiz-adv-x="540" d="M297 319 L533 662 L593 662 L316 265 L279 0 L221 0 L258 265 L73 662 L137 662 L293 319 L297 319 Z M314 779 Q312 762 300.5 752 Q289 742 273 742 Q256 742 247 752 Q238 762 240 779 Q242 793 255 804.5 Q268 816 283 816 Q299 816 307.5 805.5 Q316 795 314 779 Z M474 779 Q472 762 460.5 752 Q449 742 432 742 Q415 742 406.5 752 Q398 762 400 779 Q402 793 414.5 804.5 Q427 816 442 816 Q459 816 467.5 805.5 Q476 795 474 779 Z " />
<glyph glyph-name="Agrave" unicode="&#xc0;" horiz-adv-x="612" d="M397 662 L567 0 L507 0 L465 161 L129 161 L44 0 L-15 0 L343 662 L397 662 Z M155 210 L453 210 L359 584 L355 584 L155 210 Z M343 832 L397 725 L348 725 L269 832 L343 832 Z " />
<glyph glyph-name="Aacute" unicode="&#xc1;" horiz-adv-x="612" d="M397 662 L567 0 L507 0 L465 161 L129 161 L44 0 L-15 0 L343 662 L397 662 Z M155 210 L453 210 L359 584 L355 584 L155 210 Z M517 832 L408 725 L359 725 L443 832 L517 832 Z " />
<glyph glyph-name="Acircumflex" unicode="&#xc2;" horiz-adv-x="612" d="M397 662 L567 0 L507 0 L465 161 L129 161 L44 0 L-15 0 L343 662 L397 662 Z M155 210 L453 210 L359 584 L355 584 L155 210 Z M428 844 L513 723 L447 723 L392 808 L311 723 L248 723 L371 844 L428 844 Z " />
<glyph glyph-name="Atilde" unicode="&#xc3;" horiz-adv-x="612" d="M397 662 L567 0 L507 0 L465 161 L129 161 L44 0 L-15 0 L343 662 L397 662 Z M155 210 L453 210 L359 584 L355 584 L155 210 Z M525 827 Q515 776 494.5 753 Q474 730 442 730 Q425 730 410 737.5 Q395 745 381 754.5 Q367 764 354 771.5 Q341 779 329 779 Q315 779 303.5 766.5 Q292 754 284 731 L243 731 Q251 761 262 780.5 Q273 800 285 810.5 Q297 821 309.5 825 Q322 829 334 829 Q351 829 366.5 821.5 Q382 814 395.5 805 Q409 796 422 788.5 Q435 781 447 781 Q458 781 468.5 788 Q479 795 487 827 L525 827 Z " />
<glyph glyph-name="Adieresis" unicode="&#xc4;" horiz-adv-x="612" d="M397 662 L567 0 L507 0 L465 161 L129 161 L44 0 L-15 0 L343 662 L397 662 Z M155 210 L453 210 L359 584 L355 584 L155 210 Z M346 795 Q344 778 332.5 768 Q321 758 305 758 Q288 758 279 768 Q270 778 272 795 Q274 809 287 820.5 Q300 832 315 832 Q331 832 339.5 821.5 Q348 811 346 795 Z M506 795 Q504 778 492.5 768 Q481 758 464 758 Q447 758 438.5 768 Q430 778 432 795 Q434 809 446.5 820.5 Q459 832 474 832 Q491 832 499.5 821.5 Q508 811 506 795 Z " />
<glyph glyph-name="Aring" unicode="&#xc5;" horiz-adv-x="612" d="M397 662 L567 0 L507 0 L465 161 L129 161 L44 0 L-15 0 L343 662 L397 662 Z M155 210 L453 210 L359 584 L355 584 L155 210 Z M374 698 Q332 698 313 722.5 Q294 747 299 783 Q304 821 333 846 Q362 871 398 871 Q436 871 457.5 846 Q479 821 474 783 Q469 747 440.5 722.5 Q412 698 374 698 Z M393 837 Q370 837 354 821 Q338 805 335 783 Q332 762 343 746.5 Q354 731 378 731 Q403 731 419 747 Q435 763 438 783 Q441 805 429 821 Q417 837 393 837 Z " />
<glyph glyph-name="Ccedilla" unicode="&#xc7;" horiz-adv-x="630" d="M424 -124 Q424 -146 413.5 -164 Q403 -182 385.5 -194.5 Q368 -207 346 -214 Q324 -221 300 -221 Q282 -221 263 -217 Q244 -213 227 -205 L246 -169 Q257 -174 272.5 -177 Q288 -180 303 -180 Q328 -180 349 -169.5 Q370 -159 370 -132 Q370 -114 355.5 -106 Q341 -98 323 -98 Q308 -98 292 -104 L264 -88 L311 -8 Q254 -2 208.5 20.5 Q163 43 131.5 80 Q100 117 83.5 166 Q67 215 67 274 Q67 363 99 437 Q131 511 184.5 563.5 Q238 616 306.5 645 Q375 674 449 674 Q501 674 551.5 659.5 Q602 645 646 606 L608 561 Q567 595 525.5 606.5 Q484 618 442 618 Q392 618 336.5 597.5 Q281 577 234.5 535 Q188 493 158 429 Q128 365 128 278 Q128 226 144 183 Q160 140 190 109.5 Q220 79 263 62.5 Q306 46 359 46 Q413 46 464 61.5 Q515 77 565 110 L588 65 Q531 23 468 6.5 Q405 -10 351 -10 L347 -10 L319 -61 Q324 -59 332 -58.5 Q340 -58 347 -58 Q378 -58 401 -75 Q424 -92 424 -124 Z " />
<glyph glyph-name="Egrave" unicode="&#xc8;" horiz-adv-x="486" d="M425 0 L55 0 L148 662 L494 662 L486 610 L199 610 L166 371 L456 371 L448 319 L158 319 L121 53 L432 53 L425 0 Z M330 832 L384 725 L335 725 L256 832 L330 832 Z " />
<glyph glyph-name="Eacute" unicode="&#xc9;" horiz-adv-x="486" d="M425 0 L55 0 L148 662 L494 662 L486 610 L199 610 L166 371 L456 371 L448 319 L158 319 L121 53 L432 53 L425 0 Z M457 832 L348 725 L299 725 L383 832 L457 832 Z " />
<glyph glyph-name="Ecircumflex" unicode="&#xca;" horiz-adv-x="486" d="M425 0 L55 0 L148 662 L494 662 L486 610 L199 610 L166 371 L456 371 L448 319 L158 319 L121 53 L432 53 L425 0 Z M387 849 L472 728 L406 728 L351 813 L270 728 L207 728 L330 849 L387 849 Z " />
<glyph glyph-name="Edieresis" unicode="&#xcb;" horiz-adv-x="486" d="M425 0 L55 0 L148 662 L494 662 L486 610 L199 610 L166 371 L456 371 L448 319 L158 319 L121 53 L432 53 L425 0 Z M304 795 Q302 778 290.5 768 Q279 758 263 758 Q246 758 237 768 Q228 778 230 795 Q232 809 245 820.5 Q258 832 273 832 Q289 832 297.5 821.5 Q306 811 304 795 Z M464 795 Q462 778 450.5 768 Q439 758 422 758 Q405 758 396.5 768 Q388 778 390 795 Q392 809 404.5 820.5 Q417 832 432 832 Q449 832 457.5 821.5 Q466 811 464 795 Z " />
<glyph glyph-name="Igrave" unicode="&#xcc;" horiz-adv-x="248" d="M65 0 L158 662 L216 662 L123 0 L65 0 Z M166 832 L220 725 L171 725 L92 832 L166 832 Z " />
<glyph glyph-name="Iacute" unicode="&#xcd;" horiz-adv-x="248" d="M65 0 L158 662 L216 662 L123 0 L65 0 Z M331 832 L222 725 L173 725 L257 832 L331 832 Z " />
<glyph glyph-name="Icircumflex" unicode="&#xce;" horiz-adv-x="248" d="M65 0 L158 662 L216 662 L123 0 L65 0 Z M244 849 L329 728 L263 728 L208 813 L127 728 L64 728 L187 849 L244 849 Z " />
<glyph glyph-name="Idieresis" unicode="&#xcf;" horiz-adv-x="248" d="M65 0 L158 662 L216 662 L123 0 L65 0 Z M162 795 Q160 778 148.5 768 Q137 758 121 758 Q104 758 95 768 Q86 778 88 795 Q90 809 103 820.5 Q116 832 131 832 Q147 832 155.5 821.5 Q164 811 162 795 Z M322 795 Q320 778 308.5 768 Q297 758 280 758 Q263 758 254.5 768 Q246 778 248 795 Q250 809 262.5 820.5 Q275 832 290 832 Q307 832 315.5 821.5 Q324 811 322 795 Z " />
<glyph glyph-name="Ntilde" unicode="&#xd1;" horiz-adv-x="721" d="M555 0 L193 568 L190 568 L111 0 L55 0 L148 662 L201 662 L559 98 L563 98 L643 662 L699 662 L606 0 L555 0 Z M586 827 Q576 776 555.5 753 Q535 730 503 730 Q486 730 471 737.5 Q456 745 442 754.5 Q428 764 415 771.5 Q402 779 390 779 Q376 779 364.5 766.5 Q353 754 345 731 L304 731 Q312 761 323 780.5 Q334 800 346 810.5 Q358 821 370.5 825 Q383 829 395 829 Q412 829 427.5 821.5 Q443 814 456.5 805 Q470 796 483 788.5 Q496 781 508 781 Q519 781 529.5 788 Q540 795 548 827 L586 827 Z " />
<glyph glyph-name="Ograve" unicode="&#xd2;" horiz-adv-x="787" d="M363 -10 Q291 -10 236 12 Q181 34 144 72 Q107 110 88 162.5 Q69 215 69 276 Q69 358 100.5 430.5 Q132 503 185.5 556.5 Q239 610 310 641 Q381 672 459 672 Q525 672 579.5 649.5 Q634 627 672.5 588 Q711 549 732 495.5 Q753 442 753 380 Q753 299 722 227.5 Q691 156 638 103.5 Q585 51 514 20.5 Q443 -10 363 -10 Z M451 619 Q383 619 324 592 Q265 565 221.5 519 Q178 473 153 411.5 Q128 350 128 281 Q128 229 144 185 Q160 141 191 109.5 Q222 78 267 60.5 Q312 43 371 43 Q440 43 499 70.5 Q558 98 601 143.5 Q644 189 668.5 249 Q693 309 693 375 Q693 427 676 471.5 Q659 516 627.5 549 Q596 582 551.5 600.5 Q507 619 451 619 Z M451 832 L505 725 L456 725 L377 832 L451 832 Z " />
<glyph glyph-name="Oacute" unicode="&#xd3;" horiz-adv-x="787" d="M363 -10 Q291 -10 236 12 Q181 34 144 72 Q107 110 88 162.5 Q69 215 69 276 Q69 358 100.5 430.5 Q132 503 185.5 556.5 Q239 610 310 641 Q381 672 459 672 Q525 672 579.5 649.5 Q634 627 672.5 588 Q711 549 732 495.5 Q753 442 753 380 Q753 299 722 227.5 Q691 156 638 103.5 Q585 51 514 20.5 Q443 -10 363 -10 Z M451 619 Q383 619 324 592 Q265 565 221.5 519 Q178 473 153 411.5 Q128 350 128 281 Q128 229 144 185 Q160 141 191 109.5 Q222 78 267 60.5 Q312 43 371 43 Q440 43 499 70.5 Q558 98 601 143.5 Q644 189 668.5 249 Q693 309 693 375 Q693 427 676 471.5 Q659 516 627.5 549 Q596 582 551.5 600.5 Q507 619 451 619 Z M586 832 L477 725 L428 725 L512 832 L586 832 Z " />
<glyph glyph-name="Ocircumflex" unicode="&#xd4;" horiz-adv-x="787" d="M363 -10 Q291 -10 236 12 Q181 34 144 72 Q107 110 88 162.5 Q69 215 69 276 Q69 358 100.5 430.5 Q132 503 185.5 556.5 Q239 610 310 641 Q381 672 459 672 Q525 672 579.5 649.5 Q634 627 672.5 588 Q711 549 732 495.5 Q753 442 753 380 Q753 299 722 227.5 Q691 156 638 103.5 Q585 51 514 20.5 Q443 -10 363 -10 Z M451 619 Q383 619 324 592 Q265 565 221.5 519 Q178 473 153 411.5 Q128 350 128 281 Q128 229 144 185 Q160 141 191 109.5 Q222 78 267 60.5 Q312 43 371 43 Q440 43 499 70.5 Q558 98 601 143.5 Q644 189 668.5 249 Q693 309 693 375 Q693 427 676 471.5 Q659 516 627.5 549 Q596 582 551.5 600.5 Q507 619 451 619 Z M516 849 L601 728 L535 728 L480 813 L399 728 L336 728 L459 849 L516 849 Z " />
<glyph glyph-name="Otilde" unicode="&#xd5;" horiz-adv-x="787" d="M363 -10 Q291 -10 236 12 Q181 34 144 72 Q107 110 88 162.5 Q69 215 69 276 Q69 358 100.5 430.5 Q132 503 185.5 556.5 Q239 610 310 641 Q381 672 459 672 Q525 672 579.5 649.5 Q634 627 672.5 588 Q711 549 732 495.5 Q753 442 753 380 Q753 299 722 227.5 Q691 156 638 103.5 Q585 51 514 20.5 Q443 -10 363 -10 Z M451 619 Q383 619 324 592 Q265 565 221.5 519 Q178 473 153 411.5 Q128 350 128 281 Q128 229 144 185 Q160 141 191 109.5 Q222 78 267 60.5 Q312 43 371 43 Q440 43 499 70.5 Q558 98 601 143.5 Q644 189 668.5 249 Q693 309 693 375 Q693 427 676 471.5 Q659 516 627.5 549 Q596 582 551.5 600.5 Q507 619 451 619 Z M612 830 Q602 779 581.5 756 Q561 733 529 733 Q512 733 497 740.5 Q482 748 468 757.5 Q454 767 441 774.5 Q428 782 416 782 Q402 782 390.5 769.5 Q379 757 371 734 L330 734 Q338 764 349 783.5 Q360 803 372 813.5 Q384 824 396.5 828 Q409 832 421 832 Q438 832 453.5 824.5 Q469 817 482.5 808 Q496 799 509 791.5 Q522 784 534 784 Q545 784 555.5 791 Q566 798 574 830 L612 830 Z " />
<glyph glyph-name="Odieresis" unicode="&#xd6;" horiz-adv-x="787" d="M363 -10 Q291 -10 236 12 Q181 34 144 72 Q107 110 88 162.5 Q69 215 69 276 Q69 358 100.5 430.5 Q132 503 185.5 556.5 Q239 610 310 641 Q381 672 459 672 Q525 672 579.5 649.5 Q634 627 672.5 588 Q711 549 732 495.5 Q753 442 753 380 Q753 299 722 227.5 Q691 156 638 103.5 Q585 51 514 20.5 Q443 -10 363 -10 Z M451 619 Q383 619 324 592 Q265 565 221.5 519 Q178 473 153 411.5 Q128 350 128 281 Q128 229 144 185 Q160 141 191 109.5 Q222 78 267 60.5 Q312 43 371 43 Q440 43 499 70.5 Q558 98 601 143.5 Q644 189 668.5 249 Q693 309 693 375 Q693 427 676 471.5 Q659 516 627.5 549 Q596 582 551.5 600.5 Q507 619 451 619 Z M432 795 Q430 778 418.5 768 Q407 758 391 758 Q374 758 365 768 Q356 778 358 795 Q360 809 373 820.5 Q386 832 401 832 Q417 832 425.5 821.5 Q434 811 432 795 Z M592 795 Q590 778 578.5 768 Q567 758 550 758 Q533 758 524.5 768 Q516 778 518 795 Q520 809 532.5 820.5 Q545 832 560 832 Q577 832 585.5 821.5 Q594 811 592 795 Z " />
<glyph glyph-name="Ugrave" unicode="&#xd9;" horiz-adv-x="676" d="M597 662 L654 662 L594 240 Q586 186 563 140 Q540 94 503 61 Q466 28 416 9 Q366 -10 306 -10 Q246 -10 201.5 8 Q157 26 129 59 Q101 92 91 138.5 Q81 185 89 242 L148 662 L205 662 L147 250 Q141 208 147 170.5 Q153 133 173 105 Q193 77 228 60.5 Q263 44 314 44 Q365 44 404 59.5 Q443 75 470.5 102 Q498 129 515 166 Q532 203 538 246 L597 662 Z M402 832 L456 725 L407 725 L328 832 L402 832 Z " />
<glyph glyph-name="Uacute" unicode="&#xda;" horiz-adv-x="676" d="M597 662 L654 662 L594 240 Q586 186 563 140 Q540 94 503 61 Q466 28 416 9 Q366 -10 306 -10 Q246 -10 201.5 8 Q157 26 129 59 Q101 92 91 138.5 Q81 185 89 242 L148 662 L205 662 L147 250 Q141 208 147 170.5 Q153 133 173 105 Q193 77 228 60.5 Q263 44 314 44 Q365 44 404 59.5 Q443 75 470.5 102 Q498 129 515 166 Q532 203 538 246 L597 662 Z M530 832 L421 725 L372 725 L456 832 L530 832 Z " />
<glyph glyph-name="Ucircumflex" unicode="&#xdb;" horiz-adv-x="676" d="M597 662 L654 662 L594 240 Q586 186 563 140 Q540 94 503 61 Q466 28 416 9 Q366 -10 306 -10 Q246 -10 201.5 8 Q157 26 129 59 Q101 92 91 138.5 Q81 185 89 242 L148 662 L205 662 L147 250 Q141 208 147 170.5 Q153 133 173 105 Q193 77 228 60.5 Q263 44 314 44 Q365 44 404 59.5 Q443 75 470.5 102 Q498 129 515 166 Q532 203 538 246 L597 662 Z M463 849 L548 728 L482 728 L427 813 L346 728 L283 728 L406 849 L463 849 Z " />
<glyph glyph-name="Udieresis" unicode="&#xdc;" horiz-adv-x="676" d="M597 662 L654 662 L594 240 Q586 186 563 140 Q540 94 503 61 Q466 28 416 9 Q366 -10 306 -10 Q246 -10 201.5 8 Q157 26 129 59 Q101 92 91 138.5 Q81 185 89 242 L148 662 L205 662 L147 250 Q141 208 147 170.5 Q153 133 173 105 Q193 77 228 60.5 Q263 44 314 44 Q365 44 404 59.5 Q443 75 470.5 102 Q498 129 515 166 Q532 203 538 246 L597 662 Z M376 795 Q374 778 362.5 768 Q351 758 335 758 Q318 758 309 768 Q300 778 302 795 Q304 809 317 820.5 Q330 832 345 832 Q361 832 369.5 821.5 Q378 811 376 795 Z M536 795 Q534 778 522.5 768 Q511 758 494 758 Q477 758 468.5 768 Q460 778 462 795 Q464 809 476.5 820.5 Q489 832 504 832 Q521 832 529.5 821.5 Q538 811 536 795 Z " />
<glyph glyph-name="Yacute" unicode="&#xdd;" horiz-adv-x="540" d="M297 319 L533 662 L593 662 L316 265 L279 0 L221 0 L258 265 L73 662 L137 662 L293 319 L297 319 Z M469 825 L360 718 L311 718 L395 825 L469 825 Z " />
<glyph glyph-name="agrave" unicode="&#xe0;" horiz-adv-x="579" d="M313 453 Q361 453 404 433 Q447 413 468 376 L470 377 L480 445 L536 445 L474 0 L418 0 L427 70 L425 71 Q390 30 342.5 10 Q295 -10 247 -10 Q199 -10 162 4.5 Q125 19 100 45 Q75 71 62 107 Q49 143 49 185 Q49 242 70 291 Q91 340 127 376 Q163 412 211 432.5 Q259 453 313 453 Z M307 404 Q263 404 226 386.5 Q189 369 162.5 339 Q136 309 121 270 Q106 231 106 188 Q106 155 115.5 127.5 Q125 100 144 80 Q163 60 191 49 Q219 38 256 38 Q299 38 335.5 55.5 Q372 73 398.5 102.5 Q425 132 440 170.5 Q455 209 455 251 Q455 283 445 311 Q435 339 416 359.5 Q397 380 369.5 392 Q342 404 307 404 Z M324 627 L379 525 L330 525 L253 627 L324 627 Z " />
<glyph glyph-name="aacute" unicode="&#xe1;" horiz-adv-x="579" d="M313 453 Q361 453 404 433 Q447 413 468 376 L470 377 L480 445 L536 445 L474 0 L418 0 L427 70 L425 71 Q390 30 342.5 10 Q295 -10 247 -10 Q199 -10 162 4.5 Q125 19 100 45 Q75 71 62 107 Q49 143 49 185 Q49 242 70 291 Q91 340 127 376 Q163 412 211 432.5 Q259 453 313 453 Z M307 404 Q263 404 226 386.5 Q189 369 162.5 339 Q136 309 121 270 Q106 231 106 188 Q106 155 115.5 127.5 Q125 100 144 80 Q163 60 191 49 Q219 38 256 38 Q299 38 335.5 55.5 Q372 73 398.5 102.5 Q425 132 440 170.5 Q455 209 455 251 Q455 283 445 311 Q435 339 416 359.5 Q397 380 369.5 392 Q342 404 307 404 Z M442 627 L335 525 L286 525 L371 627 L442 627 Z " />
<glyph glyph-name="acircumflex" unicode="&#xe2;" horiz-adv-x="579" d="M313 453 Q361 453 404 433 Q447 413 468 376 L470 377 L480 445 L536 445 L474 0 L418 0 L427 70 L425 71 Q390 30 342.5 10 Q295 -10 247 -10 Q199 -10 162 4.5 Q125 19 100 45 Q75 71 62 107 Q49 143 49 185 Q49 242 70 291 Q91 340 127 376 Q163 412 211 432.5 Q259 453 313 453 Z M307 404 Q263 404 226 386.5 Q189 369 162.5 339 Q136 309 121 270 Q106 231 106 188 Q106 155 115.5 127.5 Q125 100 144 80 Q163 60 191 49 Q219 38 256 38 Q299 38 335.5 55.5 Q372 73 398.5 102.5 Q425 132 440 170.5 Q455 209 455 251 Q455 283 445 311 Q435 339 416 359.5 Q397 380 369.5 392 Q342 404 307 404 Z M379 650 L464 529 L398 529 L343 614 L262 529 L199 529 L322 650 L379 650 Z " />
<glyph glyph-name="atilde" unicode="&#xe3;" horiz-adv-x="579" d="M313 453 Q361 453 404 433 Q447 413 468 376 L470 377 L480 445 L536 445 L474 0 L418 0 L427 70 L425 71 Q390 30 342.5 10 Q295 -10 247 -10 Q199 -10 162 4.5 Q125 19 100 45 Q75 71 62 107 Q49 143 49 185 Q49 242 70 291 Q91 340 127 376 Q163 412 211 432.5 Q259 453 313 453 Z M307 404 Q263 404 226 386.5 Q189 369 162.5 339 Q136 309 121 270 Q106 231 106 188 Q106 155 115.5 127.5 Q125 100 144 80 Q163 60 191 49 Q219 38 256 38 Q299 38 335.5 55.5 Q372 73 398.5 102.5 Q425 132 440 170.5 Q455 209 455 251 Q455 283 445 311 Q435 339 416 359.5 Q397 380 369.5 392 Q342 404 307 404 Z M478 641 Q468 590 447.5 567 Q427 544 395 544 Q378 544 363 551.5 Q348 559 334 568.5 Q320 578 307 585.5 Q294 593 282 593 Q268 593 256.5 580.5 Q245 568 237 545 L196 545 Q204 575 215 594.5 Q226 614 238 624.5 Q250 635 262.5 639 Q275 643 287 643 Q304 643 319.5 635.5 Q335 628 348.5 619 Q362 610 375 602.5 Q388 595 400 595 Q411 595 421.5 602 Q432 609 440 641 L478 641 Z " />
<glyph glyph-name="adieresis" unicode="&#xe4;" horiz-adv-x="579" d="M313 453 Q361 453 404 433 Q447 413 468 376 L470 377 L480 445 L536 445 L474 0 L418 0 L427 70 L425 71 Q390 30 342.5 10 Q295 -10 247 -10 Q199 -10 162 4.5 Q125 19 100 45 Q75 71 62 107 Q49 143 49 185 Q49 242 70 291 Q91 340 127 376 Q163 412 211 432.5 Q259 453 313 453 Z M307 404 Q263 404 226 386.5 Q189 369 162.5 339 Q136 309 121 270 Q106 231 106 188 Q106 155 115.5 127.5 Q125 100 144 80 Q163 60 191 49 Q219 38 256 38 Q299 38 335.5 55.5 Q372 73 398.5 102.5 Q425 132 440 170.5 Q455 209 455 251 Q455 283 445 311 Q435 339 416 359.5 Q397 380 369.5 392 Q342 404 307 404 Z M297 586 Q295 569 283.5 559 Q272 549 256 549 Q239 549 230 559 Q221 569 223 586 Q225 600 238 611.5 Q251 623 266 623 Q282 623 290.5 612.5 Q299 602 297 586 Z M457 586 Q455 569 443.5 559 Q432 549 415 549 Q398 549 389.5 559 Q381 569 383 586 Q385 600 397.5 611.5 Q410 623 425 623 Q442 623 450.5 612.5 Q459 602 457 586 Z " />
<glyph glyph-name="aring" unicode="&#xe5;" horiz-adv-x="579" d="M313 453 Q361 453 404 433 Q447 413 468 376 L470 377 L480 445 L536 445 L474 0 L418 0 L427 70 L425 71 Q390 30 342.5 10 Q295 -10 247 -10 Q199 -10 162 4.5 Q125 19 100 45 Q75 71 62 107 Q49 143 49 185 Q49 242 70 291 Q91 340 127 376 Q163 412 211 432.5 Q259 453 313 453 Z M307 404 Q263 404 226 386.5 Q189 369 162.5 339 Q136 309 121 270 Q106 231 106 188 Q106 155 115.5 127.5 Q125 100 144 80 Q163 60 191 49 Q219 38 256 38 Q299 38 335.5 55.5 Q372 73 398.5 102.5 Q425 132 440 170.5 Q455 209 455 251 Q455 283 445 311 Q435 339 416 359.5 Q397 380 369.5 392 Q342 404 307 404 Z M331 514 Q289 514 270 538.5 Q251 563 256 599 Q261 637 290 662 Q319 687 355 687 Q393 687 414.5 662 Q436 637 431 599 Q426 563 397.5 538.5 Q369 514 331 514 Z M350 653 Q327 653 311 637 Q295 621 292 599 Q289 578 300 562.5 Q311 547 335 547 Q360 547 376 563 Q392 579 395 599 Q398 621 386 637 Q374 653 350 653 Z " />
<glyph glyph-name="ccedilla" unicode="&#xe7;" horiz-adv-x="459" d="M315 -120 Q315 -142 304.5 -160 Q294 -178 276.5 -190.5 Q259 -203 237 -210 Q215 -217 191 -217 Q173 -217 154 -213 Q135 -209 118 -201 L137 -165 Q148 -170 163.5 -173 Q179 -176 194 -176 Q219 -176 240 -165.5 Q261 -155 261 -128 Q261 -110 246.5 -102 Q232 -94 214 -94 Q199 -94 183 -100 L155 -84 L200 -7 Q126 4 87.5 53 Q49 102 49 177 Q49 240 70.5 291.5 Q92 343 128 379.5 Q164 416 210.5 435.5 Q257 455 308 455 Q347 455 386 444 Q425 433 454 402 L419 363 Q390 387 359 394.5 Q328 402 303 402 Q271 402 236 389.5 Q201 377 172 350.5 Q143 324 124 283 Q105 242 105 186 Q105 116 146 78.5 Q187 41 255 41 Q297 41 332 54 Q367 67 393 84 L414 45 Q374 14 326 2 Q278 -10 239 -10 L236 -10 L210 -57 Q215 -55 223 -54.5 Q231 -54 238 -54 Q269 -54 292 -71 Q315 -88 315 -120 Z " />
<glyph glyph-name="egrave" unicode="&#xe8;" horiz-adv-x="519" d="M429 52 Q418 44 401.5 33.5 Q385 23 362.5 13 Q340 3 312 -3.5 Q284 -10 250 -10 Q153 -10 100.5 43.5 Q48 97 48 186 Q48 243 68 292 Q88 341 122 377.5 Q156 414 201.5 434.5 Q247 455 299 455 Q342 455 375 440.5 Q408 426 430 401 Q452 376 463 342 Q474 308 474 269 Q474 255 473 238.5 Q472 222 467 208 L108 208 Q107 201 106.5 195 Q106 189 106 183 Q106 114 148.5 77.5 Q191 41 254 41 Q296 41 332 52 Q368 63 406 91 L429 52 Z M293 405 Q260 405 231 394 Q202 383 179 363.5 Q156 344 139.5 316 Q123 288 115 254 L420 254 L420 265 Q420 329 387.5 367 Q355 405 293 405 Z M298 627 L353 525 L304 525 L227 627 L298 627 Z " />
<glyph glyph-name="eacute" unicode="&#xe9;" horiz-adv-x="519" d="M429 52 Q418 44 401.5 33.5 Q385 23 362.5 13 Q340 3 312 -3.5 Q284 -10 250 -10 Q153 -10 100.5 43.5 Q48 97 48 186 Q48 243 68 292 Q88 341 122 377.5 Q156 414 201.5 434.5 Q247 455 299 455 Q342 455 375 440.5 Q408 426 430 401 Q452 376 463 342 Q474 308 474 269 Q474 255 473 238.5 Q472 222 467 208 L108 208 Q107 201 106.5 195 Q106 189 106 183 Q106 114 148.5 77.5 Q191 41 254 41 Q296 41 332 52 Q368 63 406 91 L429 52 Z M293 405 Q260 405 231 394 Q202 383 179 363.5 Q156 344 139.5 316 Q123 288 115 254 L420 254 L420 265 Q420 329 387.5 367 Q355 405 293 405 Z M428 627 L321 525 L272 525 L357 627 L428 627 Z " />
<glyph glyph-name="ecircumflex" unicode="&#xea;" horiz-adv-x="519" d="M429 52 Q418 44 401.5 33.5 Q385 23 362.5 13 Q340 3 312 -3.5 Q284 -10 250 -10 Q153 -10 100.5 43.5 Q48 97 48 186 Q48 243 68 292 Q88 341 122 377.5 Q156 414 201.5 434.5 Q247 455 299 455 Q342 455 375 440.5 Q408 426 430 401 Q452 376 463 342 Q474 308 474 269 Q474 255 473 238.5 Q472 222 467 208 L108 208 Q107 201 106.5 195 Q106 189 106 183 Q106 114 148.5 77.5 Q191 41 254 41 Q296 41 332 52 Q368 63 406 91 L429 52 Z M293 405 Q260 405 231 394 Q202 383 179 363.5 Q156 344 139.5 316 Q123 288 115 254 L420 254 L420 265 Q420 329 387.5 367 Q355 405 293 405 Z M359 650 L444 529 L378 529 L323 614 L242 529 L179 529 L302 650 L359 650 Z " />
<glyph glyph-name="edieresis" unicode="&#xeb;" horiz-adv-x="519" d="M429 52 Q418 44 401.5 33.5 Q385 23 362.5 13 Q340 3 312 -3.5 Q284 -10 250 -10 Q153 -10 100.5 43.5 Q48 97 48 186 Q48 243 68 292 Q88 341 122 377.5 Q156 414 201.5 434.5 Q247 455 299 455 Q342 455 375 440.5 Q408 426 430 401 Q452 376 463 342 Q474 308 474 269 Q474 255 473 238.5 Q472 222 467 208 L108 208 Q107 201 106.5 195 Q106 189 106 183 Q106 114 148.5 77.5 Q191 41 254 41 Q296 41 332 52 Q368 63 406 91 L429 52 Z M293 405 Q260 405 231 394 Q202 383 179 363.5 Q156 344 139.5 316 Q123 288 115 254 L420 254 L420 265 Q420 329 387.5 367 Q355 405 293 405 Z M434 586 Q432 569 420.5 559 Q409 549 392 549 Q375 549 366.5 559 Q358 569 360 586 Q362 600 374.5 611.5 Q387 623 402 623 Q419 623 427.5 612.5 Q436 602 434 586 Z M274 586 Q272 569 260.5 559 Q249 549 233 549 Q216 549 207 559 Q198 569 200 586 Q202 600 215 611.5 Q228 623 243 623 Q259 623 267.5 612.5 Q276 602 274 586 Z " />
<glyph glyph-name="dotlessi" unicode="&#x131;" horiz-adv-x="227" d="M54 0 L116 445 L173 445 L111 0 L54 0 Z " />
<glyph glyph-name="igrave" unicode="&#xec;" horiz-adv-x="227" d="M126 627 L181 525 L132 525 L55 627 L126 627 Z M54 0 L116 445 L173 445 L111 0 L54 0 Z " />
<glyph glyph-name="iacute" unicode="&#xed;" horiz-adv-x="227" d="M285 627 L178 525 L129 525 L214 627 L285 627 Z M54 0 L116 445 L173 445 L111 0 L54 0 Z " />
<glyph glyph-name="icircumflex" unicode="&#xee;" horiz-adv-x="227" d="M54 0 L116 445 L173 445 L111 0 L54 0 Z M204 650 L289 529 L223 529 L168 614 L87 529 L24 529 L147 650 L204 650 Z " />
<glyph glyph-name="idieresis" unicode="&#xef;" horiz-adv-x="227" d="M124 586 Q122 569 110.5 559 Q99 549 83 549 Q66 549 57 559 Q48 569 50 586 Q52 600 65 611.5 Q78 623 93 623 Q109 623 117.5 612.5 Q126 602 124 586 Z M284 586 Q282 569 270.5 559 Q259 549 242 549 Q225 549 216.5 559 Q208 569 210 586 Q212 600 224.5 611.5 Q237 623 252 623 Q269 623 277.5 612.5 Q286 602 284 586 Z M54 0 L116 445 L173 445 L111 0 L54 0 Z " />
<glyph glyph-name="ntilde" unicode="&#xf1;" horiz-adv-x="535" d="M373 0 L408 255 Q418 325 394 365 Q370 405 313 405 Q282 405 252.5 394.5 Q223 384 199 362.5 Q175 341 157.5 308 Q140 275 134 230 L102 0 L45 0 L107 445 L160 445 L151 378 L155 378 Q197 423 239 439 Q281 455 323 455 Q407 455 443 405 Q479 355 467 266 L430 0 L373 0 Z M459 639 Q449 588 428.5 565 Q408 542 376 542 Q359 542 344 549.5 Q329 557 315 566.5 Q301 576 288 583.5 Q275 591 263 591 Q249 591 237.5 578.5 Q226 566 218 543 L177 543 Q185 573 196 592.5 Q207 612 219 622.5 Q231 633 243.5 637 Q256 641 268 641 Q285 641 300.5 633.5 Q316 626 329.5 617 Q343 608 356 600.5 Q369 593 381 593 Q392 593 402.5 600 Q413 607 421 639 L459 639 Z " />
<glyph glyph-name="ograve" unicode="&#xf2;" horiz-adv-x="560" d="M249 -10 Q200 -10 163 5 Q126 20 100.5 46 Q75 72 62 108 Q49 144 49 186 Q49 242 70.5 291 Q92 340 128 376.5 Q164 413 212 434 Q260 455 314 455 Q359 455 396 440 Q433 425 459 399 Q485 373 499 336.5 Q513 300 513 258 Q513 203 491.5 154 Q470 105 434 68.5 Q398 32 350 11 Q302 -10 249 -10 Z M308 407 Q264 407 227 389 Q190 371 163 341 Q136 311 121 271.5 Q106 232 106 189 Q106 156 115.5 128.5 Q125 101 144 81 Q163 61 191 49.5 Q219 38 256 38 Q300 38 337 56 Q374 74 400.5 103.5 Q427 133 441.5 172 Q456 211 456 253 Q456 285 446 313 Q436 341 417 362 Q398 383 370.5 395 Q343 407 308 407 Z M314 627 L369 525 L320 525 L243 627 L314 627 Z " />
<glyph glyph-name="oacute" unicode="&#xf3;" horiz-adv-x="560" d="M249 -10 Q200 -10 163 5 Q126 20 100.5 46 Q75 72 62 108 Q49 144 49 186 Q49 242 70.5 291 Q92 340 128 376.5 Q164 413 212 434 Q260 455 314 455 Q359 455 396 440 Q433 425 459 399 Q485 373 499 336.5 Q513 300 513 258 Q513 203 491.5 154 Q470 105 434 68.5 Q398 32 350 11 Q302 -10 249 -10 Z M308 407 Q264 407 227 389 Q190 371 163 341 Q136 311 121 271.5 Q106 232 106 189 Q106 156 115.5 128.5 Q125 101 144 81 Q163 61 191 49.5 Q219 38 256 38 Q300 38 337 56 Q374 74 400.5 103.5 Q427 133 441.5 172 Q456 211 456 253 Q456 285 446 313 Q436 341 417 362 Q398 383 370.5 395 Q343 407 308 407 Z M435 627 L328 525 L279 525 L364 627 L435 627 Z " />
<glyph glyph-name="ocircumflex" unicode="&#xf4;" horiz-adv-x="560" d="M249 -10 Q200 -10 163 5 Q126 20 100.5 46 Q75 72 62 108 Q49 144 49 186 Q49 242 70.5 291 Q92 340 128 376.5 Q164 413 212 434 Q260 455 314 455 Q359 455 396 440 Q433 425 459 399 Q485 373 499 336.5 Q513 300 513 258 Q513 203 491.5 154 Q470 105 434 68.5 Q398 32 350 11 Q302 -10 249 -10 Z M308 407 Q264 407 227 389 Q190 371 163 341 Q136 311 121 271.5 Q106 232 106 189 Q106 156 115.5 128.5 Q125 101 144 81 Q163 61 191 49.5 Q219 38 256 38 Q300 38 337 56 Q374 74 400.5 103.5 Q427 133 441.5 172 Q456 211 456 253 Q456 285 446 313 Q436 341 417 362 Q398 383 370.5 395 Q343 407 308 407 Z M377 650 L462 529 L396 529 L341 614 L260 529 L197 529 L320 650 L377 650 Z " />
<glyph glyph-name="otilde" unicode="&#xf5;" horiz-adv-x="560" d="M249 -10 Q200 -10 163 5 Q126 20 100.5 46 Q75 72 62 108 Q49 144 49 186 Q49 242 70.5 291 Q92 340 128 376.5 Q164 413 212 434 Q260 455 314 455 Q359 455 396 440 Q433 425 459 399 Q485 373 499 336.5 Q513 300 513 258 Q513 203 491.5 154 Q470 105 434 68.5 Q398 32 350 11 Q302 -10 249 -10 Z M308 407 Q264 407 227 389 Q190 371 163 341 Q136 311 121 271.5 Q106 232 106 189 Q106 156 115.5 128.5 Q125 101 144 81 Q163 61 191 49.5 Q219 38 256 38 Q300 38 337 56 Q374 74 400.5 103.5 Q427 133 441.5 172 Q456 211 456 253 Q456 285 446 313 Q436 341 417 362 Q398 383 370.5 395 Q343 407 308 407 Z M473 639 Q463 588 442.5 565 Q422 542 390 542 Q373 542 358 549.5 Q343 557 329 566.5 Q315 576 302 583.5 Q289 591 277 591 Q263 591 251.5 578.5 Q240 566 232 543 L191 543 Q199 573 210 592.5 Q221 612 233 622.5 Q245 633 257.5 637 Q270 641 282 641 Q299 641 314.5 633.5 Q330 626 343.5 617 Q357 608 370 600.5 Q383 593 395 593 Q406 593 416.5 600 Q427 607 435 639 L473 639 Z " />
<glyph glyph-name="odieresis" unicode="&#xf6;" horiz-adv-x="560" d="M249 -10 Q200 -10 163 5 Q126 20 100.5 46 Q75 72 62 108 Q49 144 49 186 Q49 242 70.5 291 Q92 340 128 376.5 Q164 413 212 434 Q260 455 314 455 Q359 455 396 440 Q433 425 459 399 Q485 373 499 336.5 Q513 300 513 258 Q513 203 491.5 154 Q470 105 434 68.5 Q398 32 350 11 Q302 -10 249 -10 Z M308 407 Q264 407 227 389 Q190 371 163 341 Q136 311 121 271.5 Q106 232 106 189 Q106 156 115.5 128.5 Q125 101 144 81 Q163 61 191 49.5 Q219 38 256 38 Q300 38 337 56 Q374 74 400.5 103.5 Q427 133 441.5 172 Q456 211 456 253 Q456 285 446 313 Q436 341 417 362 Q398 383 370.5 395 Q343 407 308 407 Z M289 586 Q287 569 275.5 559 Q264 549 248 549 Q231 549 222 559 Q213 569 215 586 Q217 600 230 611.5 Q243 623 258 623 Q274 623 282.5 612.5 Q291 602 289 586 Z M449 586 Q447 569 435.5 559 Q424 549 407 549 Q390 549 381.5 559 Q373 569 375 586 Q377 600 389.5 611.5 Q402 623 417 623 Q434 623 442.5 612.5 Q451 602 449 586 Z " />
<glyph glyph-name="ugrave" unicode="&#xf9;" horiz-adv-x="521" d="M163 445 L126 184 Q106 41 216 41 Q247 41 275.5 51.5 Q304 62 327 83 Q350 104 366.5 137 Q383 170 389 215 L421 445 L478 445 L416 0 L362 0 L370 64 Q370 65 368 65 Q329 25 290.5 7.5 Q252 -10 209 -10 Q124 -10 90 36.5 Q56 83 69 172 L107 445 L163 445 Z M302 627 L357 525 L308 525 L231 627 L302 627 Z " />
<glyph glyph-name="uacute" unicode="&#xfa;" horiz-adv-x="521" d="M163 445 L126 184 Q106 41 216 41 Q247 41 275.5 51.5 Q304 62 327 83 Q350 104 366.5 137 Q383 170 389 215 L421 445 L478 445 L416 0 L362 0 L370 64 Q370 65 368 65 Q329 25 290.5 7.5 Q252 -10 209 -10 Q124 -10 90 36.5 Q56 83 69 172 L107 445 L163 445 Z M430 627 L323 525 L274 525 L359 627 L430 627 Z " />
<glyph glyph-name="ucircumflex" unicode="&#xfb;" horiz-adv-x="521" d="M163 445 L126 184 Q106 41 216 41 Q247 41 275.5 51.5 Q304 62 327 83 Q350 104 366.5 137 Q383 170 389 215 L421 445 L478 445 L416 0 L362 0 L370 64 Q370 65 368 65 Q329 25 290.5 7.5 Q252 -10 209 -10 Q124 -10 90 36.5 Q56 83 69 172 L107 445 L163 445 Z M355 650 L440 529 L374 529 L319 614 L238 529 L175 529 L298 650 L355 650 Z " />
<glyph glyph-name="udieresis" unicode="&#xfc;" horiz-adv-x="521" d="M163 445 L126 184 Q106 41 216 41 Q247 41 275.5 51.5 Q304 62 327 83 Q350 104 366.5 137 Q383 170 389 215 L421 445 L478 445 L416 0 L362 0 L370 64 Q370 65 368 65 Q329 25 290.5 7.5 Q252 -10 209 -10 Q124 -10 90 36.5 Q56 83 69 172 L107 445 L163 445 Z M268 586 Q266 569 254.5 559 Q243 549 227 549 Q210 549 201 559 Q192 569 194 586 Q196 600 209 611.5 Q222 623 237 623 Q253 623 261.5 612.5 Q270 602 268 586 Z M428 586 Q426 569 414.5 559 Q403 549 386 549 Q369 549 360.5 559 Q352 569 354 586 Q356 600 368.5 611.5 Q381 623 396 623 Q413 623 421.5 612.5 Q430 602 428 586 Z " />
<glyph glyph-name="yacute" unicode="&#xfd;" horiz-adv-x="452" d="M56 -215 L177 0 L153 0 Q127 114 100 223 Q73 332 47 445 L107 445 L198 43 L201 43 L412 445 L469 445 L115 -215 L56 -215 Z M390 624 L283 522 L234 522 L319 624 L390 624 Z " />
<glyph glyph-name="ydieresis" unicode="&#xff;" horiz-adv-x="452" d="M56 -215 L177 0 L153 0 Q127 114 100 223 Q73 332 47 445 L107 445 L198 43 L201 43 L412 445 L469 445 L115 -215 L56 -215 Z M233 574 Q231 557 219.5 547 Q208 537 192 537 Q175 537 166 547 Q157 557 159 574 Q161 588 174 599.5 Q187 611 202 611 Q218 611 226.5 600.5 Q235 590 233 574 Z M393 574 Q391 557 379.5 547 Q368 537 351 537 Q334 537 325.5 547 Q317 557 319 574 Q321 588 333.5 599.5 Q346 611 361 611 Q378 611 386.5 600.5 Q395 590 393 574 Z " />
<glyph glyph-name="dollar" unicode="&#x24;" horiz-adv-x="540" d="M213 -5 Q162 -2 115.5 15.5 Q69 33 36 71 L70 111 Q133 53 221 45 L260 321 Q233 331 207.5 343.5 Q182 356 162.5 373 Q143 390 131 414.5 Q119 439 119 473 Q119 512 133 545 Q147 578 172.5 603 Q198 628 232.5 643.5 Q267 659 308 663 L322 763 L368 763 L354 663 Q393 659 434 643.5 Q475 628 506 594 L472 557 Q442 584 410 596.5 Q378 609 347 612 L312 361 Q352 347 383 332 Q414 317 435 298.5 Q456 280 466.5 256 Q477 232 477 201 Q477 151 458.5 113.5 Q440 76 409 50.5 Q378 25 339 11.5 Q300 -2 260 -5 L246 -103 L199 -103 L213 -5 Z M422 190 Q422 214 412.5 232 Q403 250 386.5 263.5 Q370 277 349 286.5 Q328 296 304 305 L268 46 Q341 54 381.5 94.5 Q422 135 422 190 Z M173 474 Q173 440 195 417.5 Q217 395 268 376 L301 612 Q271 608 247.5 595.5 Q224 583 207.5 564 Q191 545 182 522 Q173 499 173 474 Z " />
<glyph glyph-name="Amacron" unicode="&#x100;" horiz-adv-x="612" d="M397 662 L567 0 L507 0 L465 161 L129 161 L44 0 L-15 0 L343 662 L397 662 Z M155 210 L453 210 L359 584 L355 584 L155 210 Z M251 813 L530 813 L523 762 L244 762 L251 813 Z " />
<glyph glyph-name="amacron" unicode="&#x101;" horiz-adv-x="579" d="M313 453 Q361 453 404 433 Q447 413 468 376 L470 377 L480 445 L536 445 L474 0 L418 0 L427 70 L425 71 Q390 30 342.5 10 Q295 -10 247 -10 Q199 -10 162 4.5 Q125 19 100 45 Q75 71 62 107 Q49 143 49 185 Q49 242 70 291 Q91 340 127 376 Q163 412 211 432.5 Q259 453 313 453 Z M307 404 Q263 404 226 386.5 Q189 369 162.5 339 Q136 309 121 270 Q106 231 106 188 Q106 155 115.5 127.5 Q125 100 144 80 Q163 60 191 49 Q219 38 256 38 Q299 38 335.5 55.5 Q372 73 398.5 102.5 Q425 132 440 170.5 Q455 209 455 251 Q455 283 445 311 Q435 339 416 359.5 Q397 380 369.5 392 Q342 404 307 404 Z M207 600 L471 600 L464 552 L200 552 L207 600 Z " />
<glyph glyph-name="Abreve" unicode="&#x102;" horiz-adv-x="612" d="M397 662 L567 0 L507 0 L465 161 L129 161 L44 0 L-15 0 L343 662 L397 662 Z M155 210 L453 210 L359 584 L355 584 L155 210 Z M510 845 Q505 823 494.5 801.5 Q484 780 467.5 763.5 Q451 747 429 736.5 Q407 726 379 726 Q353 726 334 736 Q315 746 303 762.5 Q291 779 285.5 800.5 Q280 822 281 845 L329 845 Q326 812 341 791.5 Q356 771 386 771 Q421 771 438 793 Q455 815 463 845 L510 845 Z " />
<glyph glyph-name="abreve" unicode="&#x103;" horiz-adv-x="579" d="M313 453 Q361 453 404 433 Q447 413 468 376 L470 377 L480 445 L536 445 L474 0 L418 0 L427 70 L425 71 Q390 30 342.5 10 Q295 -10 247 -10 Q199 -10 162 4.5 Q125 19 100 45 Q75 71 62 107 Q49 143 49 185 Q49 242 70 291 Q91 340 127 376 Q163 412 211 432.5 Q259 453 313 453 Z M307 404 Q263 404 226 386.5 Q189 369 162.5 339 Q136 309 121 270 Q106 231 106 188 Q106 155 115.5 127.5 Q125 100 144 80 Q163 60 191 49 Q219 38 256 38 Q299 38 335.5 55.5 Q372 73 398.5 102.5 Q425 132 440 170.5 Q455 209 455 251 Q455 283 445 311 Q435 339 416 359.5 Q397 380 369.5 392 Q342 404 307 404 Z M466 649 Q461 627 450 605.5 Q439 584 422.5 567.5 Q406 551 384 540.5 Q362 530 334 530 Q308 530 289 540 Q270 550 258 566.5 Q246 583 241 604.5 Q236 626 237 649 L283 649 Q280 616 295.5 594.5 Q311 573 341 573 Q376 573 394.5 596 Q413 619 421 649 L466 649 Z " />
<glyph glyph-name="Aogonek" unicode="&#x104;" horiz-adv-x="612" d="M397 662 L567 0 L510 0 Q465 -32 439 -67 Q413 -102 410 -128 Q406 -154 417.5 -164 Q429 -174 449 -174 Q472 -174 493 -167 Q514 -160 531 -152 L542 -185 Q519 -198 488.5 -206.5 Q458 -215 430 -215 Q396 -215 372.5 -198.5 Q349 -182 355 -140 Q356 -130 363.5 -111.5 Q371 -93 387.5 -71 Q404 -49 431.5 -24.5 Q459 0 501 22 L465 161 L129 161 L44 0 L-15 0 L343 662 L397 662 Z M155 210 L453 210 L359 584 L355 584 L155 210 Z " />
<glyph glyph-name="aogonek" unicode="&#x105;" horiz-adv-x="579" d="M313 453 Q361 453 404 433 Q447 413 468 376 L470 377 L480 445 L536 445 L474 0 L455 0 Q407 -32 380 -68.5 Q353 -105 350 -131 Q346 -157 357.5 -167 Q369 -177 389 -177 Q412 -177 433 -170 Q454 -163 471 -155 L482 -188 Q459 -201 428.5 -209.5 Q398 -218 370 -218 Q336 -218 312.5 -201.5 Q289 -185 295 -143 Q296 -133 302.5 -116.5 Q309 -100 323 -80 Q337 -60 360.5 -37.5 Q384 -15 419 6 L427 70 L425 71 Q390 30 342.5 10 Q295 -10 247 -10 Q199 -10 162 4.5 Q125 19 100 45 Q75 71 62 107 Q49 143 49 185 Q49 242 70 291 Q91 340 127 376 Q163 412 211 432.5 Q259 453 313 453 Z M307 404 Q263 404 226 386.5 Q189 369 162.5 339 Q136 309 121 270 Q106 231 106 188 Q106 155 115.5 127.5 Q125 100 144 80 Q163 60 191 49 Q219 38 256 38 Q299 38 335.5 55.5 Q372 73 398.5 102.5 Q425 132 440 170.5 Q455 209 455 251 Q455 283 445 311 Q435 339 416 359.5 Q397 380 369.5 392 Q342 404 307 404 Z " />
<glyph glyph-name="Cacute" unicode="&#x106;" horiz-adv-x="630" d="M449 674 Q501 674 551.5 659.5 Q602 645 646 606 L608 561 Q567 595 525.5 606.5 Q484 618 442 618 Q392 618 336.5 597.5 Q281 577 234.5 535 Q188 493 158 429 Q128 365 128 278 Q128 226 144 183 Q160 140 190 109.5 Q220 79 263 62.5 Q306 46 359 46 Q413 46 464 61.5 Q515 77 565 110 L588 65 Q531 23 468 6.5 Q405 -10 351 -10 Q285 -10 232.5 10.5 Q180 31 143 68.5 Q106 106 86.5 158 Q67 210 67 274 Q67 363 99 437 Q131 511 184.5 563.5 Q238 616 306.5 645 Q375 674 449 674 Z M565 832 L456 725 L407 725 L491 832 L565 832 Z " />
<glyph glyph-name="cacute" unicode="&#x107;" horiz-adv-x="459" d="M308 455 Q347 455 386 444 Q425 433 454 402 L419 363 Q390 387 359 394.5 Q328 402 303 402 Q271 402 236 389.5 Q201 377 172 350.5 Q143 324 124 283 Q105 242 105 186 Q105 116 146 78.5 Q187 41 255 41 Q297 41 332 54 Q367 67 393 84 L414 45 Q374 14 326 2 Q278 -10 239 -10 Q147 -10 98 41.5 Q49 93 49 177 Q49 240 70.5 291.5 Q92 343 128 379.5 Q164 416 210.5 435.5 Q257 455 308 455 Z M424 627 L317 525 L268 525 L353 627 L424 627 Z " />
<glyph glyph-name="Ccircumflex" unicode="&#x108;" horiz-adv-x="630" d="M449 674 Q501 674 551.5 659.5 Q602 645 646 606 L608 561 Q567 595 525.5 606.5 Q484 618 442 618 Q392 618 336.5 597.5 Q281 577 234.5 535 Q188 493 158 429 Q128 365 128 278 Q128 226 144 183 Q160 140 190 109.5 Q220 79 263 62.5 Q306 46 359 46 Q413 46 464 61.5 Q515 77 565 110 L588 65 Q531 23 468 6.5 Q405 -10 351 -10 Q285 -10 232.5 10.5 Q180 31 143 68.5 Q106 106 86.5 158 Q67 210 67 274 Q67 363 99 437 Q131 511 184.5 563.5 Q238 616 306.5 645 Q375 674 449 674 Z M504 849 L589 728 L523 728 L468 813 L387 728 L324 728 L447 849 L504 849 Z " />
<glyph glyph-name="ccircumflex" unicode="&#x109;" horiz-adv-x="459" d="M308 455 Q347 455 386 444 Q425 433 454 402 L419 363 Q390 387 359 394.5 Q328 402 303 402 Q271 402 236 389.5 Q201 377 172 350.5 Q143 324 124 283 Q105 242 105 186 Q105 116 146 78.5 Q187 41 255 41 Q297 41 332 54 Q367 67 393 84 L414 45 Q374 14 326 2 Q278 -10 239 -10 Q147 -10 98 41.5 Q49 93 49 177 Q49 240 70.5 291.5 Q92 343 128 379.5 Q164 416 210.5 435.5 Q257 455 308 455 Z M364 650 L449 529 L383 529 L328 614 L247 529 L184 529 L307 650 L364 650 Z " />
<glyph glyph-name="Cdotaccent" unicode="&#x10a;" horiz-adv-x="630" d="M449 674 Q501 674 551.5 659.5 Q602 645 646 606 L608 561 Q567 595 525.5 606.5 Q484 618 442 618 Q392 618 336.5 597.5 Q281 577 234.5 535 Q188 493 158 429 Q128 365 128 278 Q128 226 144 183 Q160 140 190 109.5 Q220 79 263 62.5 Q306 46 359 46 Q413 46 464 61.5 Q515 77 565 110 L588 65 Q531 23 468 6.5 Q405 -10 351 -10 Q285 -10 232.5 10.5 Q180 31 143 68.5 Q106 106 86.5 158 Q67 210 67 274 Q67 363 99 437 Q131 511 184.5 563.5 Q238 616 306.5 645 Q375 674 449 674 Z M501 799 Q499 782 487 771.5 Q475 761 458 761 Q441 761 431.5 771.5 Q422 782 424 799 Q426 814 439.5 826 Q453 838 469 838 Q486 838 494.5 827 Q503 816 501 799 Z " />
<glyph glyph-name="cdotaccent" unicode="&#x10b;" horiz-adv-x="459" d="M308 455 Q347 455 386 444 Q425 433 454 402 L419 363 Q390 387 359 394.5 Q328 402 303 402 Q271 402 236 389.5 Q201 377 172 350.5 Q143 324 124 283 Q105 242 105 186 Q105 116 146 78.5 Q187 41 255 41 Q297 41 332 54 Q367 67 393 84 L414 45 Q374 14 326 2 Q278 -10 239 -10 Q147 -10 98 41.5 Q49 93 49 177 Q49 240 70.5 291.5 Q92 343 128 379.5 Q164 416 210.5 435.5 Q257 455 308 455 Z M362 589 Q360 572 348 561.5 Q336 551 319 551 Q302 551 292.5 561.5 Q283 572 285 589 Q287 604 300.5 616 Q314 628 330 628 Q347 628 355.5 617 Q364 606 362 589 Z " />
<glyph glyph-name="Ccaron" unicode="&#x10c;" horiz-adv-x="630" d="M449 674 Q501 674 551.5 659.5 Q602 645 646 606 L608 561 Q567 595 525.5 606.5 Q484 618 442 618 Q392 618 336.5 597.5 Q281 577 234.5 535 Q188 493 158 429 Q128 365 128 278 Q128 226 144 183 Q160 140 190 109.5 Q220 79 263 62.5 Q306 46 359 46 Q413 46 464 61.5 Q515 77 565 110 L588 65 Q531 23 468 6.5 Q405 -10 351 -10 Q285 -10 232.5 10.5 Q180 31 143 68.5 Q106 106 86.5 158 Q67 210 67 274 Q67 363 99 437 Q131 511 184.5 563.5 Q238 616 306.5 645 Q375 674 449 674 Z M426 728 L341 849 L407 849 L462 764 L543 849 L606 849 L483 728 L426 728 Z " />
<glyph glyph-name="ccaron" unicode="&#x10d;" horiz-adv-x="459" d="M308 455 Q347 455 386 444 Q425 433 454 402 L419 363 Q390 387 359 394.5 Q328 402 303 402 Q271 402 236 389.5 Q201 377 172 350.5 Q143 324 124 283 Q105 242 105 186 Q105 116 146 78.5 Q187 41 255 41 Q297 41 332 54 Q367 67 393 84 L414 45 Q374 14 326 2 Q278 -10 239 -10 Q147 -10 98 41.5 Q49 93 49 177 Q49 240 70.5 291.5 Q92 343 128 379.5 Q164 416 210.5 435.5 Q257 455 308 455 Z M290 532 L205 653 L270 653 L325 568 L406 653 L470 653 L347 532 L290 532 Z " />
<glyph glyph-name="Dcaron" unicode="&#x10e;" horiz-adv-x="660" d="M198 610 L120 53 L269 53 Q340 53 395.5 78.5 Q451 104 489 149 Q527 194 547 255.5 Q567 317 567 389 Q567 436 554 476.5 Q541 517 513.5 546.5 Q486 576 443.5 593 Q401 610 342 610 L198 610 Z M55 0 L148 662 L349 662 Q414 662 465 642.5 Q516 623 551.5 587.5 Q587 552 605.5 501.5 Q624 451 624 390 Q624 303 597.5 231 Q571 159 523 108 Q475 57 409.5 28.5 Q344 0 266 0 L55 0 Z M338 728 L253 849 L319 849 L374 764 L455 849 L518 849 L395 728 L338 728 Z " />
<glyph glyph-name="dcaron" unicode="&#x10f;" horiz-adv-x="636" d="M475 380 L515 662 L570 662 L477 0 L422 0 L431 71 L428 72 Q392 30 343.5 10 Q295 -10 247 -10 Q199 -10 162 4.5 Q125 19 99.5 45.5 Q74 72 61 108 Q48 144 48 187 Q48 244 69 293 Q90 342 126 378 Q162 414 210.5 434.5 Q259 455 313 455 Q362 455 405.5 435 Q449 415 471 378 L475 380 Z M308 407 Q264 407 227 389 Q190 371 163 341 Q136 311 121 271.5 Q106 232 106 189 Q106 156 115.5 128.5 Q125 101 144 81 Q163 61 191 49.5 Q219 38 256 38 Q300 38 337 56 Q374 74 400.5 103.5 Q427 133 441.5 172 Q456 211 456 253 Q456 285 446 313 Q436 341 417 362 Q398 383 370.5 395 Q343 407 308 407 Z M600 504 Q626 518 645 543 Q664 568 668 591 Q664 590 660.5 590 Q657 590 655 590 Q640 590 630 599 Q620 608 622 628 Q624 644 637.5 656.5 Q651 669 669 669 Q692 669 699.5 651.5 Q707 634 704 610 Q702 595 695 577 Q688 559 676 541 Q664 523 647 508 Q630 493 609 484 L600 504 Z " />
<glyph glyph-name="Dcroat" unicode="&#x110;" horiz-adv-x="660" d="M55 0 L99 318 L36 318 L43 369 L106 369 L148 662 L349 662 Q414 662 465 642.5 Q516 623 551.5 587 Q587 551 605.5 500.5 Q624 450 624 389 Q624 302 597.5 230 Q571 158 523 107 Q475 56 409.5 28 Q344 0 266 0 L55 0 Z M198 610 L164 369 L363 369 L356 318 L157 318 L120 53 L269 53 Q340 53 395.5 78.5 Q451 104 489 149 Q527 194 547 255.5 Q567 317 567 389 Q567 436 554 476.5 Q541 517 513.5 546.5 Q486 576 443.5 593 Q401 610 342 610 L198 610 Z " />
<glyph glyph-name="dcroat" unicode="&#x111;" horiz-adv-x="572" d="M475 380 L496 533 L336 533 L343 581 L503 581 L515 662 L570 662 L558 581 L617 581 L610 533 L552 533 L477 0 L422 0 L431 71 L428 72 Q392 30 343.5 10 Q295 -10 247 -10 Q199 -10 162 4.5 Q125 19 99.5 45.5 Q74 72 61 108 Q48 144 48 187 Q48 244 69 293 Q90 342 126 378 Q162 414 210.5 434.5 Q259 455 313 455 Q362 455 405.5 435 Q449 415 471 378 L475 380 Z M308 407 Q264 407 227 389 Q190 371 163 341 Q136 311 121 271.5 Q106 232 106 189 Q106 156 115.5 128.5 Q125 101 144 81 Q163 61 191 49.5 Q219 38 256 38 Q300 38 337 56 Q374 74 400.5 103.5 Q427 133 441.5 172 Q456 211 456 253 Q456 285 446 313 Q436 341 417 362 Q398 383 370.5 395 Q343 407 308 407 Z " />
<glyph glyph-name="Emacron" unicode="&#x112;" horiz-adv-x="486" d="M425 0 L55 0 L148 662 L494 662 L486 610 L199 610 L166 371 L456 371 L448 319 L158 319 L121 53 L432 53 L425 0 Z M215 818 L494 818 L487 767 L208 767 L215 818 Z " />
<glyph glyph-name="emacron" unicode="&#x113;" horiz-adv-x="519" d="M429 52 Q418 44 401.5 33.5 Q385 23 362.5 13 Q340 3 312 -3.5 Q284 -10 250 -10 Q153 -10 100.5 43.5 Q48 97 48 186 Q48 243 68 292 Q88 341 122 377.5 Q156 414 201.5 434.5 Q247 455 299 455 Q342 455 375 440.5 Q408 426 430 401 Q452 376 463 342 Q474 308 474 269 Q474 255 473 238.5 Q472 222 467 208 L108 208 Q107 201 106.5 195 Q106 189 106 183 Q106 114 148.5 77.5 Q191 41 254 41 Q296 41 332 52 Q368 63 406 91 L429 52 Z M293 405 Q260 405 231 394 Q202 383 179 363.5 Q156 344 139.5 316 Q123 288 115 254 L420 254 L420 265 Q420 329 387.5 367 Q355 405 293 405 Z M192 600 L456 600 L449 552 L185 552 L192 600 Z " />
<glyph glyph-name="Ebreve" unicode="&#x114;" horiz-adv-x="486" d="M425 0 L55 0 L148 662 L494 662 L486 610 L199 610 L166 371 L456 371 L448 319 L158 319 L121 53 L432 53 L425 0 Z M479 845 Q474 823 463.5 801.5 Q453 780 436.5 763.5 Q420 747 398 736.5 Q376 726 348 726 Q322 726 303 736 Q284 746 272 762.5 Q260 779 254.5 800.5 Q249 822 250 845 L298 845 Q295 812 310 791.5 Q325 771 355 771 Q390 771 407 793 Q424 815 432 845 L479 845 Z " />
<glyph glyph-name="ebreve" unicode="&#x115;" horiz-adv-x="519" d="M429 52 Q418 44 401.5 33.5 Q385 23 362.5 13 Q340 3 312 -3.5 Q284 -10 250 -10 Q153 -10 100.5 43.5 Q48 97 48 186 Q48 243 68 292 Q88 341 122 377.5 Q156 414 201.5 434.5 Q247 455 299 455 Q342 455 375 440.5 Q408 426 430 401 Q452 376 463 342 Q474 308 474 269 Q474 255 473 238.5 Q472 222 467 208 L108 208 Q107 201 106.5 195 Q106 189 106 183 Q106 114 148.5 77.5 Q191 41 254 41 Q296 41 332 52 Q368 63 406 91 L429 52 Z M293 405 Q260 405 231 394 Q202 383 179 363.5 Q156 344 139.5 316 Q123 288 115 254 L420 254 L420 265 Q420 329 387.5 367 Q355 405 293 405 Z M445 649 Q440 627 429 605.5 Q418 584 401.5 567.5 Q385 551 363 540.5 Q341 530 313 530 Q287 530 268 540 Q249 550 237 566.5 Q225 583 220 604.5 Q215 626 216 649 L262 649 Q259 616 274.5 594.5 Q290 573 320 573 Q355 573 373.5 596 Q392 619 400 649 L445 649 Z " />
<glyph glyph-name="Edotaccent" unicode="&#x116;" horiz-adv-x="486" d="M425 0 L55 0 L148 662 L494 662 L486 610 L199 610 L166 371 L456 371 L448 319 L158 319 L121 53 L432 53 L425 0 Z M393 799 Q391 782 379 771.5 Q367 761 350 761 Q333 761 323.5 771.5 Q314 782 316 799 Q318 814 331.5 826 Q345 838 361 838 Q378 838 386.5 827 Q395 816 393 799 Z " />
<glyph glyph-name="edotaccent" unicode="&#x117;" horiz-adv-x="519" d="M429 52 Q418 44 401.5 33.5 Q385 23 362.5 13 Q340 3 312 -3.5 Q284 -10 250 -10 Q153 -10 100.5 43.5 Q48 97 48 186 Q48 243 68 292 Q88 341 122 377.5 Q156 414 201.5 434.5 Q247 455 299 455 Q342 455 375 440.5 Q408 426 430 401 Q452 376 463 342 Q474 308 474 269 Q474 255 473 238.5 Q472 222 467 208 L108 208 Q107 201 106.5 195 Q106 189 106 183 Q106 114 148.5 77.5 Q191 41 254 41 Q296 41 332 52 Q368 63 406 91 L429 52 Z M293 405 Q260 405 231 394 Q202 383 179 363.5 Q156 344 139.5 316 Q123 288 115 254 L420 254 L420 265 Q420 329 387.5 367 Q355 405 293 405 Z M355 589 Q353 572 341 561.5 Q329 551 312 551 Q295 551 285.5 561.5 Q276 572 278 589 Q280 604 293.5 616 Q307 628 323 628 Q340 628 348.5 617 Q357 606 355 589 Z " />
<glyph glyph-name="Eogonek" unicode="&#x118;" horiz-adv-x="486" d="M425 0 L365 0 Q317 -32 289.5 -69 Q262 -106 259 -132 Q255 -158 266.5 -168 Q278 -178 298 -178 Q321 -178 342 -171 Q363 -164 380 -156 L391 -189 Q368 -202 337.5 -210.5 Q307 -219 279 -219 Q245 -219 221.5 -202.5 Q198 -186 204 -144 Q205 -135 211 -119 Q217 -103 230 -83.5 Q243 -64 264.5 -42.5 Q286 -21 318 0 L55 0 L148 662 L494 662 L486 610 L199 610 L166 371 L456 371 L448 319 L158 319 L121 53 L432 53 L425 0 Z " />
<glyph glyph-name="eogonek" unicode="&#x119;" horiz-adv-x="519" d="M429 52 Q418 44 400.5 33 Q383 22 360 12 Q309 -21 280 -59.5 Q251 -98 247 -125 Q243 -151 254.5 -161 Q266 -171 286 -171 Q309 -171 330 -164 Q351 -157 368 -149 L379 -182 Q356 -195 325.5 -203.5 Q295 -212 267 -212 Q233 -212 209.5 -195.5 Q186 -179 192 -137 Q193 -128 198 -114.5 Q203 -101 214 -83.5 Q225 -66 242.5 -47 Q260 -28 286 -8 Q277 -9 268 -9.5 Q259 -10 250 -10 Q153 -10 100.5 43.5 Q48 97 48 186 Q48 243 68 292 Q88 341 122 377.5 Q156 414 201.5 434.5 Q247 455 299 455 Q342 455 375 440.5 Q408 426 430 401 Q452 376 463 342 Q474 308 474 269 Q474 255 473 238.5 Q472 222 467 208 L108 208 Q107 201 106.5 195 Q106 189 106 183 Q106 114 148.5 77.5 Q191 41 254 41 Q296 41 332 52 Q368 63 406 91 L429 52 Z M293 405 Q260 405 231 394 Q202 383 179 363.5 Q156 344 139.5 316 Q123 288 115 254 L420 254 L420 265 Q420 329 387.5 367 Q355 405 293 405 Z " />
<glyph glyph-name="Ecaron" unicode="&#x11a;" horiz-adv-x="486" d="M425 0 L55 0 L148 662 L494 662 L486 610 L199 610 L166 371 L456 371 L448 319 L158 319 L121 53 L432 53 L425 0 Z M317 728 L232 849 L298 849 L353 764 L434 849 L497 849 L374 728 L317 728 Z " />
<glyph glyph-name="ecaron" unicode="&#x11b;" horiz-adv-x="519" d="M429 52 Q418 44 401.5 33.5 Q385 23 362.5 13 Q340 3 312 -3.5 Q284 -10 250 -10 Q153 -10 100.5 43.5 Q48 97 48 186 Q48 243 68 292 Q88 341 122 377.5 Q156 414 201.5 434.5 Q247 455 299 455 Q342 455 375 440.5 Q408 426 430 401 Q452 376 463 342 Q474 308 474 269 Q474 255 473 238.5 Q472 222 467 208 L108 208 Q107 201 106.5 195 Q106 189 106 183 Q106 114 148.5 77.5 Q191 41 254 41 Q296 41 332 52 Q368 63 406 91 L429 52 Z M293 405 Q260 405 231 394 Q202 383 179 363.5 Q156 344 139.5 316 Q123 288 115 254 L420 254 L420 265 Q420 329 387.5 367 Q355 405 293 405 Z M281 532 L196 653 L261 653 L316 568 L397 653 L461 653 L338 532 L281 532 Z " />
<glyph glyph-name="Gcircumflex" unicode="&#x11c;" horiz-adv-x="757" d="M358 -10 Q285 -10 231 11.5 Q177 33 141 70.5 Q105 108 87.5 159.5 Q70 211 70 271 Q70 356 101 429.5 Q132 503 184.5 557.5 Q237 612 306.5 643 Q376 674 454 674 Q524 674 587 649 Q650 624 694 565 L647 527 Q626 558 598.5 576 Q571 594 543.5 603.5 Q516 613 491 615.5 Q466 618 451 618 Q391 618 333 595 Q275 572 229.5 528 Q184 484 155.5 420.5 Q127 357 127 275 Q127 169 190.5 107 Q254 45 371 45 Q424 45 472 61 Q520 77 558 108.5 Q596 140 621.5 187.5 Q647 235 656 298 L479 298 L487 350 L721 350 L715 311 Q704 230 670.5 169.5 Q637 109 588.5 69 Q540 29 480.5 9.5 Q421 -10 358 -10 Z M514 855 L599 734 L533 734 L478 819 L397 734 L334 734 L457 855 L514 855 Z " />
<glyph glyph-name="gcircumflex" unicode="&#x11d;" horiz-adv-x="570" d="M26 -123 Q57 -147 96 -164 Q135 -181 193 -181 Q240 -181 279.5 -166.5 Q319 -152 349.5 -125.5 Q380 -99 399.5 -61 Q419 -23 425 25 L431 71 L427 72 Q391 30 342 10 Q293 -10 245 -10 Q196 -10 158.5 4.5 Q121 19 95.5 45 Q70 71 57 107 Q44 143 44 185 Q44 242 65.5 291.5 Q87 341 123.5 377 Q160 413 208.5 433.5 Q257 454 311 454 Q360 454 403.5 434 Q447 414 469 376 L475 379 L484 445 L537 445 L478 23 Q470 -36 446 -82.5 Q422 -129 384.5 -161.5 Q347 -194 296 -211.5 Q245 -229 183 -229 Q151 -229 121.5 -222.5 Q92 -216 67 -206.5 Q42 -197 23.5 -185 Q5 -173 -6 -161 L26 -123 Z M306 407 Q263 407 225.5 389 Q188 371 160.5 340.5 Q133 310 117.5 270 Q102 230 102 187 Q102 121 140.5 79.5 Q179 38 254 38 Q299 38 336 56.5 Q373 75 398.5 105 Q424 135 438 173.5 Q452 212 452 252 Q452 285 442.5 313 Q433 341 414 362 Q395 383 368 395 Q341 407 306 407 Z M378 650 L463 529 L397 529 L342 614 L261 529 L198 529 L321 650 L378 650 Z " />
<glyph glyph-name="Gbreve" unicode="&#x11e;" horiz-adv-x="757" d="M358 -10 Q285 -10 231 11.5 Q177 33 141 70.5 Q105 108 87.5 159.5 Q70 211 70 271 Q70 356 101 429.5 Q132 503 184.5 557.5 Q237 612 306.5 643 Q376 674 454 674 Q524 674 587 649 Q650 624 694 565 L647 527 Q626 558 598.5 576 Q571 594 543.5 603.5 Q516 613 491 615.5 Q466 618 451 618 Q391 618 333 595 Q275 572 229.5 528 Q184 484 155.5 420.5 Q127 357 127 275 Q127 169 190.5 107 Q254 45 371 45 Q424 45 472 61 Q520 77 558 108.5 Q596 140 621.5 187.5 Q647 235 656 298 L479 298 L487 350 L721 350 L715 311 Q704 230 670.5 169.5 Q637 109 588.5 69 Q540 29 480.5 9.5 Q421 -10 358 -10 Z M598 845 Q593 823 582.5 801.5 Q572 780 555.5 763.5 Q539 747 517 736.5 Q495 726 467 726 Q441 726 422 736 Q403 746 391 762.5 Q379 779 373.5 800.5 Q368 822 369 845 L417 845 Q414 812 429 791.5 Q444 771 474 771 Q509 771 526 793 Q543 815 551 845 L598 845 Z " />
<glyph glyph-name="gbreve" unicode="&#x11f;" horiz-adv-x="570" d="M26 -123 Q57 -147 96 -164 Q135 -181 193 -181 Q240 -181 279.5 -166.5 Q319 -152 349.5 -125.5 Q380 -99 399.5 -61 Q419 -23 425 25 L431 71 L427 72 Q391 30 342 10 Q293 -10 245 -10 Q196 -10 158.5 4.5 Q121 19 95.5 45 Q70 71 57 107 Q44 143 44 185 Q44 242 65.5 291.5 Q87 341 123.5 377 Q160 413 208.5 433.5 Q257 454 311 454 Q360 454 403.5 434 Q447 414 469 376 L475 379 L484 445 L537 445 L478 23 Q470 -36 446 -82.5 Q422 -129 384.5 -161.5 Q347 -194 296 -211.5 Q245 -229 183 -229 Q151 -229 121.5 -222.5 Q92 -216 67 -206.5 Q42 -197 23.5 -185 Q5 -173 -6 -161 L26 -123 Z M306 407 Q263 407 225.5 389 Q188 371 160.5 340.5 Q133 310 117.5 270 Q102 230 102 187 Q102 121 140.5 79.5 Q179 38 254 38 Q299 38 336 56.5 Q373 75 398.5 105 Q424 135 438 173.5 Q452 212 452 252 Q452 285 442.5 313 Q433 341 414 362 Q395 383 368 395 Q341 407 306 407 Z M465 649 Q460 627 449 605.5 Q438 584 421.5 567.5 Q405 551 383 540.5 Q361 530 333 530 Q307 530 288 540 Q269 550 257 566.5 Q245 583 240 604.5 Q235 626 236 649 L282 649 Q279 616 294.5 594.5 Q310 573 340 573 Q375 573 393.5 596 Q412 619 420 649 L465 649 Z " />
<glyph glyph-name="Gdotaccent" unicode="&#x120;" horiz-adv-x="757" d="M358 -10 Q285 -10 231 11.5 Q177 33 141 70.5 Q105 108 87.5 159.5 Q70 211 70 271 Q70 356 101 429.5 Q132 503 184.5 557.5 Q237 612 306.5 643 Q376 674 454 674 Q524 674 587 649 Q650 624 694 565 L647 527 Q626 558 598.5 576 Q571 594 543.5 603.5 Q516 613 491 615.5 Q466 618 451 618 Q391 618 333 595 Q275 572 229.5 528 Q184 484 155.5 420.5 Q127 357 127 275 Q127 169 190.5 107 Q254 45 371 45 Q424 45 472 61 Q520 77 558 108.5 Q596 140 621.5 187.5 Q647 235 656 298 L479 298 L487 350 L721 350 L715 311 Q704 230 670.5 169.5 Q637 109 588.5 69 Q540 29 480.5 9.5 Q421 -10 358 -10 Z M512 799 Q510 782 498 771.5 Q486 761 469 761 Q452 761 442.5 771.5 Q433 782 435 799 Q437 814 450.5 826 Q464 838 480 838 Q497 838 505.5 827 Q514 816 512 799 Z " />
<glyph glyph-name="gdotaccent" unicode="&#x121;" horiz-adv-x="570" d="M26 -123 Q57 -147 96 -164 Q135 -181 193 -181 Q240 -181 279.5 -166.5 Q319 -152 349.5 -125.5 Q380 -99 399.5 -61 Q419 -23 425 25 L431 71 L427 72 Q391 30 342 10 Q293 -10 245 -10 Q196 -10 158.5 4.5 Q121 19 95.5 45 Q70 71 57 107 Q44 143 44 185 Q44 242 65.5 291.5 Q87 341 123.5 377 Q160 413 208.5 433.5 Q257 454 311 454 Q360 454 403.5 434 Q447 414 469 376 L475 379 L484 445 L537 445 L478 23 Q470 -36 446 -82.5 Q422 -129 384.5 -161.5 Q347 -194 296 -211.5 Q245 -229 183 -229 Q151 -229 121.5 -222.5 Q92 -216 67 -206.5 Q42 -197 23.5 -185 Q5 -173 -6 -161 L26 -123 Z M306 407 Q263 407 225.5 389 Q188 371 160.5 340.5 Q133 310 117.5 270 Q102 230 102 187 Q102 121 140.5 79.5 Q179 38 254 38 Q299 38 336 56.5 Q373 75 398.5 105 Q424 135 438 173.5 Q452 212 452 252 Q452 285 442.5 313 Q433 341 414 362 Q395 383 368 395 Q341 407 306 407 Z M371 589 Q369 572 357 561.5 Q345 551 328 551 Q311 551 301.5 561.5 Q292 572 294 589 Q296 604 309.5 616 Q323 628 339 628 Q356 628 364.5 617 Q373 606 371 589 Z " />
<glyph glyph-name="Gcommaaccent" unicode="&#x122;" horiz-adv-x="757" d="M358 -10 Q285 -10 231 11.5 Q177 33 141 70.5 Q105 108 87.5 159.5 Q70 211 70 271 Q70 356 101 429.5 Q132 503 184.5 557.5 Q237 612 306.5 643 Q376 674 454 674 Q524 674 587 649 Q650 624 694 565 L647 527 Q626 558 598.5 576 Q571 594 543.5 603.5 Q516 613 491 615.5 Q466 618 451 618 Q391 618 333 595 Q275 572 229.5 528 Q184 484 155.5 420.5 Q127 357 127 275 Q127 169 190.5 107 Q254 45 371 45 Q424 45 472 61 Q520 77 558 108.5 Q596 140 621.5 187.5 Q647 235 656 298 L479 298 L487 350 L721 350 L715 311 Q704 230 670.5 169.5 Q637 109 588.5 69 Q540 29 480.5 9.5 Q421 -10 358 -10 Z M266 -210 Q292 -196 311 -171 Q330 -146 334 -123 Q330 -124 326.5 -124 Q323 -124 321 -124 Q306 -124 296 -115 Q286 -106 288 -86 Q290 -70 303.5 -57.5 Q317 -45 335 -45 Q358 -45 365.5 -62.5 Q373 -80 370 -104 Q368 -119 361 -137 Q354 -155 342 -173 Q330 -191 313 -206 Q296 -221 275 -230 L266 -210 Z " />
<glyph glyph-name="gcommaaccent" unicode="&#x123;" horiz-adv-x="570" d="M26 -123 Q57 -147 96 -164 Q135 -181 193 -181 Q240 -181 279.5 -166.5 Q319 -152 349.5 -125.5 Q380 -99 399.5 -61 Q419 -23 425 25 L431 71 L427 72 Q391 30 342 10 Q293 -10 245 -10 Q196 -10 158.5 4.5 Q121 19 95.5 45 Q70 71 57 107 Q44 143 44 185 Q44 242 65.5 291.5 Q87 341 123.5 377 Q160 413 208.5 433.5 Q257 454 311 454 Q360 454 403.5 434 Q447 414 469 376 L475 379 L484 445 L537 445 L478 23 Q470 -36 446 -82.5 Q422 -129 384.5 -161.5 Q347 -194 296 -211.5 Q245 -229 183 -229 Q151 -229 121.5 -222.5 Q92 -216 67 -206.5 Q42 -197 23.5 -185 Q5 -173 -6 -161 L26 -123 Z M306 407 Q263 407 225.5 389 Q188 371 160.5 340.5 Q133 310 117.5 270 Q102 230 102 187 Q102 121 140.5 79.5 Q179 38 254 38 Q299 38 336 56.5 Q373 75 398.5 105 Q424 135 438 173.5 Q452 212 452 252 Q452 285 442.5 313 Q433 341 414 362 Q395 383 368 395 Q341 407 306 407 Z M450 705 Q424 691 405 666 Q386 641 382 618 Q386 619 389.5 619 Q393 619 395 619 Q410 619 420 610 Q430 601 428 581 Q426 565 412.5 552.5 Q399 540 381 540 Q358 540 350.5 557.5 Q343 575 346 599 Q348 614 355 632 Q362 650 374 668 Q386 686 403 701 Q420 716 441 725 L450 705 Z " />
<glyph glyph-name="Hcircumflex" unicode="&#x124;" horiz-adv-x="637" d="M465 0 L509 319 L157 319 L113 0 L55 0 L148 662 L206 662 L165 371 L517 371 L558 662 L615 662 L522 0 L465 0 Z M444 849 L529 728 L463 728 L408 813 L327 728 L264 728 L387 849 L444 849 Z " />
<glyph glyph-name="hcircumflex" unicode="&#x125;" horiz-adv-x="525" d="M363 0 L398 255 Q408 325 384 365 Q360 405 303 405 Q272 405 243 394.5 Q214 384 190 362.5 Q166 341 149 308 Q132 275 126 230 L94 0 L35 0 L128 662 L184 662 L144 378 L147 378 Q189 423 230 439 Q271 455 313 455 Q397 455 433 405 Q469 355 457 266 L420 0 L363 0 Z M208 814 L293 693 L227 693 L172 778 L91 693 L28 693 L151 814 L208 814 Z " />
<glyph glyph-name="Hbar" unicode="&#x126;" horiz-adv-x="637" d="M83 569 L134 569 L148 662 L206 662 L192 569 L544 569 L558 662 L615 662 L601 569 L645 569 L639 522 L595 522 L522 0 L465 0 L507 302 L155 302 L113 0 L55 0 L128 522 L77 522 L83 569 Z M514 354 L538 522 L186 522 L162 354 L514 354 Z " />
<glyph glyph-name="hbar" unicode="&#x127;" horiz-adv-x="525" d="M363 0 L398 255 Q408 325 384 365 Q360 405 303 405 Q272 405 243 394.5 Q214 384 190 362.5 Q166 341 149 308 Q132 275 126 230 L94 0 L35 0 L110 533 L67 533 L74 581 L116 581 L128 662 L184 662 L172 581 L348 581 L341 533 L166 533 L144 378 L147 378 Q189 423 230 439 Q271 455 313 455 Q397 455 433 405 Q469 355 457 266 L420 0 L363 0 Z " />
<glyph glyph-name="Itilde" unicode="&#x128;" horiz-adv-x="248" d="M65 0 L158 662 L216 662 L123 0 L65 0 Z M350 854 Q340 803 319.5 780 Q299 757 267 757 Q250 757 235 764.5 Q220 772 206 781.5 Q192 791 179 798.5 Q166 806 154 806 Q140 806 128.5 793.5 Q117 781 109 758 L68 758 Q76 788 87 807.5 Q98 827 110 837.5 Q122 848 134.5 852 Q147 856 159 856 Q176 856 191.5 848.5 Q207 841 220.5 832 Q234 823 247 815.5 Q260 808 272 808 Q283 808 293.5 815 Q304 822 312 854 L350 854 Z " />
<glyph glyph-name="itilde" unicode="&#x129;" horiz-adv-x="227" d="M305 639 Q295 588 274.5 565 Q254 542 222 542 Q205 542 190 549.5 Q175 557 161 566.5 Q147 576 134 583.5 Q121 591 109 591 Q95 591 83.5 578.5 Q72 566 64 543 L23 543 Q31 573 42 592.5 Q53 612 65 622.5 Q77 633 89.5 637 Q102 641 114 641 Q131 641 146.5 633.5 Q162 626 175.5 617 Q189 608 202 600.5 Q215 593 227 593 Q238 593 248.5 600 Q259 607 267 639 L305 639 Z M54 0 L116 445 L173 445 L111 0 L54 0 Z " />
<glyph glyph-name="Imacron" unicode="&#x12a;" horiz-adv-x="248" d="M65 0 L158 662 L216 662 L123 0 L65 0 Z M68 813 L347 813 L340 762 L61 762 L68 813 Z " />
<glyph glyph-name="imacron" unicode="&#x12b;" horiz-adv-x="227" d="M33 600 L297 600 L290 552 L26 552 L33 600 Z M54 0 L116 445 L173 445 L111 0 L54 0 Z " />
<glyph glyph-name="Ibreve" unicode="&#x12c;" horiz-adv-x="248" d="M65 0 L158 662 L216 662 L123 0 L65 0 Z M327 845 Q322 823 311.5 801.5 Q301 780 284.5 763.5 Q268 747 246 736.5 Q224 726 196 726 Q170 726 151 736 Q132 746 120 762.5 Q108 779 102.5 800.5 Q97 822 98 845 L146 845 Q143 812 158 791.5 Q173 771 203 771 Q238 771 255 793 Q272 815 280 845 L327 845 Z " />
<glyph glyph-name="ibreve" unicode="&#x12d;" horiz-adv-x="227" d="M291 653 Q286 631 275 609.5 Q264 588 247.5 571.5 Q231 555 209 544.5 Q187 534 159 534 Q133 534 114 544 Q95 554 83 570.5 Q71 587 66 608.5 Q61 630 62 653 L108 653 Q105 620 120.5 598.5 Q136 577 166 577 Q201 577 219.5 600 Q238 623 246 653 L291 653 Z M54 0 L116 445 L173 445 L111 0 L54 0 Z " />
<glyph glyph-name="Iogonek" unicode="&#x12e;" horiz-adv-x="248" d="M95 0 Q52 -32 27 -66 Q2 -100 -1 -125 Q-5 -151 6.5 -161 Q18 -171 38 -171 Q61 -171 82 -164 Q103 -157 120 -149 L131 -182 Q108 -195 77.5 -203.5 Q47 -212 19 -212 Q-15 -212 -38.5 -195.5 Q-62 -179 -56 -137 Q-55 -128 -48.5 -111.5 Q-42 -95 -28 -74.5 Q-14 -54 8.5 -31.5 Q31 -9 66 12 L158 662 L216 662 L123 0 L95 0 Z " />
<glyph glyph-name="iogonek" unicode="&#x12f;" horiz-adv-x="227" d="M84 0 Q41 -32 16.5 -66 Q-8 -100 -12 -125 Q-16 -151 -4.5 -161 Q7 -171 27 -171 Q50 -171 71 -164 Q92 -157 109 -149 L120 -182 Q97 -195 66.5 -203.5 Q36 -212 8 -212 Q-26 -212 -49.5 -195.5 Q-73 -179 -67 -137 Q-66 -128 -59.5 -111.5 Q-53 -95 -39 -74.5 Q-25 -54 -2.5 -31.5 Q20 -9 55 12 L116 445 L173 445 L111 0 L84 0 Z M203 577 Q201 560 188.5 549.5 Q176 539 159 539 Q142 539 133 549.5 Q124 560 126 577 Q128 592 141 604 Q154 616 170 616 Q187 616 196 605 Q205 594 203 577 Z " />
<glyph glyph-name="Idotaccent" unicode="&#x130;" horiz-adv-x="248" d="M65 0 L158 662 L216 662 L123 0 L65 0 Z M243 799 Q241 782 229 771.5 Q217 761 200 761 Q183 761 173.5 771.5 Q164 782 166 799 Q168 814 181.5 826 Q195 838 211 838 Q228 838 236.5 827 Q245 816 243 799 Z " />
<glyph glyph-name="IJ" unicode="&#x132;" horiz-adv-x="705" d="M65 0 L158 662 L216 662 L123 0 L65 0 Z M272 195 Q269 154 277.5 125.5 Q286 97 303 79 Q320 61 343.5 53 Q367 45 394 45 Q436 45 466 58.5 Q496 72 515.5 93 Q535 114 545.5 140 Q556 166 559 192 L625 661 L683 661 L619 201 Q613 162 597 124 Q581 86 552.5 56 Q524 26 482.5 8 Q441 -10 384 -10 Q345 -10 312.5 2 Q280 14 257.5 38 Q235 62 223.5 97.5 Q212 133 214 181 L272 195 Z " />
<glyph glyph-name="ij" unicode="&#x133;" horiz-adv-x="398" d="M203 577 Q201 560 188.5 549.5 Q176 539 159 539 Q142 539 133 549.5 Q124 560 126 577 Q128 592 141 604 Q154 616 170 616 Q187 616 196 605 Q205 594 203 577 Z M54 0 L116 445 L173 445 L111 0 L54 0 Z M388 577 Q386 560 373.5 549.5 Q361 539 344 539 Q327 539 318 549.5 Q309 560 311 577 Q313 592 325.5 604 Q338 616 355 616 Q372 616 381 605 Q390 594 388 577 Z M107 -174 Q169 -168 197 -131.5 Q225 -95 234 -30 L301 445 L358 445 L291 -31 Q284 -82 267.5 -118.5 Q251 -155 227.5 -178.5 Q204 -202 174.5 -213.5 Q145 -225 111 -227 L107 -174 Z " />
<glyph glyph-name="Jcircumflex" unicode="&#x134;" horiz-adv-x="512" d="M48 196 Q45 155 53.5 126.5 Q62 98 79 80 Q96 62 119.5 54 Q143 46 170 46 Q212 46 242 59.5 Q272 73 291.5 94 Q311 115 321.5 141 Q332 167 335 193 L401 662 L459 662 L395 202 Q389 163 373 125 Q357 87 328.5 57 Q300 27 258.5 9 Q217 -9 160 -9 Q121 -9 88.5 3 Q56 15 33.5 39 Q11 63 -0.5 98.5 Q-12 134 -10 182 L48 196 Z M489 849 L574 728 L508 728 L453 813 L372 728 L309 728 L432 849 L489 849 Z " />
<glyph glyph-name="jcircumflex" unicode="&#x135;" horiz-adv-x="210" d="M-85 -174 Q-23 -168 5 -131.5 Q33 -95 42 -30 L109 445 L166 445 L99 -31 Q92 -82 75.5 -118.5 Q59 -155 35.5 -178.5 Q12 -202 -17.5 -213.5 Q-47 -225 -81 -227 L-85 -174 Z M190 650 L275 529 L209 529 L154 614 L73 529 L10 529 L133 650 L190 650 Z " />
<glyph glyph-name="Kcommaaccent" unicode="&#x136;" horiz-adv-x="580" d="M161 348 L530 662 L602 662 L234 344 L540 0 L458 0 L160 339 L113 0 L55 0 L148 662 L206 662 L161 348 Z M181 -187 Q207 -173 226 -148 Q245 -123 249 -100 Q245 -101 241.5 -101 Q238 -101 236 -101 Q221 -101 211 -92 Q201 -83 203 -63 Q205 -47 218.5 -34.5 Q232 -22 250 -22 Q273 -22 280.5 -39.5 Q288 -57 285 -81 Q283 -96 276 -114 Q269 -132 257 -150 Q245 -168 228 -183 Q211 -198 190 -207 L181 -187 Z " />
<glyph glyph-name="kcommaaccent" unicode="&#x137;" horiz-adv-x="467" d="M193 236 L432 0 L348 0 L121 227 L90 0 L35 0 L128 662 L183 662 L123 240 L395 444 L470 444 L193 236 Z M123 -204 Q149 -190 168 -165 Q187 -140 191 -117 Q187 -118 183.5 -118 Q180 -118 178 -118 Q163 -118 153 -109 Q143 -100 145 -80 Q147 -64 160.5 -51.5 Q174 -39 192 -39 Q215 -39 222.5 -56.5 Q230 -74 227 -98 Q225 -113 218 -131 Q211 -149 199 -167 Q187 -185 170 -200 Q153 -215 132 -224 L123 -204 Z " />
<glyph glyph-name="kgreenlandic" unicode="&#x138;" horiz-adv-x="467" d="M152 445 L123 240 L395 444 L470 444 L193 236 L432 0 L348 0 L121 227 L90 0 L35 0 L97 445 L152 445 Z " />
<glyph glyph-name="Lacute" unicode="&#x139;" horiz-adv-x="442" d="M206 662 L120 53 L409 53 L402 0 L55 0 L148 662 L206 662 Z M317 832 L208 725 L159 725 L243 832 L317 832 Z " />
<glyph glyph-name="lacute" unicode="&#x13a;" horiz-adv-x="203" d="M45 0 L138 662 L195 662 L102 0 L45 0 Z M305 824 L196 717 L147 717 L231 824 L305 824 Z " />
<glyph glyph-name="Lcommaaccent" unicode="&#x13b;" horiz-adv-x="442" d="M206 662 L120 53 L409 53 L402 0 L55 0 L148 662 L206 662 Z M157 -210 Q183 -196 202 -171 Q221 -146 225 -123 Q221 -124 217.5 -124 Q214 -124 212 -124 Q197 -124 187 -115 Q177 -106 179 -86 Q181 -70 194.5 -57.5 Q208 -45 226 -45 Q249 -45 256.5 -62.5 Q264 -80 261 -104 Q259 -119 252 -137 Q245 -155 233 -173 Q221 -191 204 -206 Q187 -221 166 -230 L157 -210 Z " />
<glyph glyph-name="lcommaaccent" unicode="&#x13c;" horiz-adv-x="203" d="M45 0 L138 662 L195 662 L102 0 L45 0 Z M-3 -210 Q23 -196 42 -171 Q61 -146 65 -123 Q61 -124 57.5 -124 Q54 -124 52 -124 Q37 -124 27 -115 Q17 -106 19 -86 Q21 -70 34.5 -57.5 Q48 -45 66 -45 Q89 -45 96.5 -62.5 Q104 -80 101 -104 Q99 -119 92 -137 Q85 -155 73 -173 Q61 -191 44 -206 Q27 -221 6 -230 L-3 -210 Z " />
<glyph glyph-name="Lcaron" unicode="&#x13d;" horiz-adv-x="442" d="M206 662 L120 53 L409 53 L402 0 L55 0 L148 662 L206 662 Z M351 504 Q377 518 396 543 Q415 568 419 591 Q415 590 411.5 590 Q408 590 406 590 Q391 590 381 599 Q371 608 373 628 Q375 644 388.5 656.5 Q402 669 420 669 Q443 669 450.5 651.5 Q458 634 455 610 Q453 595 446 577 Q439 559 427 541 Q415 523 398 508 Q381 493 360 484 L351 504 Z " />
<glyph glyph-name="lcaron" unicode="&#x13e;" horiz-adv-x="269" d="M45 0 L138 662 L195 662 L102 0 L45 0 Z M225 503 Q251 517 270 542 Q289 567 293 590 Q289 589 285.5 589 Q282 589 280 589 Q265 589 255 598 Q245 607 247 627 Q249 643 262.5 655.5 Q276 668 294 668 Q317 668 324.5 650.5 Q332 633 329 609 Q327 594 320 576 Q313 558 301 540 Q289 522 272 507 Q255 492 234 483 L225 503 Z " />
<glyph glyph-name="Ldot" unicode="&#x13f;" horiz-adv-x="442" d="M206 662 L120 53 L409 53 L402 0 L55 0 L148 662 L206 662 Z M382 316 Q380 299 368 288.5 Q356 278 339 278 Q322 278 312.5 288.5 Q303 299 305 316 Q307 331 320.5 343 Q334 355 350 355 Q367 355 375.5 344 Q384 333 382 316 Z " />
<glyph glyph-name="ldot" unicode="&#x140;" horiz-adv-x="271" d="M45 0 L138 662 L195 662 L102 0 L45 0 Z M282 340 Q280 323 268 312.5 Q256 302 239 302 Q222 302 212.5 312.5 Q203 323 205 340 Q207 355 220.5 367 Q234 379 250 379 Q267 379 275.5 368 Q284 357 282 340 Z " />
<glyph glyph-name="Lslash" unicode="&#x141;" horiz-adv-x="442" d="M206 662 L157 316 L329 400 L343 359 L150 264 L120 53 L409 53 L402 0 L55 0 L88 233 L13 197 L1 239 L95 285 L148 662 L206 662 Z " />
<glyph glyph-name="lslash" unicode="&#x142;" horiz-adv-x="203" d="M45 0 L82 262 L5 222 L-9 263 L89 314 L138 662 L195 662 L151 347 L227 387 L242 347 L143 295 L102 0 L45 0 Z " />
<glyph glyph-name="Nacute" unicode="&#x143;" horiz-adv-x="721" d="M555 0 L193 568 L190 568 L111 0 L55 0 L148 662 L201 662 L559 98 L563 98 L643 662 L699 662 L606 0 L555 0 Z M568 827 L459 720 L410 720 L494 827 L568 827 Z " />
<glyph glyph-name="nacute" unicode="&#x144;" horiz-adv-x="535" d="M373 0 L408 255 Q418 325 394 365 Q370 405 313 405 Q282 405 252.5 394.5 Q223 384 199 362.5 Q175 341 157.5 308 Q140 275 134 230 L102 0 L45 0 L107 445 L160 445 L151 378 L155 378 Q197 423 239 439 Q281 455 323 455 Q407 455 443 405 Q479 355 467 266 L430 0 L373 0 Z M424 627 L317 525 L268 525 L353 627 L424 627 Z " />
<glyph glyph-name="Ncommaaccent" unicode="&#x145;" horiz-adv-x="721" d="M555 0 L193 568 L190 568 L111 0 L55 0 L148 662 L201 662 L559 98 L563 98 L643 662 L699 662 L606 0 L555 0 Z M256 -189 Q282 -175 301 -150 Q320 -125 324 -102 Q320 -103 316.5 -103 Q313 -103 311 -103 Q296 -103 286 -94 Q276 -85 278 -65 Q280 -49 293.5 -36.5 Q307 -24 325 -24 Q348 -24 355.5 -41.5 Q363 -59 360 -83 Q358 -98 351 -116 Q344 -134 332 -152 Q320 -170 303 -185 Q286 -200 265 -209 L256 -189 Z " />
<glyph glyph-name="ncommaaccent" unicode="&#x146;" horiz-adv-x="535" d="M373 0 L408 255 Q418 325 394 365 Q370 405 313 405 Q282 405 252.5 394.5 Q223 384 199 362.5 Q175 341 157.5 308 Q140 275 134 230 L102 0 L45 0 L107 445 L160 445 L151 378 L155 378 Q197 423 239 439 Q281 455 323 455 Q407 455 443 405 Q479 355 467 266 L430 0 L373 0 Z M168 -201 Q194 -187 213 -162 Q232 -137 236 -114 Q232 -115 228.5 -115 Q225 -115 223 -115 Q208 -115 198 -106 Q188 -97 190 -77 Q192 -61 205.5 -48.5 Q219 -36 237 -36 Q260 -36 267.5 -53.5 Q275 -71 272 -95 Q270 -110 263 -128 Q256 -146 244 -164 Q232 -182 215 -197 Q198 -212 177 -221 L168 -201 Z " />
<glyph glyph-name="Ncaron" unicode="&#x147;" horiz-adv-x="721" d="M555 0 L193 568 L190 568 L111 0 L55 0 L148 662 L201 662 L559 98 L563 98 L643 662 L699 662 L606 0 L555 0 Z M425 728 L340 849 L406 849 L461 764 L542 849 L605 849 L482 728 L425 728 Z " />
<glyph glyph-name="ncaron" unicode="&#x148;" horiz-adv-x="535" d="M373 0 L408 255 Q418 325 394 365 Q370 405 313 405 Q282 405 252.5 394.5 Q223 384 199 362.5 Q175 341 157.5 308 Q140 275 134 230 L102 0 L45 0 L107 445 L160 445 L151 378 L155 378 Q197 423 239 439 Q281 455 323 455 Q407 455 443 405 Q479 355 467 266 L430 0 L373 0 Z M278 532 L193 653 L258 653 L313 568 L394 653 L458 653 L335 532 L278 532 Z " />
<glyph glyph-name="napostrophe" unicode="&#x149;" horiz-adv-x="535" d="M373 0 L408 255 Q418 325 394 365 Q370 405 313 405 Q282 405 252.5 394.5 Q223 384 199 362.5 Q175 341 157.5 308 Q140 275 134 230 L102 0 L45 0 L107 445 L160 445 L151 378 L155 378 Q197 423 239 439 Q281 455 323 455 Q407 455 443 405 Q479 355 467 266 L430 0 L373 0 Z M33 506 Q59 520 78 545 Q97 570 101 593 Q97 592 93.5 592 Q90 592 88 592 Q73 592 63 601 Q53 610 55 630 Q57 646 70.5 658.5 Q84 671 102 671 Q125 671 132.5 653.5 Q140 636 137 612 Q135 597 128 579 Q121 561 109 543 Q97 525 80 510 Q63 495 42 486 L33 506 Z " />
<glyph glyph-name="Eng" unicode="&#x14a;" horiz-adv-x="721" d="M602 -22 Q588 -128 538.5 -177.5 Q489 -227 404 -229 L400 -179 Q439 -177 464.5 -166 Q490 -155 506.5 -135 Q523 -115 531.5 -86.5 Q540 -58 545 -22 L549 7 L193 568 L190 568 L111 0 L55 0 L148 662 L201 662 L559 98 L563 98 L643 662 L699 662 L602 -22 L602 -22 Z " />
<glyph glyph-name="eng" unicode="&#x14b;" horiz-adv-x="535" d="M237 -181 Q271 -178 294.5 -166 Q318 -154 333 -134.5 Q348 -115 356 -87.5 Q364 -60 369 -25 L408 255 Q418 325 394 365 Q370 405 313 405 Q282 405 252.5 394.5 Q223 384 199 362.5 Q175 341 157.5 308 Q140 275 134 230 L102 0 L45 0 L107 445 L160 445 L151 378 L155 378 Q197 423 239 439 Q281 455 323 455 Q407 455 443 405 Q479 355 467 266 L426 -25 Q412 -126 366 -175.5 Q320 -225 243 -231 L237 -181 Z " />
<glyph glyph-name="Omacron" unicode="&#x14c;" horiz-adv-x="787" d="M363 -10 Q291 -10 236 12 Q181 34 144 72 Q107 110 88 162.5 Q69 215 69 276 Q69 358 100.5 430.5 Q132 503 185.5 556.5 Q239 610 310 641 Q381 672 459 672 Q525 672 579.5 649.5 Q634 627 672.5 588 Q711 549 732 495.5 Q753 442 753 380 Q753 299 722 227.5 Q691 156 638 103.5 Q585 51 514 20.5 Q443 -10 363 -10 Z M451 619 Q383 619 324 592 Q265 565 221.5 519 Q178 473 153 411.5 Q128 350 128 281 Q128 229 144 185 Q160 141 191 109.5 Q222 78 267 60.5 Q312 43 371 43 Q440 43 499 70.5 Q558 98 601 143.5 Q644 189 668.5 249 Q693 309 693 375 Q693 427 676 471.5 Q659 516 627.5 549 Q596 582 551.5 600.5 Q507 619 451 619 Z M340 820 L619 820 L612 769 L333 769 L340 820 Z " />
<glyph glyph-name="omacron" unicode="&#x14d;" horiz-adv-x="560" d="M249 -10 Q200 -10 163 5 Q126 20 100.5 46 Q75 72 62 108 Q49 144 49 186 Q49 242 70.5 291 Q92 340 128 376.5 Q164 413 212 434 Q260 455 314 455 Q359 455 396 440 Q433 425 459 399 Q485 373 499 336.5 Q513 300 513 258 Q513 203 491.5 154 Q470 105 434 68.5 Q398 32 350 11 Q302 -10 249 -10 Z M308 407 Q264 407 227 389 Q190 371 163 341 Q136 311 121 271.5 Q106 232 106 189 Q106 156 115.5 128.5 Q125 101 144 81 Q163 61 191 49.5 Q219 38 256 38 Q300 38 337 56 Q374 74 400.5 103.5 Q427 133 441.5 172 Q456 211 456 253 Q456 285 446 313 Q436 341 417 362 Q398 383 370.5 395 Q343 407 308 407 Z M202 600 L466 600 L459 552 L195 552 L202 600 Z " />
<glyph glyph-name="Obreve" unicode="&#x14e;" horiz-adv-x="787" d="M363 -10 Q291 -10 236 12 Q181 34 144 72 Q107 110 88 162.5 Q69 215 69 276 Q69 358 100.5 430.5 Q132 503 185.5 556.5 Q239 610 310 641 Q381 672 459 672 Q525 672 579.5 649.5 Q634 627 672.5 588 Q711 549 732 495.5 Q753 442 753 380 Q753 299 722 227.5 Q691 156 638 103.5 Q585 51 514 20.5 Q443 -10 363 -10 Z M451 619 Q383 619 324 592 Q265 565 221.5 519 Q178 473 153 411.5 Q128 350 128 281 Q128 229 144 185 Q160 141 191 109.5 Q222 78 267 60.5 Q312 43 371 43 Q440 43 499 70.5 Q558 98 601 143.5 Q644 189 668.5 249 Q693 309 693 375 Q693 427 676 471.5 Q659 516 627.5 549 Q596 582 551.5 600.5 Q507 619 451 619 Z M600 845 Q595 823 584.5 801.5 Q574 780 557.5 763.5 Q541 747 519 736.5 Q497 726 469 726 Q443 726 424 736 Q405 746 393 762.5 Q381 779 375.5 800.5 Q370 822 371 845 L419 845 Q416 812 431 791.5 Q446 771 476 771 Q511 771 528 793 Q545 815 553 845 L600 845 Z " />
<glyph glyph-name="obreve" unicode="&#x14f;" horiz-adv-x="560" d="M249 -10 Q200 -10 163 5 Q126 20 100.5 46 Q75 72 62 108 Q49 144 49 186 Q49 242 70.5 291 Q92 340 128 376.5 Q164 413 212 434 Q260 455 314 455 Q359 455 396 440 Q433 425 459 399 Q485 373 499 336.5 Q513 300 513 258 Q513 203 491.5 154 Q470 105 434 68.5 Q398 32 350 11 Q302 -10 249 -10 Z M308 407 Q264 407 227 389 Q190 371 163 341 Q136 311 121 271.5 Q106 232 106 189 Q106 156 115.5 128.5 Q125 101 144 81 Q163 61 191 49.5 Q219 38 256 38 Q300 38 337 56 Q374 74 400.5 103.5 Q427 133 441.5 172 Q456 211 456 253 Q456 285 446 313 Q436 341 417 362 Q398 383 370.5 395 Q343 407 308 407 Z M457 649 Q452 627 441 605.5 Q430 584 413.5 567.5 Q397 551 375 540.5 Q353 530 325 530 Q299 530 280 540 Q261 550 249 566.5 Q237 583 232 604.5 Q227 626 228 649 L274 649 Q271 616 286.5 594.5 Q302 573 332 573 Q367 573 385.5 596 Q404 619 412 649 L457 649 Z " />
<glyph glyph-name="Ohungarumlaut" unicode="&#x150;" horiz-adv-x="787" d="M363 -10 Q291 -10 236 12 Q181 34 144 72 Q107 110 88 162.5 Q69 215 69 276 Q69 358 100.5 430.5 Q132 503 185.5 556.5 Q239 610 310 641 Q381 672 459 672 Q525 672 579.5 649.5 Q634 627 672.5 588 Q711 549 732 495.5 Q753 442 753 380 Q753 299 722 227.5 Q691 156 638 103.5 Q585 51 514 20.5 Q443 -10 363 -10 Z M451 619 Q383 619 324 592 Q265 565 221.5 519 Q178 473 153 411.5 Q128 350 128 281 Q128 229 144 185 Q160 141 191 109.5 Q222 78 267 60.5 Q312 43 371 43 Q440 43 499 70.5 Q558 98 601 143.5 Q644 189 668.5 249 Q693 309 693 375 Q693 427 676 471.5 Q659 516 627.5 549 Q596 582 551.5 600.5 Q507 619 451 619 Z M540 832 L433 725 L382 725 L466 832 L540 832 Z M640 832 L533 725 L482 725 L566 832 L640 832 Z " />
<glyph glyph-name="ohungarumlaut" unicode="&#x151;" horiz-adv-x="560" d="M249 -10 Q200 -10 163 5 Q126 20 100.5 46 Q75 72 62 108 Q49 144 49 186 Q49 242 70.5 291 Q92 340 128 376.5 Q164 413 212 434 Q260 455 314 455 Q359 455 396 440 Q433 425 459 399 Q485 373 499 336.5 Q513 300 513 258 Q513 203 491.5 154 Q470 105 434 68.5 Q398 32 350 11 Q302 -10 249 -10 Z M308 407 Q264 407 227 389 Q190 371 163 341 Q136 311 121 271.5 Q106 232 106 189 Q106 156 115.5 128.5 Q125 101 144 81 Q163 61 191 49.5 Q219 38 256 38 Q300 38 337 56 Q374 74 400.5 103.5 Q427 133 441.5 172 Q456 211 456 253 Q456 285 446 313 Q436 341 417 362 Q398 383 370.5 395 Q343 407 308 407 Z M398 627 L291 525 L242 525 L327 627 L398 627 Z M495 627 L388 525 L339 525 L424 627 L495 627 Z " />
<glyph glyph-name="Racute" unicode="&#x154;" horiz-adv-x="588" d="M500 0 L433 0 L322 245 L147 245 L113 0 L54 0 L146 661 L370 661 Q420 661 457.5 646.5 Q495 632 519.5 607 Q544 582 556 550 Q568 518 568 482 Q568 436 553 398 Q538 360 512.5 331 Q487 302 453.5 282 Q420 262 383 252 L500 0 Z M509 478 Q509 506 499.5 530.5 Q490 555 471 573 Q452 591 422.5 601 Q393 611 353 611 L198 611 L154 295 L311 295 Q360 295 397 310.5 Q434 326 459 351.5 Q484 377 496.5 410 Q509 443 509 478 Z M456 832 L347 725 L298 725 L382 832 L456 832 Z " />
<glyph glyph-name="racute" unicode="&#x155;" horiz-adv-x="310" d="M290 402 Q259 402 232.5 388 Q206 374 185.5 349 Q165 324 151.5 291 Q138 258 132 219 L102 0 L45 0 L107 444 L156 444 L145 365 Q146 364 148 364 Q177 407 217.5 431 Q258 455 308 455 Q314 455 323 454.5 Q332 454 338 452 L330 397 Q320 400 309 401 Q298 402 290 402 Z M306 627 L199 525 L150 525 L235 627 L306 627 Z " />
<glyph glyph-name="Rcommaaccent" unicode="&#x156;" horiz-adv-x="588" d="M500 0 L433 0 L322 245 L147 245 L113 0 L54 0 L146 661 L370 661 Q420 661 457.5 646.5 Q495 632 519.5 607 Q544 582 556 550 Q568 518 568 482 Q568 436 553 398 Q538 360 512.5 331 Q487 302 453.5 282 Q420 262 383 252 L500 0 Z M509 478 Q509 506 499.5 530.5 Q490 555 471 573 Q452 591 422.5 601 Q393 611 353 611 L198 611 L154 295 L311 295 Q360 295 397 310.5 Q434 326 459 351.5 Q484 377 496.5 410 Q509 443 509 478 Z M183 -184 Q209 -170 228 -145 Q247 -120 251 -97 Q247 -98 243.5 -98 Q240 -98 238 -98 Q223 -98 213 -89 Q203 -80 205 -60 Q207 -44 220.5 -31.5 Q234 -19 252 -19 Q275 -19 282.5 -36.5 Q290 -54 287 -78 Q285 -93 278 -111 Q271 -129 259 -147 Q247 -165 230 -180 Q213 -195 192 -204 L183 -184 Z " />
<glyph glyph-name="rcommaaccent" unicode="&#x157;" horiz-adv-x="310" d="M290 402 Q259 402 232.5 388 Q206 374 185.5 349 Q165 324 151.5 291 Q138 258 132 219 L102 0 L45 0 L107 444 L156 444 L145 365 Q146 364 148 364 Q177 407 217.5 431 Q258 455 308 455 Q314 455 323 454.5 Q332 454 338 452 L330 397 Q320 400 309 401 Q298 402 290 402 Z M-2 -207 Q24 -193 43 -168 Q62 -143 66 -120 Q62 -121 58.5 -121 Q55 -121 53 -121 Q38 -121 28 -112 Q18 -103 20 -83 Q22 -67 35.5 -54.5 Q49 -42 67 -42 Q90 -42 97.5 -59.5 Q105 -77 102 -101 Q100 -116 93 -134 Q86 -152 74 -170 Q62 -188 45 -203 Q28 -218 7 -227 L-2 -207 Z " />
<glyph glyph-name="Rcaron" unicode="&#x158;" horiz-adv-x="588" d="M500 0 L433 0 L322 245 L147 245 L113 0 L54 0 L146 661 L370 661 Q420 661 457.5 646.5 Q495 632 519.5 607 Q544 582 556 550 Q568 518 568 482 Q568 436 553 398 Q538 360 512.5 331 Q487 302 453.5 282 Q420 262 383 252 L500 0 Z M509 478 Q509 506 499.5 530.5 Q490 555 471 573 Q452 591 422.5 601 Q393 611 353 611 L198 611 L154 295 L311 295 Q360 295 397 310.5 Q434 326 459 351.5 Q484 377 496.5 410 Q509 443 509 478 Z M320 728 L235 849 L301 849 L356 764 L437 849 L500 849 L377 728 L320 728 Z " />
<glyph glyph-name="rcaron" unicode="&#x159;" horiz-adv-x="310" d="M290 402 Q259 402 232.5 388 Q206 374 185.5 349 Q165 324 151.5 291 Q138 258 132 219 L102 0 L45 0 L107 444 L156 444 L145 365 Q146 364 148 364 Q177 407 217.5 431 Q258 455 308 455 Q314 455 323 454.5 Q332 454 338 452 L330 397 Q320 400 309 401 Q298 402 290 402 Z M156 532 L71 653 L136 653 L191 568 L272 653 L336 653 L213 532 L156 532 Z " />
<glyph glyph-name="Sacute" unicode="&#x15a;" horiz-adv-x="542" d="M328 672 Q353 672 380 668.5 Q407 665 432.5 656.5 Q458 648 481.5 634.5 Q505 621 524 600 L488 559 Q447 592 403 605 Q359 618 321 618 Q284 618 254 606.5 Q224 595 203 576 Q182 557 170.5 532 Q159 507 159 479 Q159 461 166 446 Q173 431 188.5 418.5 Q204 406 229.5 394.5 Q255 383 292 372 Q341 357 380 341.5 Q419 326 445 306.5 Q471 287 485 261.5 Q499 236 499 201 Q499 153 478.5 114 Q458 75 423 47.5 Q388 20 340 5 Q292 -10 238 -10 Q175 -10 115.5 8 Q56 26 14 68 L50 113 Q90 81 138 62.5 Q186 44 239 44 Q286 44 323 55.5 Q360 67 386 87 Q412 107 425.5 134 Q439 161 439 192 Q439 230 414 252.5 Q389 275 351.5 290 Q314 305 270 317 Q226 329 188.5 348 Q151 367 126 396.5 Q101 426 101 475 Q101 517 117.5 552.5 Q134 588 164 614.5 Q194 641 236 656.5 Q278 672 328 672 Z M454 832 L345 725 L296 725 L380 832 L454 832 Z " />
<glyph glyph-name="sacute" unicode="&#x15b;" horiz-adv-x="399" d="M227 455 Q264 455 303 443.5 Q342 432 371 402 L335 365 Q305 390 276.5 397.5 Q248 405 219 405 Q171 405 143.5 381 Q116 357 116 322 Q116 297 134.5 283 Q153 269 200 256 Q273 235 313 208.5 Q353 182 353 133 Q353 70 302 30 Q251 -10 163 -10 Q123 -10 77.5 2 Q32 14 1 46 L35 85 Q56 68 87 53.5 Q118 39 163 39 Q226 39 261.5 63.5 Q297 88 297 128 Q297 153 279.5 167.5 Q262 182 235.5 191.5 Q209 201 178 209 Q147 217 120.5 230 Q94 243 76.5 263.5 Q59 284 59 318 Q59 347 71.5 372 Q84 397 106 415.5 Q128 434 159 444.5 Q190 455 227 455 Z M351 627 L244 525 L195 525 L280 627 L351 627 Z " />
<glyph glyph-name="Scircumflex" unicode="&#x15c;" horiz-adv-x="542" d="M328 672 Q353 672 380 668.5 Q407 665 432.5 656.5 Q458 648 481.5 634.5 Q505 621 524 600 L488 559 Q447 592 403 605 Q359 618 321 618 Q284 618 254 606.5 Q224 595 203 576 Q182 557 170.5 532 Q159 507 159 479 Q159 461 166 446 Q173 431 188.5 418.5 Q204 406 229.5 394.5 Q255 383 292 372 Q341 357 380 341.5 Q419 326 445 306.5 Q471 287 485 261.5 Q499 236 499 201 Q499 153 478.5 114 Q458 75 423 47.5 Q388 20 340 5 Q292 -10 238 -10 Q175 -10 115.5 8 Q56 26 14 68 L50 113 Q90 81 138 62.5 Q186 44 239 44 Q286 44 323 55.5 Q360 67 386 87 Q412 107 425.5 134 Q439 161 439 192 Q439 230 414 252.5 Q389 275 351.5 290 Q314 305 270 317 Q226 329 188.5 348 Q151 367 126 396.5 Q101 426 101 475 Q101 517 117.5 552.5 Q134 588 164 614.5 Q194 641 236 656.5 Q278 672 328 672 Z M394 849 L479 728 L413 728 L358 813 L277 728 L214 728 L337 849 L394 849 Z " />
<glyph glyph-name="scircumflex" unicode="&#x15d;" horiz-adv-x="399" d="M227 455 Q264 455 303 443.5 Q342 432 371 402 L335 365 Q305 390 276.5 397.5 Q248 405 219 405 Q171 405 143.5 381 Q116 357 116 322 Q116 297 134.5 283 Q153 269 200 256 Q273 235 313 208.5 Q353 182 353 133 Q353 70 302 30 Q251 -10 163 -10 Q123 -10 77.5 2 Q32 14 1 46 L35 85 Q56 68 87 53.5 Q118 39 163 39 Q226 39 261.5 63.5 Q297 88 297 128 Q297 153 279.5 167.5 Q262 182 235.5 191.5 Q209 201 178 209 Q147 217 120.5 230 Q94 243 76.5 263.5 Q59 284 59 318 Q59 347 71.5 372 Q84 397 106 415.5 Q128 434 159 444.5 Q190 455 227 455 Z M292 650 L377 529 L311 529 L256 614 L175 529 L112 529 L235 650 L292 650 Z " />
<glyph glyph-name="Scedilla" unicode="&#x15e;" horiz-adv-x="542" d="M324 -124 Q324 -146 313.5 -164 Q303 -182 285.5 -194.5 Q268 -207 246 -214 Q224 -221 200 -221 Q182 -221 163 -217 Q144 -213 127 -205 L146 -169 Q157 -174 172.5 -177 Q188 -180 203 -180 Q228 -180 249 -169.5 Q270 -159 270 -132 Q270 -114 255.5 -106 Q241 -98 223 -98 Q208 -98 192 -104 L164 -88 L210 -9 Q154 -6 102.5 12 Q51 30 14 68 L50 113 Q90 81 138 62.5 Q186 44 239 44 Q286 44 323 55.5 Q360 67 386 87 Q412 107 425.5 134 Q439 161 439 192 Q439 230 414 252.5 Q389 275 351.5 290 Q314 305 270 317 Q226 329 188.5 348 Q151 367 126 396.5 Q101 426 101 475 Q101 517 117.5 552.5 Q134 588 164 614.5 Q194 641 236 656.5 Q278 672 328 672 Q353 672 380 668.5 Q407 665 432.5 656.5 Q458 648 481.5 634.5 Q505 621 524 600 L488 559 Q447 592 403 605 Q359 618 321 618 Q284 618 254 606.5 Q224 595 203 576 Q182 557 170.5 532 Q159 507 159 479 Q159 461 166 446 Q173 431 188.5 418.5 Q204 406 229.5 394.5 Q255 383 292 372 Q341 357 380 341.5 Q419 326 445 306.5 Q471 287 485 261.5 Q499 236 499 201 Q499 154 479.5 115.5 Q460 77 426 49.5 Q392 22 346 6.5 Q300 -9 247 -10 L219 -61 Q224 -59 232 -58.5 Q240 -58 247 -58 Q278 -58 301 -75 Q324 -92 324 -124 Z " />
<glyph glyph-name="scedilla" unicode="&#x15f;" horiz-adv-x="399" d="M251 -119 Q251 -141 240.5 -159 Q230 -177 212.5 -189.5 Q195 -202 173 -209 Q151 -216 127 -216 Q109 -216 90 -212 Q71 -208 54 -200 L73 -164 Q84 -169 99.5 -172 Q115 -175 130 -175 Q155 -175 176 -164.5 Q197 -154 197 -127 Q197 -109 182.5 -101 Q168 -93 150 -93 Q135 -93 119 -99 L91 -83 L134 -9 Q99 -6 63 6.5 Q27 19 1 46 L35 85 Q56 68 87 53.5 Q118 39 163 39 Q226 39 261.5 63.5 Q297 88 297 128 Q297 153 279.5 167.5 Q262 182 235.5 191.5 Q209 201 178 209 Q147 217 120.5 230 Q94 243 76.5 263.5 Q59 284 59 318 Q59 347 71.5 372 Q84 397 106 415.5 Q128 434 159 444.5 Q190 455 227 455 Q264 455 303 443.5 Q342 432 371 402 L335 365 Q305 390 276.5 397.5 Q248 405 219 405 Q171 405 143.5 381 Q116 357 116 322 Q116 297 134.5 283 Q153 269 200 256 Q273 235 313 208.5 Q353 182 353 133 Q353 72 304 32 Q255 -8 171 -10 L146 -56 Q151 -54 159 -53.5 Q167 -53 174 -53 Q205 -53 228 -70 Q251 -87 251 -119 Z " />
<glyph glyph-name="Tcommaaccent" unicode="&#x162;" horiz-adv-x="502" d="M311 -119 Q311 -141 300.5 -159 Q290 -177 272.5 -189.5 Q255 -202 233 -209 Q211 -216 187 -216 Q169 -216 150 -212 Q131 -208 114 -200 L133 -164 Q144 -169 159.5 -172 Q175 -175 190 -175 Q215 -175 236 -164.5 Q257 -154 257 -127 Q257 -109 242.5 -101 Q228 -93 210 -93 Q195 -93 179 -99 L151 -83 L199 0 L191 0 L276 610 L70 610 L78 662 L550 662 L542 610 L335 610 L250 0 L237 0 L206 -56 Q211 -54 219 -53.5 Q227 -53 234 -53 Q265 -53 288 -70 Q311 -87 311 -119 Z " />
<glyph glyph-name="tcommaaccent" unicode="&#x163;" horiz-adv-x="320" d="M212 -119 Q212 -141 201.5 -159 Q191 -177 173.5 -189.5 Q156 -202 134 -209 Q112 -216 88 -216 Q70 -216 51 -212 Q32 -208 15 -200 L34 -164 Q45 -169 60.5 -172 Q76 -175 91 -175 Q116 -175 137 -164.5 Q158 -154 158 -127 Q158 -109 143.5 -101 Q129 -93 111 -93 Q96 -93 80 -99 L52 -83 L108 13 Q88 31 85 60.5 Q82 90 87 127 L125 398 L50 398 L55 433 Q88 440 108.5 456 Q129 472 141.5 495.5 Q154 519 161 549 Q168 579 175 612 L213 612 L189 445 L316 445 L309 398 L182 398 L144 127 Q139 89 149 66.5 Q159 44 199 44 Q219 44 238 49.5 Q257 55 272 62 L285 18 Q271 10 242.5 0.5 Q214 -9 182 -9 Q155 -9 136 -3 L107 -56 Q112 -54 120 -53.5 Q128 -53 135 -53 Q166 -53 189 -70 Q212 -87 212 -119 Z " />
<glyph glyph-name="Tcaron" unicode="&#x164;" horiz-adv-x="502" d="M335 610 L250 0 L191 0 L276 610 L70 610 L78 662 L550 662 L542 610 L335 610 Z M292 728 L207 849 L273 849 L328 764 L409 849 L472 849 L349 728 L292 728 Z " />
<glyph glyph-name="tcaron" unicode="&#x165;" horiz-adv-x="320" d="M213 612 L189 445 L316 445 L309 398 L182 398 L144 127 Q139 89 149 66.5 Q159 44 199 44 Q219 44 238 49.5 Q257 55 272 62 L285 18 Q271 10 242.5 0.5 Q214 -9 182 -9 Q147 -9 126.5 1.5 Q106 12 95.5 30 Q85 48 84 73 Q83 98 87 127 L125 398 L50 398 L55 433 Q88 440 108.5 456 Q129 472 141.5 495.5 Q154 519 161 549 Q168 579 175 612 L213 612 Z M281 545 Q307 559 326 584 Q345 609 349 632 Q345 631 341.5 631 Q338 631 336 631 Q321 631 311 640 Q301 649 303 669 Q305 685 318.5 697.5 Q332 710 350 710 Q373 710 380.5 692.5 Q388 675 385 651 Q383 636 376 618 Q369 600 357 582 Q345 564 328 549 Q311 534 290 525 L281 545 Z " />
<glyph glyph-name="Tbar" unicode="&#x166;" horiz-adv-x="502" d="M335 610 L304 386 L459 386 L452 337 L297 337 L250 0 L191 0 L238 337 L84 337 L91 386 L245 386 L276 610 L70 610 L78 662 L550 662 L542 610 L335 610 Z " />
<glyph glyph-name="tbar" unicode="&#x167;" horiz-adv-x="320" d="M213 612 L189 445 L316 445 L309 398 L182 398 L168 301 L288 301 L281 253 L161 253 L144 127 Q139 89 149 66.5 Q159 44 199 44 Q219 44 238 49.5 Q257 55 272 62 L285 18 Q271 10 242.5 0.5 Q214 -9 182 -9 Q147 -9 126.5 1.5 Q106 12 95.5 30 Q85 48 84 73 Q83 98 87 127 L104 253 L34 253 L41 301 L111 301 L125 398 L50 398 L55 433 Q88 440 108.5 456 Q129 472 141.5 495.5 Q154 519 161 549 Q168 579 175 612 L213 612 Z " />
<glyph glyph-name="Utilde" unicode="&#x168;" horiz-adv-x="676" d="M597 662 L654 662 L594 240 Q586 186 563 140 Q540 94 503 61 Q466 28 416 9 Q366 -10 306 -10 Q246 -10 201.5 8 Q157 26 129 59 Q101 92 91 138.5 Q81 185 89 242 L148 662 L205 662 L147 250 Q141 208 147 170.5 Q153 133 173 105 Q193 77 228 60.5 Q263 44 314 44 Q365 44 404 59.5 Q443 75 470.5 102 Q498 129 515 166 Q532 203 538 246 L597 662 Z M559 845 Q549 794 528.5 771 Q508 748 476 748 Q459 748 444 755.5 Q429 763 415 772.5 Q401 782 388 789.5 Q375 797 363 797 Q349 797 337.5 784.5 Q326 772 318 749 L277 749 Q285 779 296 798.5 Q307 818 319 828.5 Q331 839 343.5 843 Q356 847 368 847 Q385 847 400.5 839.5 Q416 832 429.5 823 Q443 814 456 806.5 Q469 799 481 799 Q492 799 502.5 806 Q513 813 521 845 L559 845 Z " />
<glyph glyph-name="utilde" unicode="&#x169;" horiz-adv-x="521" d="M163 445 L126 184 Q106 41 216 41 Q247 41 275.5 51.5 Q304 62 327 83 Q350 104 366.5 137 Q383 170 389 215 L421 445 L478 445 L416 0 L362 0 L370 64 Q370 65 368 65 Q329 25 290.5 7.5 Q252 -10 209 -10 Q124 -10 90 36.5 Q56 83 69 172 L107 445 L163 445 Z M457 639 Q447 588 426.5 565 Q406 542 374 542 Q357 542 342 549.5 Q327 557 313 566.5 Q299 576 286 583.5 Q273 591 261 591 Q247 591 235.5 578.5 Q224 566 216 543 L175 543 Q183 573 194 592.5 Q205 612 217 622.5 Q229 633 241.5 637 Q254 641 266 641 Q283 641 298.5 633.5 Q314 626 327.5 617 Q341 608 354 600.5 Q367 593 379 593 Q390 593 400.5 600 Q411 607 419 639 L457 639 Z " />
<glyph glyph-name="Umacron" unicode="&#x16a;" horiz-adv-x="676" d="M597 662 L654 662 L594 240 Q586 186 563 140 Q540 94 503 61 Q466 28 416 9 Q366 -10 306 -10 Q246 -10 201.5 8 Q157 26 129 59 Q101 92 91 138.5 Q81 185 89 242 L148 662 L205 662 L147 250 Q141 208 147 170.5 Q153 133 173 105 Q193 77 228 60.5 Q263 44 314 44 Q365 44 404 59.5 Q443 75 470.5 102 Q498 129 515 166 Q532 203 538 246 L597 662 Z M282 810 L561 810 L554 759 L275 759 L282 810 Z " />
<glyph glyph-name="umacron" unicode="&#x16b;" horiz-adv-x="521" d="M163 445 L126 184 Q106 41 216 41 Q247 41 275.5 51.5 Q304 62 327 83 Q350 104 366.5 137 Q383 170 389 215 L421 445 L478 445 L416 0 L362 0 L370 64 Q370 65 368 65 Q329 25 290.5 7.5 Q252 -10 209 -10 Q124 -10 90 36.5 Q56 83 69 172 L107 445 L163 445 Z M185 600 L449 600 L442 552 L178 552 L185 600 Z " />
<glyph glyph-name="Ubreve" unicode="&#x16c;" horiz-adv-x="676" d="M597 662 L654 662 L594 240 Q586 186 563 140 Q540 94 503 61 Q466 28 416 9 Q366 -10 306 -10 Q246 -10 201.5 8 Q157 26 129 59 Q101 92 91 138.5 Q81 185 89 242 L148 662 L205 662 L147 250 Q141 208 147 170.5 Q153 133 173 105 Q193 77 228 60.5 Q263 44 314 44 Q365 44 404 59.5 Q443 75 470.5 102 Q498 129 515 166 Q532 203 538 246 L597 662 Z M541 837 Q536 815 525.5 793.5 Q515 772 498.5 755.5 Q482 739 460 728.5 Q438 718 410 718 Q384 718 365 728 Q346 738 334 754.5 Q322 771 316.5 792.5 Q311 814 312 837 L360 837 Q357 804 372 783.5 Q387 763 417 763 Q452 763 469 785 Q486 807 494 837 L541 837 Z " />
<glyph glyph-name="ubreve" unicode="&#x16d;" horiz-adv-x="521" d="M163 445 L126 184 Q106 41 216 41 Q247 41 275.5 51.5 Q304 62 327 83 Q350 104 366.5 137 Q383 170 389 215 L421 445 L478 445 L416 0 L362 0 L370 64 Q370 65 368 65 Q329 25 290.5 7.5 Q252 -10 209 -10 Q124 -10 90 36.5 Q56 83 69 172 L107 445 L163 445 Z M440 639 Q435 617 424 595.5 Q413 574 396.5 557.5 Q380 541 358 530.5 Q336 520 308 520 Q282 520 263 530 Q244 540 232 556.5 Q220 573 215 594.5 Q210 616 211 639 L257 639 Q254 606 269.5 584.5 Q285 563 315 563 Q350 563 368.5 586 Q387 609 395 639 L440 639 Z " />
<glyph glyph-name="Uring" unicode="&#x16e;" horiz-adv-x="676" d="M597 662 L654 662 L594 240 Q586 186 563 140 Q540 94 503 61 Q466 28 416 9 Q366 -10 306 -10 Q246 -10 201.5 8 Q157 26 129 59 Q101 92 91 138.5 Q81 185 89 242 L148 662 L205 662 L147 250 Q141 208 147 170.5 Q153 133 173 105 Q193 77 228 60.5 Q263 44 314 44 Q365 44 404 59.5 Q443 75 470.5 102 Q498 129 515 166 Q532 203 538 246 L597 662 Z M413 719 Q371 719 352 743.5 Q333 768 338 804 Q343 842 372 867 Q401 892 437 892 Q475 892 496.5 867 Q518 842 513 804 Q508 768 479.5 743.5 Q451 719 413 719 Z M432 858 Q409 858 393 842 Q377 826 374 804 Q371 783 382 767.5 Q393 752 417 752 Q442 752 458 768 Q474 784 477 804 Q480 826 468 842 Q456 858 432 858 Z " />
<glyph glyph-name="uring" unicode="&#x16f;" horiz-adv-x="521" d="M163 445 L126 184 Q106 41 216 41 Q247 41 275.5 51.5 Q304 62 327 83 Q350 104 366.5 137 Q383 170 389 215 L421 445 L478 445 L416 0 L362 0 L370 64 Q370 65 368 65 Q329 25 290.5 7.5 Q252 -10 209 -10 Q124 -10 90 36.5 Q56 83 69 172 L107 445 L163 445 Z M306 510 Q264 510 245 534.5 Q226 559 231 595 Q236 633 265 658 Q294 683 330 683 Q368 683 389.5 658 Q411 633 406 595 Q401 559 372.5 534.5 Q344 510 306 510 Z M325 649 Q302 649 286 633 Q270 617 267 595 Q264 574 275 558.5 Q286 543 310 543 Q335 543 351 559 Q367 575 370 595 Q373 617 361 633 Q349 649 325 649 Z " />
<glyph glyph-name="Uhungarumlaut" unicode="&#x170;" horiz-adv-x="676" d="M597 662 L654 662 L594 240 Q586 186 563 140 Q540 94 503 61 Q466 28 416 9 Q366 -10 306 -10 Q246 -10 201.5 8 Q157 26 129 59 Q101 92 91 138.5 Q81 185 89 242 L148 662 L205 662 L147 250 Q141 208 147 170.5 Q153 133 173 105 Q193 77 228 60.5 Q263 44 314 44 Q365 44 404 59.5 Q443 75 470.5 102 Q498 129 515 166 Q532 203 538 246 L597 662 Z M482 832 L375 725 L324 725 L408 832 L482 832 Z M582 832 L475 725 L424 725 L508 832 L582 832 Z " />
<glyph glyph-name="uhungarumlaut" unicode="&#x171;" horiz-adv-x="521" d="M163 445 L126 184 Q106 41 216 41 Q247 41 275.5 51.5 Q304 62 327 83 Q350 104 366.5 137 Q383 170 389 215 L421 445 L478 445 L416 0 L362 0 L370 64 Q370 65 368 65 Q329 25 290.5 7.5 Q252 -10 209 -10 Q124 -10 90 36.5 Q56 83 69 172 L107 445 L163 445 Z M376 627 L269 525 L220 525 L305 627 L376 627 Z M473 627 L366 525 L317 525 L402 627 L473 627 Z " />
<glyph glyph-name="Uogonek" unicode="&#x172;" horiz-adv-x="676" d="M597 662 L654 662 L594 240 Q587 189 566 146 Q545 103 512 70 Q479 37 435 16.5 Q391 -4 337 -8 Q293 -40 268 -74.5 Q243 -109 240 -134 Q236 -160 247.5 -170 Q259 -180 279 -180 Q302 -180 323 -173 Q344 -166 361 -158 L372 -191 Q349 -204 318.5 -212.5 Q288 -221 260 -221 Q226 -221 202.5 -204.5 Q179 -188 185 -146 Q186 -137 191.5 -122 Q197 -107 209 -88.5 Q221 -70 240 -49.5 Q259 -29 288 -9 Q232 -6 191 13 Q150 32 124.5 64.5 Q99 97 90 142 Q81 187 89 242 L148 662 L205 662 L147 250 Q141 208 147 170.5 Q153 133 173 105 Q193 77 228 60.5 Q263 44 314 44 Q365 44 404 59.5 Q443 75 470.5 102 Q498 129 515 166 Q532 203 538 246 L597 662 Z " />
<glyph glyph-name="uogonek" unicode="&#x173;" horiz-adv-x="521" d="M163 445 L126 184 Q106 41 216 41 Q247 41 275.5 51.5 Q304 62 327 83 Q350 104 366.5 137 Q383 170 389 215 L421 445 L478 445 L416 0 L380 0 Q337 -32 312 -66 Q287 -100 284 -125 Q280 -151 291.5 -161 Q303 -171 323 -171 Q346 -171 367 -164 Q388 -157 405 -149 L416 -182 Q393 -195 362.5 -203.5 Q332 -212 304 -212 Q270 -212 246.5 -195.5 Q223 -179 229 -137 Q230 -127 237 -109.5 Q244 -92 259 -70.5 Q274 -49 299.5 -26 Q325 -3 364 19 L370 64 Q370 65 368 65 Q329 25 290.5 7.5 Q252 -10 209 -10 Q124 -10 90 36.5 Q56 83 69 172 L107 445 L163 445 Z " />
<glyph glyph-name="Wcircumflex" unicode="&#x174;" horiz-adv-x="886" d="M241 96 L481 662 L531 662 L611 97 L615 97 L882 662 L939 662 L626 0 L577 0 L493 566 L490 566 L249 0 L200 0 L73 662 L130 662 L237 96 L241 96 Z M566 849 L651 728 L585 728 L530 813 L449 728 L386 728 L509 849 L566 849 Z " />
<glyph glyph-name="wcircumflex" unicode="&#x175;" horiz-adv-x="706" d="M182 81 L362 445 L413 445 L491 81 L494 81 L673 445 L728 445 L507 0 L457 0 L379 370 L376 370 L194 0 L144 0 L47 445 L104 445 L179 81 L182 81 Z M447 650 L532 529 L466 529 L411 614 L330 529 L267 529 L390 650 L447 650 Z " />
<glyph glyph-name="Ycircumflex" unicode="&#x176;" horiz-adv-x="540" d="M297 319 L533 662 L593 662 L316 265 L279 0 L221 0 L258 265 L73 662 L137 662 L293 319 L297 319 Z M402 848 L487 727 L421 727 L366 812 L285 727 L222 727 L345 848 L402 848 Z " />
<glyph glyph-name="ycircumflex" unicode="&#x177;" horiz-adv-x="452" d="M56 -215 L177 0 L153 0 Q127 114 100 223 Q73 332 47 445 L107 445 L198 43 L201 43 L412 445 L469 445 L115 -215 L56 -215 Z M316 651 L401 530 L335 530 L280 615 L199 530 L136 530 L259 651 L316 651 Z " />
<glyph glyph-name="Zacute" unicode="&#x179;" horiz-adv-x="513" d="M11 48 L459 610 L107 610 L115 662 L534 662 L527 614 L82 52 L455 52 L448 0 L5 0 L11 48 Z M448 832 L339 725 L290 725 L374 832 L448 832 Z " />
<glyph glyph-name="zacute" unicode="&#x17a;" horiz-adv-x="406" d="M6 44 L337 399 L72 399 L78 445 L408 445 L402 402 L72 46 L348 46 L342 0 L0 0 L6 44 Z M373 627 L266 525 L217 525 L302 627 L373 627 Z " />
<glyph glyph-name="Zdotaccent" unicode="&#x17b;" horiz-adv-x="513" d="M11 48 L459 610 L107 610 L115 662 L534 662 L527 614 L82 52 L455 52 L448 0 L5 0 L11 48 Z M385 799 Q383 782 371 771.5 Q359 761 342 761 Q325 761 315.5 771.5 Q306 782 308 799 Q310 814 323.5 826 Q337 838 353 838 Q370 838 378.5 827 Q387 816 385 799 Z " />
<glyph glyph-name="zdotaccent" unicode="&#x17c;" horiz-adv-x="406" d="M6 44 L337 399 L72 399 L78 445 L408 445 L402 402 L72 46 L348 46 L342 0 L0 0 L6 44 Z M304 589 Q302 572 290 561.5 Q278 551 261 551 Q244 551 234.5 561.5 Q225 572 227 589 Q229 604 242.5 616 Q256 628 272 628 Q289 628 297.5 617 Q306 606 304 589 Z " />
<glyph glyph-name="AEacute" unicode="&#x1fc;" horiz-adv-x="853" d="M158 150 L44 0 L-20 0 L486 661 L853 661 L846 611 L567 611 L531 353 L820 353 L813 302 L524 302 L489 52 L799 52 L792 0 L423 0 L444 150 L158 150 Z M197 202 L451 202 L509 612 L197 202 Z M719 832 L610 725 L561 725 L645 832 L719 832 Z " />
<glyph glyph-name="aeacute" unicode="&#x1fd;" horiz-adv-x="843" d="M753 52 Q742 44 725.5 33.5 Q709 23 686.5 13 Q664 3 636 -3.5 Q608 -10 574 -10 Q501 -10 452.5 20 Q404 50 384 104 Q362 69 336.5 46.5 Q311 24 284 11 Q257 -2 229.5 -6.5 Q202 -11 178 -11 Q134 -11 106 0 Q78 11 61 28 Q44 45 37.5 65.5 Q31 86 31 104 Q31 155 54 186.5 Q77 218 112.5 235.5 Q148 253 190 259 Q232 265 271 265 L374 265 L377 290 Q378 297 378.5 303 Q379 309 379 315 Q379 408 266 408 Q233 408 200.5 399.5 Q168 391 130 375 L121 417 Q139 426 160 433.5 Q181 441 202 446 Q223 451 242 453.5 Q261 456 276 456 Q344 456 384 431.5 Q424 407 433 360 Q468 404 517 429.5 Q566 455 623 455 Q666 455 699 440.5 Q732 426 754 401 Q776 376 787 342 Q798 308 798 269 Q798 255 797 238.5 Q796 222 791 208 L432 208 Q431 201 430.5 195 Q430 189 430 183 Q430 114 472.5 77.5 Q515 41 578 41 Q620 41 656 52 Q692 63 730 91 L753 52 Z M368 221 L270 221 Q241 221 209 216.5 Q177 212 150.5 200 Q124 188 106.5 166.5 Q89 145 89 111 Q89 74 119.5 56 Q150 38 197 38 Q234 38 263 51 Q292 64 313 85.5 Q334 107 346.5 135.5 Q359 164 364 195 L368 221 Z M617 405 Q584 405 555 394 Q526 383 503 363.5 Q480 344 463.5 316 Q447 288 439 254 L744 254 L744 265 Q744 329 711.5 367 Q679 405 617 405 Z M590 627 L483 525 L434 525 L519 627 L590 627 Z " />
<glyph glyph-name="Oslashacute" unicode="&#x1fe;" horiz-adv-x="787" d="M588 832 L479 725 L430 725 L514 832 L588 832 Z M363 -10 Q303 -10 256 4 Q209 18 173 44 L132 0 L76 0 L141 70 Q104 108 85.5 159 Q67 210 67 271 Q67 353 99 426 Q131 499 185 553.5 Q239 608 310 640 Q381 672 459 672 Q516 672 563.5 656 Q611 640 647 611 L696 662 L751 662 L676 583 Q713 545 732.5 493.5 Q752 442 752 382 Q752 301 721 229.5 Q690 158 637 105 Q584 52 513 21 Q442 -10 363 -10 Z M451 619 Q383 619 324 592 Q265 565 221.5 518.5 Q178 472 153 410.5 Q128 349 128 280 Q128 230 142 188.5 Q156 147 185 116 L607 568 Q578 592 538.5 605.5 Q499 619 451 619 Z M214 89 Q244 67 283.5 55 Q323 43 371 43 Q440 43 499 70.5 Q558 98 601 143.5 Q644 189 668.5 249.5 Q693 310 693 376 Q693 424 678 466 Q663 508 636 540 L214 89 Z " />
<glyph glyph-name="Scommaaccent" unicode="&#x218;" horiz-adv-x="542" d="M328 672 Q353 672 380 668.5 Q407 665 432.5 656.5 Q458 648 481.5 634.5 Q505 621 524 600 L488 559 Q447 592 403 605 Q359 618 321 618 Q284 618 254 606.5 Q224 595 203 576 Q182 557 170.5 532 Q159 507 159 479 Q159 461 166 446 Q173 431 188.5 418.5 Q204 406 229.5 394.5 Q255 383 292 372 Q341 357 380 341.5 Q419 326 445 306.5 Q471 287 485 261.5 Q499 236 499 201 Q499 153 478.5 114 Q458 75 423 47.5 Q388 20 340 5 Q292 -10 238 -10 Q175 -10 115.5 8 Q56 26 14 68 L50 113 Q90 81 138 62.5 Q186 44 239 44 Q286 44 323 55.5 Q360 67 386 87 Q412 107 425.5 134 Q439 161 439 192 Q439 230 414 252.5 Q389 275 351.5 290 Q314 305 270 317 Q226 329 188.5 348 Q151 367 126 396.5 Q101 426 101 475 Q101 517 117.5 552.5 Q134 588 164 614.5 Q194 641 236 656.5 Q278 672 328 672 Z M167 -210 Q193 -196 212 -171 Q231 -146 235 -123 Q231 -124 227.5 -124 Q224 -124 222 -124 Q207 -124 197 -115 Q187 -106 189 -86 Q191 -70 204.5 -57.5 Q218 -45 236 -45 Q259 -45 266.5 -62.5 Q274 -80 271 -104 Q269 -119 262 -137 Q255 -155 243 -173 Q231 -191 214 -206 Q197 -221 176 -230 L167 -210 Z " />
<glyph glyph-name="scommaaccent" unicode="&#x219;" horiz-adv-x="399" d="M227 455 Q264 455 303 443.5 Q342 432 371 402 L335 365 Q305 390 276.5 397.5 Q248 405 219 405 Q171 405 143.5 381 Q116 357 116 322 Q116 297 134.5 283 Q153 269 200 256 Q273 235 313 208.5 Q353 182 353 133 Q353 70 302 30 Q251 -10 163 -10 Q123 -10 77.5 2 Q32 14 1 46 L35 85 Q56 68 87 53.5 Q118 39 163 39 Q226 39 261.5 63.5 Q297 88 297 128 Q297 153 279.5 167.5 Q262 182 235.5 191.5 Q209 201 178 209 Q147 217 120.5 230 Q94 243 76.5 263.5 Q59 284 59 318 Q59 347 71.5 372 Q84 397 106 415.5 Q128 434 159 444.5 Q190 455 227 455 Z M95 -210 Q121 -196 140 -171 Q159 -146 163 -123 Q159 -124 155.5 -124 Q152 -124 150 -124 Q135 -124 125 -115 Q115 -106 117 -86 Q119 -70 132.5 -57.5 Q146 -45 164 -45 Q187 -45 194.5 -62.5 Q202 -80 199 -104 Q197 -119 190 -137 Q183 -155 171 -173 Q159 -191 142 -206 Q125 -221 104 -230 L95 -210 Z " />
<glyph glyph-name="uni021A" unicode="&#x21a;" horiz-adv-x="502" d="M335 610 L250 0 L191 0 L276 610 L70 610 L78 662 L550 662 L542 610 L335 610 Z M146 -210 Q172 -196 191 -171 Q210 -146 214 -123 Q210 -124 206.5 -124 Q203 -124 201 -124 Q186 -124 176 -115 Q166 -106 168 -86 Q170 -70 183.5 -57.5 Q197 -45 215 -45 Q238 -45 245.5 -62.5 Q253 -80 250 -104 Q248 -119 241 -137 Q234 -155 222 -173 Q210 -191 193 -206 Q176 -221 155 -230 L146 -210 Z " />
<glyph glyph-name="uni021B" unicode="&#x21b;" horiz-adv-x="320" d="M213 612 L189 445 L316 445 L309 398 L182 398 L144 127 Q139 89 149 66.5 Q159 44 199 44 Q219 44 238 49.5 Q257 55 272 62 L285 18 Q271 10 242.5 0.5 Q214 -9 182 -9 Q147 -9 126.5 1.5 Q106 12 95.5 30 Q85 48 84 73 Q83 98 87 127 L125 398 L50 398 L55 433 Q88 440 108.5 456 Q129 472 141.5 495.5 Q154 519 161 549 Q168 579 175 612 L213 612 Z M33 -210 Q59 -196 78 -171 Q97 -146 101 -123 Q97 -124 93.5 -124 Q90 -124 88 -124 Q73 -124 63 -115 Q53 -106 55 -86 Q57 -70 70.5 -57.5 Q84 -45 102 -45 Q125 -45 132.5 -62.5 Q140 -80 137 -104 Q135 -119 128 -137 Q121 -155 109 -173 Q97 -191 80 -206 Q63 -221 42 -230 L33 -210 Z " />
</font>
</svg>
