<svg xmlns="http://www.w3.org/2000/svg" xmlns:xlink="http://www.w3.org/1999/xlink" width="170" height="53" viewBox="0 0 198.4262 61.0486">
  <defs>
    <clipPath id="a" transform="translate(0.0006 0.00009)">
      <rect y="0.00031" width="198.425" height="61.048" style="fill: none"/>
    </clipPath>
  </defs>
  <title>Vector Smart Object93</title>
  <g style="clip-path: url(#a)">
    <path d="M198.4256,34.77851a13.039,13.039,0,0,0-13.029-13.004H25.75859v26.266a12.98269,12.98269,0,0,0,13.02,13.008h159.647v-26.27Z" transform="translate(0.0006 0.00009)" style="fill: #fff"/>
    <path d="M196.46471,59.08761H38.7747a11.04819,11.04819,0,0,1-11.064-11.047v-24.312h157.686a11.07148,11.07148,0,0,1,11.068,11.05v24.309Z" transform="translate(0.0006 0.00009)" style="fill: #023f88"/>
    <path d="M79.8128,49.89671a6.12022,6.12022,0,0,1-4.516,2.123c-2.773,0-4.845-1.825-4.845-5.44v-9.204h3.804v8.662c0,2.006.883,3.33,2.698,3.33,1.311,0,2.863-.928,2.863-3.525v-8.467h3.797v14.298h-3.801v-1.777Z" transform="translate(0.0006 0.00009)" style="fill: #fff"/>
    <path d="M155.10139,39.15111a6.742,6.742,0,0,1,4.828-2.113c2.769,0,5.137,1.838,5.137,5.437v9.199h-3.792v-8.646a2.99508,2.99508,0,0,0-3.014-3.321,3.19471,3.19471,0,0,0-3.159,3.513v8.454h-3.817v-14.294h3.817v1.771Z" transform="translate(0.0006 0.00009)" style="fill: #fff"/>
    <path d="M91.7884,39.89811h0.059s1.415-2.86,3.2-2.86a3.7043,3.7043,0,0,1,2.573,1.291l-1.424,2.634a3.49625,3.49625,0,0,0-1.814-.486c-1.303,0-2.602,1.048-2.594,4.146v7.051h-3.804v-14.294h3.804v2.518Z" transform="translate(0.0006 0.00009)" style="fill: #fff"/>
    <polygon points="169.392 30.668 173.221 30.668 173.221 43.029 173.425 43.029 178.433 37.093 181.951 37.081 176.518 43.565 183.058 51.674 178.679 51.674 173.272 44.142 173.221 44.142 173.221 51.674 169.392 51.674 169.392 30.668" style="fill: #fff"/>
    <path d="M62.6839,48.99531c-2.797,0-3.604-1.076-3.604-2.674v-3.788h6.572v-2.683h-6.572v-5.501h6.722v-2.668H55.0379v14.952c0,2.643,1.377,5.041,4.549,5.041h7.451v-2.679h-4.354Z" transform="translate(0.0006 0.00009)" style="fill: #fff"/>
    <path d="M139.013,52.02011c-3.101.016-4.633-1.932-4.637-3.98-0.026-3.238,1.965-4.616,5.291-5.561l3.325-.991a2.53246,2.53246,0,0,0-2.547-2.16,5.46033,5.46033,0,0,0-3.78,1.469l-1.244-1.798a8.117,8.117,0,0,1,5.507-1.961c2.643,0,5.878.866,5.878,5.328v5.832a8.14691,8.14691,0,0,0,.586,3.476h-4.054a6.83427,6.83427,0,0,1-.346-2.077s-1.573,2.423-3.979,2.423m-32.855,0a7.495,7.495,0,1,0-7.505-7.476,7.49081,7.49081,0,0,0,7.505,7.476m19.227-14.99a5.7292,5.7292,0,0,0-4.492,2.329h-0.042v-8.685h-3.812v21h3.812v-1.777a6.04524,6.04524,0,0,0,4.534,2.123c3.53,0,6.389-3.362,6.389-7.476,0-4.142-2.859-7.514-6.389-7.514m15.518,7.06c-1.852.574-2.805,1.671-2.805,3.301a1.87517,1.87517,0,0,0,1.652,2.108c1.632-.002,3.334-1.636,3.271-6.081Zm-34.745-4.939c2.035,0,3.463,1.85,3.463,5.38,0,3.547-1.428,5.366-3.463,5.366-2.023,0-3.459-1.819-3.459-5.366,0-3.53,1.436-5.38,3.459-5.38m18.169,0c2.011,0,3.443,1.85,3.443,5.38,0,3.547-1.432,5.366-3.443,5.366-2.044,0-3.471-1.819-3.471-5.366,0-3.53,1.427-5.38,3.471-5.38" transform="translate(0.0006 0.00009)" style="fill: #fff"/>
    <path d="M23.7474,47.46991a23.735,23.735,0,1,0-23.748-23.735,23.74351,23.74351,0,0,0,23.748,23.735" transform="translate(0.0006 0.00009)" style="fill: #fff"/>
    <path d="M1.9481,23.735A21.80351,21.80351,0,1,0,23.7511,1.956,21.79976,21.79976,0,0,0,1.9481,23.735" transform="translate(0.0006 0.00009)" style="fill: #d2232a"/>
    <path d="M26.3367,8.34391a6.0877,6.0877,0,0,0-.928-0.443c-2.619-.978-5.553.295-7.335,2.967l-9.878,14.643a5.76652,5.76652,0,0,0,4.829,8.922h23.568l-4.545-5.391H12.4127Z" transform="translate(0.0006 0.00009)" style="fill: #fff"/>
    <path d="M29.3504,20.20091l-3.201,4.982h-6.519l9.079-14.073,10.406,12.05a6.618,6.618,0,0,1,.366,8.746Z" transform="translate(0.0006 0.00009)" style="fill: #fff"/>
  </g>
</svg>
