<?xml version="1.0" encoding="utf-8"?>
<!-- Generator: Adobe Illustrator 16.0.0, SVG Export Plug-In . SVG Version: 6.00 Build 0)  -->
<!DOCTYPE svg PUBLIC "-//W3C//DTD SVG 1.1//EN" "http://www.w3.org/Graphics/SVG/1.1/DTD/svg11.dtd">
<svg version="1.1" id="Ebene_1" xmlns="http://www.w3.org/2000/svg" xmlns:xlink="http://www.w3.org/1999/xlink" x="0px" y="0px"
	 width="95px" height="95px" viewBox="0 0 95 95" enable-background="new 0 0 95 95" xml:space="preserve">
<rect fill="#DEDEDE" width="95" height="95"/>
<g>
	<defs>
		<rect id="SVGID_1_" width="95" height="95"/>
	</defs>
	<clipPath id="SVGID_2_">
		<use xlink:href="#SVGID_1_"  overflow="visible"/>
	</clipPath>
	<path clip-path="url(#SVGID_2_)" fill="#999999" d="M22.443,45.382c0,0-8.597-15.557,3.685-23.744
		c-0.274-0.273-0.683-5.458,0-6.687c0,0,6.003,1.366,10.78,0.683c0,0-1.638-6.687,2.047-8.87c0,0,5.594,5.731,13.099,6.14
		c7.506,0.411,22.38,5.459,24.427,18.696c2.047,13.236-2.32,14.874-2.32,14.874"/>
	<path clip-path="url(#SVGID_2_)" fill="none" stroke="#373737" stroke-miterlimit="10" d="M22.443,45.382
		c0,0-8.597-15.557,3.685-23.744c-0.274-0.273-0.683-5.458,0-6.687c0,0,6.003,1.366,10.78,0.683c0,0-1.638-6.687,2.047-8.87
		c0,0,5.594,5.731,13.099,6.14c7.506,0.411,22.38,5.459,24.427,18.696c2.047,13.236-2.32,14.874-2.32,14.874"/>
	<path clip-path="url(#SVGID_2_)" fill="#FFFFFF" d="M22.443,47.02c0,0-3.002-2.047-5.458-1.501
		c-2.457,0.546-4.367,7.914-2.184,13.373c2.184,5.458,7.642,6.823,7.642,6.823"/>
	<path clip-path="url(#SVGID_2_)" fill="none" stroke="#373737" stroke-miterlimit="10" d="M22.443,47.02
		c0,0-3.002-2.047-5.458-1.501c-2.457,0.546-4.367,7.914-2.184,13.373c2.184,5.458,7.642,6.823,7.642,6.823"/>
	<path clip-path="url(#SVGID_2_)" fill="#FFFFFF" d="M74.024,47.02c0,0,3.002-2.047,5.458-1.501s4.366,7.914,2.184,13.373
		c-2.184,5.458-7.642,6.823-7.642,6.823"/>
	<path clip-path="url(#SVGID_2_)" fill="none" stroke="#373737" stroke-miterlimit="10" d="M74.024,47.02
		c0,0,3.002-2.047,5.458-1.501s4.366,7.914,2.184,13.373c-2.184,5.458-7.642,6.823-7.642,6.823"/>
	<path clip-path="url(#SVGID_2_)" fill="#FFFFFF" d="M22.683,66.265c0.025,3.941,1.154,7.807,3.356,11.076
		c3.8,5.644,10.986,13.209,22.196,13.209c14.909,0,22.435-11.889,24.641-16.3c1.063-2.125,1.313-6.093,1.313-7.063L74.448,46.6
		c0.018-1.477-0.143-2.944-0.475-4.383c-0.524-2.273-1.357-5.602-1.965-6.731c0,0-8.403-2.445-13.813-8.662
		c0,0-15.011,7.915-27.974,0c0,0-7.642,6.55-7.642,15.829C22.58,48.943,22.643,59.876,22.683,66.265"/>
	<path clip-path="url(#SVGID_2_)" fill="none" stroke="#373737" stroke-miterlimit="10" d="M22.683,66.265
		c0.025,3.941,1.154,7.807,3.356,11.076c3.8,5.644,10.986,13.209,22.196,13.209c14.909,0,22.435-11.889,24.641-16.3
		c1.063-2.125,1.313-6.093,1.313-7.063L74.448,46.6c0.018-1.477-0.143-2.944-0.475-4.383c-0.524-2.273-1.357-5.602-1.965-6.731
		c0,0-8.403-2.445-13.813-8.662c0,0-15.011,7.915-27.974,0c0,0-7.642,6.55-7.642,15.829C22.58,48.943,22.643,59.876,22.683,66.265z"
		/>
</g>
</svg>
