<?xml version="1.0" encoding="utf-8"?>
<!-- Generator: Adobe Illustrator 21.1.0, SVG Export Plug-In . SVG Version: 6.00 Build 0)  -->
<svg version="1.1" id="Layer_1" xmlns="http://www.w3.org/2000/svg" xmlns:xlink="http://www.w3.org/1999/xlink" x="0px" y="0px"
	 viewBox="0 0 35.9 34.9" style="enable-background:new 0 0 35.9 34.9;" xml:space="preserve">
<style type="text/css">
	.st0{fill:#0C6DB3;}
	.st1{fill:#3EABD6;}
</style>
<path class="st0" d="M11,30l-0.8-0.3C4.1,27.6,0,21.8,0,15.3C0,6.9,6.9,0,15.3,0c6.5,0,12.3,4.1,14.4,10.2L30,11l-1.5,0.5l-0.3-0.8
	c-1.9-5.5-7.1-9.1-12.9-9.1C7.7,1.6,1.6,7.7,1.6,15.3c0,5.8,3.7,11,9.1,12.9l0.8,0.3L11,30z"/>
<path class="st0" d="M9.2,22.1l-0.5-0.6c-1.9-2.1-2.7-4.8-2.3-7.6c0.4-2.3,1.7-4.4,3.6-5.7s4.3-1.9,6.6-1.5c2.8,0.5,5.1,2.2,6.4,4.7
	l0.4,0.7L22,12.9l-0.4-0.7c-1-2.1-2.9-3.5-5.2-3.9c-3.9-0.7-7.7,1.9-8.4,5.9c-0.4,2.3,0.3,4.5,1.9,6.2l0.5,0.6L9.2,22.1z"/>
<g transform="translate(0, 0)">
	<path class="st1" d="M21.3,34.9L10.9,24.5l6.3-6.3l4.1,4.1l8.3-8.3l6.3,6.3L21.3,34.9z M13.1,24.5l8.2,8.2l12.4-12.4l-4-4l-8.3,8.3
		l-4.1-4.1L13.1,24.5z"/>
</g>
</svg>
